<?xml version="1.0" encoding="utf-8"?>
<!-- Generator: Adobe Illustrator 26.0.3, SVG Export Plug-In . SVG Version: 6.00 Build 0)  -->
<svg version="1.1" id="Layer_1" xmlns="http://www.w3.org/2000/svg" xmlns:xlink="http://www.w3.org/1999/xlink" x="0px" y="0px"
	 viewBox="0 0 1136.1 240" style="enable-background:new 0 0 1136.1 240;" xml:space="preserve">
<style type="text/css">
	.st0{fill:#FFFFFF;}
</style>
<g id="Layer_2_00000140726683581081310150000001827603885555852460_">
	<g id="Layer_1-2">
		<path class="st0" d="M89.7,59.1h67.8L147,99.3c-1.4,5.4-4.6,10.1-9,13.5c-4.4,3.4-9.8,5.2-15.3,5.1H91.2c-6.9-0.1-13.6,2.1-19,6.3
			c-5.6,4.3-9.6,10.3-11.5,17.1c-1.4,5-1.5,10.2-0.5,15.3c1,4.6,3,9,5.8,12.8c2.9,3.8,6.6,6.8,10.8,8.9c4.5,2.2,9.4,3.3,14.4,3.3
			h19.2c3.5-0.1,6.8,1.6,8.8,4.4c2.3,2.7,3,6.4,2,9.8l-12,44.4h-21c-13.8,0.1-27.5-3.1-39.8-9.4c-11.8-6-22.1-14.6-30.2-25.1
			C10.3,195,4.7,182.9,1.9,170C-1,156.4-0.6,142.4,3,129l1.2-4.5c5.1-18.8,16.2-35.4,31.6-47.2c7.6-5.7,16-10.2,25-13.3
			C70.1,60.7,79.9,59.1,89.7,59.1z"/>
		<path class="st0" d="M123.9,240L183,18.6c1.4-5.4,4.6-10.1,9-13.5c4.4-3.4,9.8-5.2,15.3-5.1H270c13.8-0.1,27.5,3.1,39.8,9.4
			c23.9,12.2,41,34.4,46.6,60.6c3,13.6,2.6,27.6-1.2,41l-1.2,4.5c-2.5,9.4-6.6,18.4-12,26.5c-16.3,24.5-43.8,39.2-73.2,39.2h-54.3
			l10.8-40.5c1.5-5.3,4.7-9.9,9-13.2c4.4-3.4,9.8-5.2,15.3-5.1H267c14.4,0,27-9.7,30.6-23.7c1.4-4.8,1.5-9.9,0.4-14.8
			c-1-4.6-3-9-5.9-12.8c-2.9-3.8-6.6-6.8-10.8-9c-4.4-2.3-9.4-3.5-14.4-3.5h-33.6l-43.8,162.9c-1.5,5.3-4.7,9.9-9,13.2
			c-4.3,3.4-9.6,5.2-15,5.1H123.9z"/>
		<path class="st0" d="M498,121.8l0.9-3.3c0.4-1.4,0.1-2.9-0.8-4c-0.9-1.1-2.3-1.7-3.8-1.7h-97.5c-4,0.1-7.9-0.9-11.4-2.7
			c-3.3-1.7-6.2-4.1-8.4-7c-2.2-3-3.8-6.4-4.5-10c-0.8-3.9-0.7-7.9,0.3-11.7l6-22.8h132c7.8-0.1,15.6,1.8,22.5,5.4
			c6.6,3.4,12.4,8.2,17,14.1c4.5,5.9,7.7,12.7,9.3,20c1.7,7.7,1.5,15.6-0.5,23.2l-23.7,88.2c-4.7,18-21,30.4-39.6,30.3l-97.5-0.3
			c-16.3,0.1-31.6-7.5-41.4-20.5c-4.7-6.2-7.9-13.4-9.6-21c-1.8-8-1.6-16.3,0.6-24.1l1.2-4.5c1.4-5.6,3.8-10.9,7-15.6
			c3.2-4.7,7.1-8.8,11.5-12.3c4.4-3.4,9.4-6.1,14.7-7.9c5.5-1.9,11.3-2.9,17.1-2.9h81.9l-6,22.5c-1.5,5.3-4.7,9.9-9,13.2
			c-4.3,3.4-9.6,5.2-15,5.1h-36.6c-3.4,0-5.6,1.7-6.6,5.1c-0.6,2-0.2,4.2,1.2,5.9c1.3,1.7,3.3,2.6,5.4,2.6H474c2,0,4.1-0.6,5.7-1.8
			c1.6-1.2,2.6-2.9,3-4.8l0.6-2.4L498,121.8z"/>
		<path class="st0" d="M672.6,59.1c13.9-0.2,27.6,3.1,40,9.4c11.8,6,22.1,14.5,30.2,25c8.1,10.5,13.6,22.7,16.3,35.7
			c2.9,13.6,2.4,27.7-1.3,41.1l-15,56.4c-0.9,3.9-3.2,7.3-6.5,9.6c-3.2,2.4-7,3.6-11,3.6H693c-6.1,0.1-11.1-4.7-11.3-10.7
			c0-1.1,0.1-2.3,0.4-3.4l18-68.1c1.4-4.8,1.5-9.8,0.5-14.7c-1-4.6-3-9-5.8-12.8c-2.9-3.8-6.6-6.8-10.8-9c-4.4-2.3-9.4-3.5-14.4-3.4
			H636l-29.1,108.9c-0.9,3.9-3.2,7.3-6.5,9.6c-3.3,2.4-7.2,3.7-11.2,3.6h-32.1c-3.5,0.1-6.8-1.6-8.8-4.4c-2.3-2.7-3-6.4-2-9.8
			l44.4-166.8L672.6,59.1z"/>
		<path class="st0" d="M849.3,116.2c-2.4,1.9-4.2,4.4-5.1,7.3l-13.5,51c-1.3,4.8,1.5,9.7,6.3,11.1c0.8,0.2,1.6,0.3,2.4,0.3h124.2
			l-9.6,35.7c-1.5,5.3-4.7,9.9-9,13.2c-4.3,3.4-9.6,5.2-15,5.1H816.9c-7.8,0.1-15.5-1.7-22.5-5.2c-6.7-3.4-12.5-8.2-17-14.1
			c-4.5-5.9-7.7-12.8-9.3-20.1c-1.7-7.6-1.4-15.5,0.8-23l18.3-68.1c1.9-7.3,5.1-14.2,9.3-20.4c8.2-12.2,20.1-21.4,34-26.2
			c7.1-2.5,14.5-3.8,22-3.8h80.1c7.8-0.1,15.6,1.8,22.5,5.4c6.6,3.4,12.4,8.2,17,14.1c4.6,5.9,7.7,12.8,9.2,20.1
			c1.6,7.6,1.4,15.6-0.6,23.1l-5.4,20.4c-2.2,8.7-7.3,16.5-14.5,21.9c-7.1,5.4-15.8,8.3-24.7,8.2h-90.6l6-22.2
			c1.3-5.3,4.4-9.9,8.7-13.2c4.4-3.4,9.8-5.2,15.3-5.1H912c3.4,0,5.6-1.7,6.6-5.1l1.2-4.5c1-3.7-1.2-7.5-4.9-8.5
			c-0.6-0.1-1.1-0.2-1.7-0.2h-55.8C854.4,113.4,851.6,114.4,849.3,116.2z"/>
		<path class="st0" d="M963.3,240l60.3-226.5c0.9-3.9,3.2-7.4,6.4-9.8c3.2-2.5,7.2-3.8,11.3-3.8h32.1c3.6-0.1,7,1.5,9.2,4.3
			c2.3,2.7,3,6.4,2,9.8l-45,167.1c-2.1,8.6-5.7,16.7-10.7,24c-4.8,7.1-10.6,13.3-17.4,18.4c-6.8,5.1-14.3,9.2-22.3,12
			C980.8,238.6,972.1,240,963.3,240z"/>
		<path class="st0" d="M1094.8,21.1c0-3.6,0.9-7.2,2.8-10.3c3.7-6.4,10.5-10.4,17.9-10.3c3.6,0,7.2,0.9,10.3,2.7
			c3.2,1.8,5.8,4.4,7.6,7.6c3.7,6.3,3.7,14.1,0.1,20.5c-5.6,9.9-18.2,13.5-28.2,7.8c-3.3-1.9-6-4.6-7.8-7.8
			C1095.7,28.1,1094.8,24.6,1094.8,21.1z M1097.7,21.1c0,6.4,3.4,12.2,8.9,15.4c5.5,3.2,12.2,3.2,17.7,0c2.7-1.6,4.9-3.8,6.5-6.5
			c1.6-2.7,2.4-5.8,2.4-8.9c0-3.1-0.8-6.2-2.4-8.9c-1.6-2.7-3.8-4.9-6.5-6.5c-5.5-3.2-12.3-3.2-17.8,0c-2.7,1.6-4.9,3.8-6.5,6.5
			C1098.5,14.9,1097.7,17.9,1097.7,21.1z M1123.8,16.1c0,1.4-0.4,2.7-1.2,3.9c-0.8,1.2-2,2-3.3,2.5l6.5,10.9h-4.6l-5.7-9.7h-3.7v9.7
			h-4.1V8.9h7.1c3,0,5.3,0.6,6.7,1.8C1123.2,12,1124,14,1123.8,16.1L1123.8,16.1z M1111.9,20.2h3c1.3,0.1,2.5-0.3,3.5-1.1
			c0.9-0.7,1.4-1.8,1.3-2.9c0.1-1.1-0.3-2.2-1.2-2.9c-1.1-0.7-2.4-1-3.7-0.9h-2.9L1111.9,20.2z"/>
	</g>
</g>
</svg>
