<svg version="1.1" id="Layer_1" xmlns="http://www.w3.org/2000/svg" x="0" y="0" viewBox="0 0 150 150" xml:space="preserve"><style>.st0{fill:#2ec9d4}</style><g id="Group_164" transform="translate(0 10.134)"><g id="Group_163"><path id="Path_71" class="st0" d="M62.1 35.8c-33.4 0-60.8 22.9-60.8 51.1.1 11.7 4.5 22.9 12.4 31.6L2.3 131.4c-1.6 1.8-1.4 4.5.4 6.1.8.7 1.8 1.1 2.8 1.1h60.8c24.6 0 56.4-21.2 56.4-51.7.1-28.2-27.3-51.1-60.6-51.1zm-26.2 59c-4.8 0-8.6-3.9-8.6-8.6 0-4.8 3.9-8.6 8.6-8.6 4.8 0 8.6 3.9 8.6 8.6 0 4.8-3.9 8.6-8.6 8.6-.1 0-.1 0 0 0zm26.2 0c-4.8 0-8.6-3.9-8.6-8.6 0-4.8 3.9-8.6 8.6-8.6 4.8 0 8.6 3.9 8.6 8.6 0 4.7-3.9 8.6-8.6 8.6zm26.2 0c-4.8 0-8.6-3.9-8.6-8.6 0-4.8 3.9-8.6 8.6-8.6 4.8 0 8.6 3.9 8.6 8.6 0 4.8-3.9 8.6-8.6 8.6-.1 0-.1 0 0 0z"/></g></g><g id="Group_166" transform="translate(8.015)"><g id="Group_165"><path id="Path_72" class="st0" d="M139.7 89.2l-10.2-11.9c7.1-7.8 11.1-18 11.2-28.5 0-26.2-25.2-47.5-56.1-47.5-28 0-51.8 17.4-56 40.2 8.2-2.8 16.8-4.2 25.5-4.2 37.8 0 68.9 26.4 69.4 59h13c2.4 0 4.3-2 4.3-4.4-.1-1-.5-1.9-1.1-2.7z"/></g></g></svg>