<?xml version="1.0" encoding="utf-8"?>
<!-- Generator: Adobe Illustrator 26.0.3, SVG Export Plug-In . SVG Version: 6.00 Build 0)  -->
<svg version="1.1" id="Layer_1" xmlns="http://www.w3.org/2000/svg" xmlns:xlink="http://www.w3.org/1999/xlink" x="0px" y="0px"
	 viewBox="0 0 250 60" style="enable-background:new 0 0 250 60;" xml:space="preserve">
<style type="text/css">
	.st0{fill:#FFFFFF;}
</style>
<g>
	<path class="st0" d="M68.6,14.1v27c0,0.3,0.2,0.5,0.4,0.5c1.4,0.1,3,0.1,4.7,0c1.4-0.1,3-0.3,5-0.6c-0.1,0.4-0.1,0.9-0.1,1.3
		c0,0.4,0,0.9,0.1,1.4H62.7V14.1c0.3,0,0.7,0.1,1.2,0.1c0.7,0.1,1.4,0.1,1.9,0l1.4,0C67.8,14.1,68.2,14.1,68.6,14.1z M87.8,15.5
		c-0.9,0.1-1.4,0.1-1.8,0h-1.4c-0.5-0.1-0.9-0.1-1.2-0.1v28.3h5.6V15.4C88.6,15.4,88.3,15.5,87.8,15.5z M93.4,15.4
		c0.1,0.4,0.1,0.8,0.1,1.2c0,0.5,0,1-0.1,1.4h0.9c2.6-0.3,4.9-0.5,6.6-0.5c0.3,0,0.5,0.2,0.5,0.5v25.8h5.4V17.9
		c0-0.3,0.2-0.5,0.5-0.5c1.2,0,3,0.1,5.3,0.3c0.6,0.1,1.2,0.1,1.8,0.2c-0.1-0.4-0.1-0.8,0-1.3c-0.1-0.4-0.1-0.8,0-1.2L93.4,15.4
		L93.4,15.4z M118.8,15.4v28.3h15.3c-0.1-0.5-0.1-1-0.1-1.4c0-0.4,0-0.9,0.1-1.2c-1,0.2-2.2,0.3-3.4,0.4c-1.4,0.1-3.4,0.2-5.9,0.2
		c-0.3,0-0.5-0.2-0.5-0.5v-11c0-0.3,0.2-0.5,0.5-0.5h4.1c1.4,0.1,2.5,0.2,3.6,0.2l0.8,0.1c0-0.1-0.1-0.2-0.1-0.4l0-2
		c0-0.1,0-0.1,0-0.2c0,0,0-0.1,0-0.1c-1.4,0.2-2.8,0.3-4.3,0.3h-4.1c-0.3,0-0.5-0.2-0.5-0.5v-9.3c0-0.3,0.2-0.5,0.5-0.5
		c3,0,6.2,0.2,9.4,0.6c-0.1-0.4-0.2-0.9-0.2-1.3c0-0.5,0.1-0.9,0.2-1.4L118.8,15.4L118.8,15.4z M157.2,35c-0.1-3.5-2.8-6.6-8-9.2
		c-3.9-2-5.7-3.9-5.7-5.9c0-3.2,1.9-4.9,5.4-5.1c2.4,0,4.3,1.3,5.5,3.8c0.1-0.4,0.3-1,0.6-1.7c0.3-0.8,0.5-1.4,0.7-1.9
		c-1.9-1.1-4.1-1.7-6.6-1.8c-6.4,0.3-9.7,3.3-9.9,9c0,3.9,2.5,7,7.3,9.2c4,1.8,6.1,3.9,6.1,6.3c-0.3,3.2-2.2,4.9-5.8,5.1
		c-3.5-0.1-5.7-1.8-6.6-4.9h-0.1c-0.2,1.7-0.6,3.4-1.1,5c2.1,0.8,4.4,1.3,6.6,1.4C152.8,44.3,156.7,40.9,157.2,35z M166.6,30.9
		c-0.1,0-0.2,0-0.3,0.1c-0.1,0.1-0.1,0.2-0.1,0.3v12.3h-5.6V15.4h10.1c5.8,0,8.7,2.2,8.8,6.8c0,2.5-0.6,4.5-2,5.9
		c-1.9,1.9-5.2,2.9-9.9,2.9C167.2,30.9,166.9,30.9,166.6,30.9z M166.5,29.5c0.2,0,0.4,0,0.7,0c0.7,0,1.5-0.1,2.4-0.4
		c2.6-0.7,4-2.8,4.2-6.2c-0.2-3.8-1.7-6-4.5-6.3h-2.7c-0.3,0-0.5,0.2-0.5,0.5V29C166.1,29.3,166.3,29.5,166.5,29.5z M201.9,15.4
		v28.3h15.3c-0.1-0.5-0.1-1-0.1-1.4c0-0.5,0-0.9,0.1-1.3c-1.1,0.2-2.2,0.3-3.5,0.4c-1.5,0.1-3.4,0.2-5.9,0.2c-0.3,0-0.5-0.2-0.5-0.5
		V30.2c0-0.3,0.2-0.5,0.5-0.5h4.5c1.7,0.1,3.3,0.2,4.7,0.3c0-0.1-0.1-0.2-0.1-0.4l0-2c0-0.1,0-0.1,0-0.1c0-0.1,0-0.1,0-0.1
		c-1.4,0.2-3,0.3-4.7,0.3h-4.5c-0.3,0-0.5-0.2-0.5-0.5v-9.3c0-0.3,0.2-0.5,0.5-0.5c3,0,6.2,0.2,9.5,0.6c-0.1-0.5-0.2-0.9-0.2-1.3
		c0-0.5,0.1-0.9,0.2-1.4L201.9,15.4L201.9,15.4z M230.5,43.7h-9.3V15.4l12,0c8.1,0.6,12.3,4.9,12.7,13.3
		C245.3,38.1,240.2,43.2,230.5,43.7z M239.6,28.7c0-7.8-3.5-11.7-10.4-11.7h-2.1c-0.3,0-0.5,0.2-0.5,0.5v24.2c0,0.3,0.2,0.5,0.5,0.5
		h1.8c3.5,0,6.2-1.2,8-3.4C238.7,36.5,239.6,33.1,239.6,28.7z M182.5,15.4v28.3h15.3c-0.1-0.5-0.1-1-0.1-1.4c0-0.5,0-0.9,0.1-1.3
		c-1.1,0.2-2.2,0.3-3.5,0.4c-1.5,0.1-3.4,0.2-5.9,0.2c-0.3,0-0.5-0.2-0.5-0.5V30.2c0-0.3,0.2-0.5,0.5-0.5h4.5
		c1.7,0.1,3.3,0.2,4.7,0.3c0-0.1-0.1-0.2-0.1-0.4l0-2c0-0.1,0-0.1,0-0.1c0-0.1,0-0.1,0-0.1c-1.4,0.2-3,0.3-4.6,0.3h-4.5
		c-0.3,0-0.5-0.2-0.5-0.5v-9.3c0-0.3,0.2-0.5,0.5-0.5c3,0,6.2,0.2,9.5,0.6c-0.1-0.5-0.2-0.9-0.2-1.3c0-0.5,0.1-0.9,0.2-1.4
		L182.5,15.4L182.5,15.4z"/>
	<g>
		<g>
			<path class="st0" d="M48.2,29.1L34.9,15.8L29.3,23l6.1,6.1c0.6,0.6,0.6,1.5,0,2l-1.8,1.8c0,0,1.2,1.8,1.2,1.9
				c0.3,0.5,0.3,1.8-0.4,2.4L20.6,47.9c0,3.6,0,10.9,0,10.9c0,0,27.7-27.7,27.7-27.7C48.8,30.6,48.8,29.7,48.2,29.1z"/>
			<path class="st0" d="M17.4,30.8c-0.6-0.6-0.6-1.5,0-2l1.8-1.8l-1.2-1.7c-0.6-0.8-0.4-2,0.4-2.6L32.2,12l0-10.9l0,0l0,0L4.5,28.7
				c-0.6,0.6-0.6,1.5,0,2l13.3,13.3l5.7-7.2L17.4,30.8z"/>
		</g>
		<g>
			<polygon class="st0" points="26.6,39.6 26.6,39.6 20.2,46 			"/>
		</g>
		<g>
			<g>
				<g>
					<path class="st0" d="M39.2,7.8c0.2,0,0.4,0.1,0.5,0.3c0.1,0.3,0,0.6-0.2,0.8L27.3,24.3c-0.2,0.2-0.2,0.7,0,0.9
						c0,0,6.6,9.5,6.8,9.8c0.2,0.4,0.3,1.4-0.3,1.9l-19.5,15c-0.3,0.2-0.4,0.3-0.6,0.3c-0.2,0-0.4-0.1-0.4-0.3
						c-0.1-0.3,0-0.6,0.2-0.8l12.2-15.4c0.2-0.2,0.2-0.6,0-0.9L18.7,25c-0.4-0.6-0.3-1.5,0.3-1.9L38.6,8C38.9,7.8,39.1,7.8,39.2,7.8
						 M39.2,7.5c-0.2,0-0.5,0.1-0.8,0.3l-19.5,15c-0.7,0.5-0.9,1.6-0.4,2.3l6.8,9.8c0.1,0.1,0.1,0.4,0,0.6L13.1,50.9
						c-0.2,0.2-0.5,0.6-0.3,1.1c0.1,0.2,0.4,0.4,0.6,0.4c0.3,0,0.5-0.1,0.8-0.3l19.5-15c0.7-0.5,0.7-1.7,0.4-2.2
						C34,34.5,27.4,25,27.4,25c-0.1-0.1-0.1-0.5,0-0.6L39.6,9c0.2-0.2,0.5-0.6,0.3-1.1C39.7,7.7,39.5,7.5,39.2,7.5L39.2,7.5z"/>
				</g>
			</g>
			<g>
				<path class="st0" d="M33.5,35.1c0.2,0.2,0.3,1.1-0.1,1.4l-19.5,15c-0.2,0.1-0.3,0.2-0.3,0.2c-0.1,0,0-0.1,0.2-0.3l12.1-15.4
					c0.3-0.4,0.3-1,0-1.5l-6.8-9.8C19.1,24.7,33.4,34.8,33.5,35.1z"/>
			</g>
			<g>
				<path class="st0" d="M33.5,35.1l-6.7-9.6c-0.3-0.4-0.3-1.1,0-1.4L39,8.6c0.2-0.2,0.2-0.3,0.2-0.3c0,0-0.2,0.1-0.3,0.2l-19.5,15
					c-0.4,0.3-0.5,0.9-0.2,1.3L33.5,35.1z"/>
			</g>
		</g>
	</g>
</g>
</svg>
