<svg version="1.1" id="Layer_1" xmlns="http://www.w3.org/2000/svg" x="0" y="0" viewBox="0 0 400 58.6" xml:space="preserve"><style>.st0{fill:#132d41}</style><g id="Group_101" transform="translate(-110.902 -406.294)"><g id="Group_3" transform="translate(153.711 413.747)"><g id="Group_1" transform="translate(0 3.331)"><path id="Path_1" class="st0" d="M67.1 14.9c2.6 0 5.6 1.4 5.6 6.5v8.9h-1.4v-8.7c0-3.8-1.8-5.5-4.5-5.5s-4.8 1.9-5 5.7v8.5h-1.4v-15h1.2l.2 3.8v.1c.5-2.6 2.8-4.4 5.3-4.3z"/><path id="Path_2" class="st0" d="M83.9 30.7c-3.2.2-5.9-2.2-6.1-5.4v-10h1.4v8.9c0 3.3 1.7 5.3 4.7 5.3s4.7-2 4.7-5.3v-8.9H90v8.9c.4 3.2-1.8 6-5 6.5h-1.1z"/><path id="Path_3" class="st0" d="M106.8 15.3l-6.5 15h-1.2l-6.5-15h1.5l5.6 13.4 5.6-13.4h1.5z"/><path id="Path_4" class="st0" d="M110.1 22.6c-.2 3.5 2.4 6.6 6 6.8 1.9.1 3.8-.6 5.1-2.1l1 .8c-1.5 1.6-3.7 2.5-5.9 2.5-4.2.1-7.6-3.2-7.7-7.4v-.7c-.2-4 2.9-7.5 7-7.7h.3c3.8-.1 6.9 2.9 7 6.6v1.1l-12.8.1zm5.8-6.5c-3.1 0-5.6 2.4-5.8 5.5h11.4c0-3-2.4-5.5-5.5-5.5h-.1z"/><path id="Path_5" class="st0" d="M143 14.9c2.5 0 5.2 1.4 5.2 6.5v8.9h-1.4v-8.9c0-3.2-1.3-5.4-4.1-5.4-2.5 0-4.1 2-4.3 5.6v8.6H137v-9.1c0-3-1.5-5.2-4.2-5.2-2.4 0-4.1 2.1-4.3 5.3v8.9h-1.4v-15h1.2l.2 3c.6-2 2.5-3.4 4.6-3.4 2.3 0 4.3 1.5 4.9 3.8.5-2.2 2.6-3.7 5-3.6z"/></g><g id="Group_2" transform="translate(39.868)"><path id="Path_6" class="st0" d="M134 11.7v22h-5v-9.2h-8.4v9.2h-5v-22h5v8.7h8.4v-8.7h5z"/><path id="Path_7" class="st0" d="M137.6 25.7c-.2-4.9 3.5-9 8.4-9.2 4.9-.2 9 3.5 9.2 8.4.2 4.9-3.5 9-8.4 9.2h-.4c-4.6.3-8.5-3.2-8.8-7.8v-.6zm12.8 0c-.2-2.2-2.2-3.8-4.4-3.6-2.2.2-3.8 2.2-3.6 4.4.2 2 1.9 3.6 4 3.6 2.3 0 4.1-1.9 4-4.2v-.2z"/><path id="Path_8" class="st0" d="M159.4 28.8c1 1.1 2.5 1.8 4 1.8s2.3-.6 2.3-1.6c0-2.6-7.9-1-7.9-6.5 0-3 2.5-5.2 6.8-5.2 2.1-.1 4.3.6 5.9 1.9l-2.4 2.9c-.9-.8-2-1.3-3.3-1.3-1.4 0-2.1.6-2.1 1.6 0 3 8.1 1.2 8.1 6.7 0 2.9-2.4 5-6.8 5-2.6.2-5.3-.7-7.2-2.5l2.6-2.8z"/><path id="Path_9" class="st0" d="M183.5 17.3c4.1 0 7.4 3.1 7.4 8.4s-3.2 8.4-7.4 8.4c-1.8.1-3.6-.6-4.8-1.9v8.6H174v-23h4.1l.3 1.7c1.3-1.4 3.2-2.2 5.1-2.2zm2.6 8.4c-.3-2.2-2.3-3.7-4.4-3.4-2.2.3-3.7 2.3-3.4 4.4.3 2 2 3.5 4 3.4 2.2-.1 4-1.9 3.9-4.2-.1 0-.1-.1-.1-.2z"/><path id="Path_10" class="st0" d="M209.5 26.9h-11.9c.1 2.2 1.9 3.9 4.1 3.8 1.3.1 2.6-.5 3.6-1.5l3.1 2.6c-1.8 1.7-4.1 2.5-6.6 2.4-4.6.4-8.7-2.9-9.1-7.5v-.9c-.1-4.5 3.5-8.3 8-8.4h.6c4.3-.2 8 3.1 8.3 7.4v1l-.1 1.1zm-8.2-6.1c-1.9 0-3.5 1.6-3.6 3.5h7.2c0-2-1.6-3.6-3.6-3.5z"/><path id="Path_11" class="st0" d="M228.2 10.3v23.4h-3.9l-.5-1.8c-1.3 1.5-3.2 2.4-5.2 2.3-4.1 0-7.4-3.1-7.4-8.4s3.2-8.4 7.4-8.4c1.8 0 3.6.7 4.8 1.9v-9h4.8zm-4.3 15.4c-.3-2.2-2.3-3.7-4.4-3.4-2.2.3-3.7 2.3-3.4 4.4.3 2 1.9 3.4 3.9 3.4 2.2 0 4-1.9 4-4.2-.1 0-.1-.1-.1-.2z"/><path id="Path_12" class="st0" d="M248.1 17.8v15.9h-3.9l-.5-1.8c-1.3 1.5-3.2 2.3-5.2 2.3-4.1 0-7.4-3.1-7.4-8.4s3.2-8.4 7.4-8.4c2-.1 3.9.8 5.2 2.3l.5-1.9h3.9zm-4.2 7.9c-.3-2.2-2.3-3.7-4.4-3.4-2.2.3-3.7 2.3-3.4 4.4.3 2 1.9 3.4 3.9 3.4 2.2-.1 4-1.9 4-4.2-.1 0-.1-.1-.1-.2z"/><path id="Path_13" class="st0" d="M268.1 17.7v14.4c0 5.8-3 8.7-8.4 8.7-1.3 0-2.7-.2-3.9-.6l1-3.8c.8.4 1.8.5 2.7.5 3.1 0 3.9-2 4-5.1-1.3 1.3-3 1.9-4.8 1.9-4.1 0-7.4-3.1-7.4-8.2s3.2-8.2 7.4-8.2c2-.1 3.9.8 5.2 2.3l.5-1.8 3.7-.1zm-4.2 7.9c-.2-2.2-2.2-3.7-4.4-3.5-2.2.2-3.7 2.2-3.5 4.4.2 2 1.9 3.5 3.9 3.5 2.2 0 4-1.9 4-4.1v-.3z"/><path id="Path_14" class="st0" d="M288 26.9h-11.9c.1 2.2 1.9 3.9 4.1 3.8 1.3.1 2.6-.5 3.6-1.5l3.1 2.6c-1.8 1.7-4.1 2.5-6.6 2.4-4.6.4-8.7-2.9-9.1-7.5v-.9c-.1-4.5 3.5-8.3 8-8.4h.6c4.3-.2 8 3.1 8.3 7.4v1l-.1 1.1zm-8.3-6.1c-1.9 0-3.5 1.6-3.6 3.5h7.2c.1-2-1.5-3.6-3.6-3.5.1 0 .1 0 0 0z"/><path id="Path_15" class="st0" d="M309.5 17.3c3.7 0 5.8 2.3 5.8 6.9v9.4h-4.7v-8.8c0-2.1-.7-3.5-2.4-3.5-1.9 0-2.7 1.5-2.7 4.1v8.2h-4.7v-8.8c0-2.1-.7-3.5-2.4-3.5s-2.6 1.2-2.7 3.5v8.8H291V17.8h4.1l.5 1.9c.9-1.5 2.5-2.4 4.3-2.4 1.8-.1 3.5.8 4.5 2.3 1.2-1.5 3.2-2.4 5.1-2.3z"/></g></g><path id="Path_16" class="st0" d="M165.6 445.8h-41.9c-6.2 0-11.3-5-11.3-11.3 0-6.2 5-11.3 11.3-11.3.5 0 1 0 1.4.1 1.5-10.8 11.5-18.3 22.3-16.8 6 .8 11.3 4.4 14.4 9.7 8-2.1 16.3 2.6 18.4 10.7 2.1 8-2.6 16.3-10.7 18.4-1.3.3-2.6.5-3.9.5zm-41.9-21.4c-5.5 0-10 4.5-10 10s4.5 10 10 10h41.9c7.6 0 13.8-6.2 13.8-13.8 0-7.6-6.2-13.8-13.8-13.8-1.4 0-2.7.2-4.1.6l-.5.1-.2-.4c-4.9-9-16.1-12.3-25.1-7.4-5.3 2.9-8.9 8.3-9.5 14.3l-.1.7-.7-.1c-.5-.1-1.1-.1-1.7-.2z"/><path id="Path_17" class="st0" d="M149.2 436.1c1.4 0 2.8.2 4.2.6 5-9.3 16.6-12.7 25.9-7.7 5.5 3 9.2 8.5 9.9 14.8 5.8-1.1 11.3 2.7 12.4 8.5s-2.7 11.3-8.5 12.4c-.6.1-1.3.2-2 .2h-41.9c-8 0-14.4-6.5-14.4-14.4-.1-8 6.4-14.4 14.4-14.4z"/></g></svg>