<?xml version="1.0" standalone="no"?>
<!DOCTYPE svg PUBLIC "-//W3C//DTD SVG 20010904//EN"
 "http://www.w3.org/TR/2001/REC-SVG-20010904/DTD/svg10.dtd">
<svg version="1.0" xmlns="http://www.w3.org/2000/svg"
 width="1056.000000pt" height="1056.000000pt" viewBox="0 0 1056.000000 1056.000000"
 preserveAspectRatio="xMidYMid meet">
<metadata>
Created by potrace 1.14, written by Peter Selinger 2001-2017
</metadata>
<g transform="translate(0.000000,1056.000000) scale(0.100000,-0.100000)"
fill="#000000" stroke="none">
<path d="M3619 8735 c-2 -1 -35 -6 -74 -9 -38 -4 -77 -9 -85 -11 -8 -2 -31 -6
-50 -9 -62 -9 -182 -36 -239 -54 -31 -9 -60 -17 -66 -18 -5 0 -17 -4 -25 -7
-8 -4 -53 -20 -100 -37 -346 -125 -744 -407 -965 -685 -22 -27 -47 -58 -56
-68 -9 -10 -34 -43 -55 -75 -21 -31 -42 -58 -46 -60 -5 -2 -8 -8 -8 -12 0 -5
-13 -28 -29 -52 -124 -186 -248 -500 -299 -758 l-27 -135 -145 0 c-173 0 -224
-6 -355 -41 -55 -14 -110 -28 -123 -31 -12 -3 -22 -9 -22 -14 0 -5 -7 -9 -15
-9 -9 0 -46 -15 -83 -33 -171 -85 -305 -188 -438 -338 -32 -37 -124 -168 -124
-178 0 -5 -7 -14 -15 -21 -9 -7 -13 -15 -11 -18 3 -3 -3 -17 -13 -31 -9 -14
-30 -57 -45 -96 -16 -38 -32 -79 -37 -90 -4 -11 -11 -36 -15 -55 -3 -19 -9
-39 -12 -45 -4 -5 -7 -14 -8 -20 -1 -5 -5 -23 -8 -40 -17 -83 -21 -142 -20
-275 0 -80 3 -161 7 -180 4 -19 9 -48 12 -65 33 -191 150 -444 272 -587 66
-77 224 -228 240 -228 5 -1 24 -14 43 -30 19 -17 40 -30 46 -30 7 0 14 -3 16
-8 8 -18 233 -122 298 -137 8 -2 40 -10 70 -18 30 -8 73 -18 95 -21 22 -4 56
-9 75 -12 19 -3 371 -7 782 -8 410 0 749 -4 753 -7 3 -4 -4 -41 -15 -82 -39
-141 -60 -299 -62 -452 -1 -80 24 -330 32 -330 1 0 4 -11 5 -25 2 -14 9 -43
15 -65 6 -22 13 -49 15 -60 29 -132 193 -461 268 -540 7 -7 19 -23 27 -35 72
-108 286 -304 415 -380 22 -13 42 -27 45 -31 21 -27 400 -191 400 -172 0 3 7
0 15 -7 8 -7 15 -10 15 -7 0 3 21 -1 47 -9 25 -8 48 -12 51 -9 3 2 12 0 21 -4
9 -5 39 -12 66 -15 28 -4 66 -9 85 -12 19 -3 42 -5 50 -5 8 1 24 1 35 0 11 -1
1158 -1 2550 -2 2263 -1 2606 2 2688 19 12 2 40 7 62 10 54 8 235 73 314 113
109 56 221 139 317 237 62 63 153 178 176 224 7 14 15 27 18 30 19 19 102 215
117 275 14 59 24 104 28 135 3 19 8 46 11 60 7 35 6 270 -2 300 -3 14 -8 41
-10 60 -10 71 -60 243 -82 278 -8 12 -12 22 -9 22 3 0 -12 32 -34 71 -21 40
-39 76 -39 80 0 5 -4 9 -10 9 -5 0 -10 6 -10 14 0 8 -3 16 -8 18 -4 2 -25 28
-46 58 -44 61 -188 208 -232 236 -16 10 -33 24 -37 31 -4 7 -12 13 -18 13 -5
0 -26 11 -47 23 -20 13 -50 32 -67 43 -16 10 -32 19 -35 19 -3 1 -25 10 -50
22 -74 35 -174 66 -282 88 -94 20 -277 24 -373 9 -71 -10 -99 -9 -90 5 4 7
-11 110 -29 196 -56 275 -177 567 -327 787 -22 31 -39 61 -39 67 0 6 -4 11 -8
11 -4 0 -26 26 -49 58 -60 84 -163 196 -285 309 -44 41 -208 168 -243 188 -9
6 -18 24 -20 40 -3 32 -22 160 -31 210 -42 244 -195 579 -348 760 -73 86 -96
111 -145 158 -30 29 -63 61 -75 72 -41 39 -142 115 -154 115 -7 0 -12 3 -12 8
0 32 -415 232 -515 247 -11 2 -36 8 -55 14 -41 13 -180 38 -260 47 -66 7 -293
7 -335 0 -16 -2 -59 -8 -95 -11 -36 -4 -68 -9 -71 -11 -3 -2 -19 -6 -35 -8
-59 -11 -74 -15 -84 -21 -6 -3 -14 5 -19 18 -6 14 -14 28 -20 31 -6 4 -18 22
-27 41 -9 19 -20 35 -25 35 -5 0 -9 5 -9 11 0 8 -22 41 -77 114 -94 124 -311
343 -423 426 -104 77 -256 179 -268 179 -6 0 -17 6 -24 13 -46 44 -410 193
-543 222 -11 2 -60 13 -110 24 -49 10 -112 22 -140 26 -27 3 -63 8 -80 11 -34
6 -441 14 -446 9z m396 -138 c17 -3 50 -8 75 -11 25 -3 57 -8 73 -11 15 -3 37
-7 50 -9 12 -2 45 -10 72 -16 28 -6 58 -13 67 -15 55 -12 279 -94 366 -136 91
-42 268 -142 282 -158 3 -3 25 -20 50 -36 25 -16 47 -32 50 -35 3 -3 37 -30
75 -61 75 -61 211 -189 200 -189 -4 0 6 -11 22 -24 46 -39 223 -272 223 -293
0 -7 4 -13 8 -13 5 0 16 -15 25 -32 41 -80 76 -133 89 -132 7 0 63 12 123 27
112 27 161 35 250 42 28 2 52 5 55 5 15 5 185 2 250 -3 291 -24 598 -147 845
-336 58 -45 217 -198 262 -254 59 -71 157 -227 197 -310 44 -93 76 -165 76
-170 -1 -1 8 -28 19 -59 11 -32 17 -58 14 -58 -3 0 0 -7 7 -15 7 -8 10 -15 7
-15 -3 0 -1 -15 4 -32 6 -18 12 -44 14 -58 8 -53 16 -95 20 -107 5 -16 0 -16
-23 -3 -30 17 -186 86 -222 99 -19 7 -44 17 -55 22 -21 8 -196 61 -250 75 -16
4 -32 8 -35 9 -3 1 -39 7 -80 14 -41 7 -82 15 -90 18 -63 21 -506 21 -630 -1
-14 -2 -47 -8 -75 -12 -27 -4 -54 -9 -60 -10 -5 -2 -19 -5 -30 -7 -116 -27
-162 -40 -237 -66 -47 -16 -89 -27 -92 -23 -3 3 -6 0 -6 -6 0 -7 -8 -12 -18
-12 -10 0 -22 -4 -27 -8 -6 -4 -37 -19 -70 -32 -33 -13 -62 -26 -65 -29 -3 -3
-32 -19 -65 -36 -120 -59 -319 -195 -424 -290 -48 -43 -180 -175 -217 -216
-50 -57 -165 -210 -176 -235 -6 -13 -15 -24 -20 -24 -4 0 -8 -4 -8 -9 0 -9
-65 -120 -78 -133 -5 -5 -30 -2 -58 6 -27 8 -68 17 -92 20 -24 3 -47 8 -51 10
-31 19 -405 28 -506 13 -27 -5 -61 -10 -75 -12 -47 -6 -89 -15 -113 -24 -14
-6 -27 -7 -30 -4 -3 3 -12 1 -19 -3 -7 -5 -19 -10 -25 -11 -20 -5 -37 -9 -53
-16 -8 -3 -37 -13 -65 -23 -27 -10 -56 -22 -62 -27 -7 -5 -13 -7 -13 -4 0 15
-264 -129 -304 -165 -11 -10 -23 -18 -27 -18 -4 0 -14 -6 -21 -12 -7 -7 -31
-26 -53 -43 -91 -67 -295 -289 -333 -362 -7 -12 -18 -28 -24 -35 -14 -15 -33
-46 -59 -96 -10 -18 -23 -39 -29 -47 -7 -8 -10 -15 -6 -15 4 0 -1 -11 -10 -25
l-16 -24 -801 3 c-441 1 -815 6 -832 9 -16 4 -52 12 -80 18 -76 16 -193 58
-260 91 -73 37 -169 97 -173 109 -2 5 -9 9 -16 9 -20 0 -197 179 -248 251 -69
96 -157 269 -173 339 -2 8 -11 46 -20 84 -9 38 -19 88 -22 110 -7 52 -7 283 0
316 3 14 8 43 12 64 3 22 12 59 20 83 8 24 15 47 15 52 0 5 7 25 15 45 8 20
15 37 14 38 0 2 14 32 32 68 38 78 89 158 143 225 44 54 162 175 171 175 3 0
16 9 28 21 30 28 178 119 194 119 7 0 13 5 13 10 0 6 9 10 20 10 11 0 20 5 20
12 0 6 3 8 7 5 3 -4 12 -2 20 4 7 6 13 8 13 4 0 -4 6 -3 12 3 12 10 100 38
147 47 11 2 24 6 29 8 15 9 130 20 212 20 85 1 191 -10 292 -28 20 -4 26 11
34 83 22 214 82 438 170 642 40 92 137 276 153 290 4 3 12 17 20 33 8 15 18
27 23 27 4 0 8 5 8 11 0 10 14 29 77 109 88 112 172 201 270 287 36 32 71 63
77 69 22 20 198 144 206 144 5 0 15 7 23 15 59 59 479 234 622 260 11 2 21 4
23 5 1 2 5 3 10 4 23 6 82 16 116 22 21 3 48 7 59 10 12 2 51 6 87 10 36 3 66
7 68 8 5 5 348 -2 377 -7z"/>
</g>
</svg>
