<svg xmlns="http://www.w3.org/2000/svg" xmlns:xlink="http://www.w3.org/1999/xlink" width="255" height="61" fill="none" xmlns:v="https://vecta.io/nano"><g fill="#000"><path d="M110.445 7.303l-.051-.771V4.546c0-.439-.052-.799-.155-1.08-.096-.288-.25-.504-.463-.648-.205-.144-.476-.216-.812-.216-.309 0-.569.062-.782.185-.206.123-.377.315-.514.576l-.556-.247c.144-.247.306-.449.484-.607a1.85 1.85 0 0 1 .617-.35 2.19 2.19 0 0 1 .751-.123c.459 0 .84.093 1.142.278s.528.463.679.833.226.837.226 1.399v2.757h-.566zm-1.584.123c-.603 0-1.077-.137-1.419-.411-.336-.281-.504-.669-.504-1.162 0-.507.168-.902.504-1.183.342-.281.816-.422 1.419-.422h1.543v.566h-1.461c-.493 0-.85.093-1.069.278-.213.178-.319.432-.319.761 0 .315.109.562.329.741.226.178.538.267.936.267.329 0 .61-.065.843-.195a1.32 1.32 0 0 0 .546-.597c.123-.261.185-.583.185-.967h.36c0 .699-.168 1.262-.504 1.687-.329.425-.792.638-1.389.638zm-3.745-.123l-.031-.957V.103h.617v7.2h-.586zm-1.841.123a2.17 2.17 0 0 1-1.204-.339c-.349-.233-.624-.552-.823-.957-.198-.411-.298-.878-.298-1.399 0-.528.1-.994.298-1.399a2.32 2.32 0 0 1 .823-.946 2.12 2.12 0 0 1 1.204-.35 1.94 1.94 0 0 1 1.152.35c.336.226.597.542.782.946.192.405.288.871.288 1.399a3.27 3.27 0 0 1-.288 1.399c-.185.405-.446.723-.782.957-.329.226-.713.339-1.152.339zm.123-.555c.329 0 .621-.089.875-.267.253-.185.452-.439.596-.761s.216-.693.216-1.111-.072-.789-.216-1.111-.343-.573-.596-.751c-.254-.185-.549-.278-.885-.278a1.65 1.65 0 0 0-.946.278 1.82 1.82 0 0 0-.648.751 2.59 2.59 0 0 0-.227 1.111c0 .418.079.789.237 1.111s.374.576.648.761a1.7 1.7 0 0 0 .946.267zm-4.093.432l-.052-.771V4.546c0-.439-.051-.799-.154-1.08-.096-.288-.25-.504-.463-.648-.206-.144-.477-.216-.813-.216-.309 0-.569.062-.782.185-.206.123-.377.315-.514.576l-.555-.247c.144-.247.305-.449.483-.607a1.84 1.84 0 0 1 .617-.35 2.19 2.19 0 0 1 .751-.123c.459 0 .84.093 1.142.278s.528.463.679.833.226.837.226 1.399v2.757h-.566zm-1.584.123c-.603 0-1.077-.137-1.419-.411-.336-.281-.504-.669-.504-1.162 0-.507.168-.902.504-1.183.343-.281.816-.422 1.419-.422h1.543v.566h-1.461c-.494 0-.85.093-1.07.278-.213.178-.319.432-.319.761 0 .315.11.562.329.741.226.178.538.267.936.267.329 0 .61-.065.844-.195.24-.137.422-.336.545-.597s.185-.583.185-.967h.36c0 .699-.168 1.262-.504 1.687-.329.425-.792.638-1.389.638zm-6.985-.123v-.535l3.23-4.042h-3.23V2.16h4.053v.504l-3.24 4.073h3.271v.566h-4.084z"/><use xlink:href="#J"/><path d="M86.573 7.303v-7.2h.617v7.2h-.617zm-1.954 0l-.051-.771V4.546c0-.439-.051-.799-.154-1.08-.096-.288-.25-.504-.463-.648-.206-.144-.477-.216-.813-.216-.309 0-.569.062-.782.185-.206.123-.377.315-.514.576l-.555-.247a2.45 2.45 0 0 1 .483-.607 1.85 1.85 0 0 1 .617-.35 2.19 2.19 0 0 1 .751-.123c.46 0 .84.093 1.142.278s.528.463.679.833.226.837.226 1.399v2.757h-.566zm-1.584.123c-.603 0-1.077-.137-1.42-.411-.336-.281-.504-.669-.504-1.162 0-.507.168-.902.504-1.183.343-.281.816-.422 1.42-.422h1.543v.566h-1.461c-.494 0-.85.093-1.07.278-.213.178-.319.432-.319.761 0 .315.11.562.329.741.226.178.538.267.936.267.329 0 .61-.065.843-.195.24-.137.422-.336.545-.597s.185-.583.185-.967h.36c0 .699-.168 1.262-.504 1.687-.329.425-.792.638-1.389.638zm-4.978.001c-.494 0-.933-.113-1.317-.339-.377-.233-.675-.552-.895-.957-.213-.405-.319-.871-.319-1.399s.106-.994.319-1.399a2.38 2.38 0 0 1 .874-.946c.377-.233.806-.35 1.286-.35.487 0 .898.12 1.234.36.343.233.603.559.782.977.178.411.267.888.267 1.43h-4.392l.237-.195c0 .473.079.878.236 1.214a1.76 1.76 0 0 0 .669.771 1.93 1.93 0 0 0 1.018.267c.398 0 .734-.096 1.008-.288.281-.199.501-.453.658-.761l.514.319a2.47 2.47 0 0 1-.514.679c-.206.192-.449.343-.73.453s-.593.165-.936.165zm-1.872-3.004l-.257-.185h3.96l-.257.195a2.12 2.12 0 0 0-.206-.957c-.13-.274-.315-.487-.555-.638-.24-.158-.528-.237-.864-.237a1.84 1.84 0 0 0-.915.237 1.73 1.73 0 0 0-.658.638 1.77 1.77 0 0 0-.247.946zm-3.408.062c0-.555.103-1.005.309-1.348a1.93 1.93 0 0 1 .813-.751 2.38 2.38 0 0 1 1.06-.247v.566c-.302 0-.593.055-.874.165-.274.103-.501.281-.679.535-.178.247-.267.586-.267 1.018l-.36.062zm-.257 2.818V2.16h.617v5.143h-.617zm-6.306.124c-.494 0-.933-.113-1.317-.339-.377-.233-.675-.552-.895-.957-.213-.405-.319-.871-.319-1.399s.106-.994.319-1.399a2.35 2.35 0 0 1 .885-.946 2.47 2.47 0 0 1 1.306-.35c.494 0 .929.117 1.306.35a2.34 2.34 0 0 1 .895.946c.213.404.319.871.319 1.399s-.106.994-.319 1.399a2.43 2.43 0 0 1-.885.957 2.47 2.47 0 0 1-1.296.339zm0-.566c.37 0 .696-.089.977-.267.281-.185.501-.435.658-.751.165-.322.247-.693.247-1.111s-.082-.785-.247-1.101a1.78 1.78 0 0 0-.669-.751c-.288-.185-.617-.278-.988-.278s-.699.093-.987.278c-.281.178-.504.429-.669.751a2.43 2.43 0 0 0-.237 1.101 2.41 2.41 0 0 0 .247 1.111c.165.315.391.566.679.751.288.178.617.267.987.267zm-4.177.442l-.051-.771V4.547c0-.439-.051-.799-.154-1.08-.096-.288-.25-.504-.463-.648-.206-.144-.477-.216-.813-.216-.309 0-.569.062-.782.185-.206.123-.377.315-.514.576l-.555-.247c.144-.247.305-.449.483-.607a1.85 1.85 0 0 1 .617-.35 2.19 2.19 0 0 1 .751-.123c.459 0 .84.093 1.142.278s.528.463.679.833.226.837.226 1.399v2.757h-.566zm-1.584.123c-.603 0-1.077-.137-1.419-.411-.336-.281-.504-.669-.504-1.162 0-.507.168-.902.504-1.183.343-.281.816-.422 1.419-.422h1.543v.566h-1.461c-.494 0-.85.093-1.07.278-.213.178-.319.432-.319.761 0 .315.11.562.329.741.226.178.538.267.936.267.329 0 .61-.065.843-.195.24-.137.422-.336.545-.597s.185-.583.185-.967h.36c0 .699-.168 1.262-.504 1.687-.329.425-.792.638-1.389.638zm1.049-6.007a.88.88 0 0 1-.463-.113 1.37 1.37 0 0 1-.298-.257l-.216-.257c-.069-.075-.144-.113-.226-.113-.123 0-.216.031-.278.093-.055.055-.099.151-.134.288h-.566a1.09 1.09 0 0 1 .144-.442 1.02 1.02 0 0 1 .34-.37.87.87 0 0 1 .494-.144c.172 0 .312.038.422.113s.206.161.288.257l.236.257c.075.075.161.113.257.113.123 0 .213-.031.267-.093a.57.57 0 0 0 .123-.298h.566c-.027.233-.123.453-.288.658a.81.81 0 0 1-.669.309zm-5.987 6.008c-.494 0-.933-.113-1.317-.339-.377-.233-.675-.552-.895-.957-.212-.405-.319-.871-.319-1.399s.106-.994.319-1.399.508-.72.885-.946c.384-.233.819-.35 1.306-.35s.919.11 1.296.329c.377.213.669.511.874.895l-.535.288a1.7 1.7 0 0 0-.669-.689 1.82 1.82 0 0 0-.967-.257 1.79 1.79 0 0 0-.988.278c-.281.178-.504.429-.669.751-.158.315-.237.682-.237 1.101s.082.789.247 1.111c.165.315.391.566.679.751a1.84 1.84 0 0 0 .988.267c.371 0 .699-.093.987-.278.288-.192.507-.456.658-.792l.545.288c-.206.418-.501.747-.885.987a2.38 2.38 0 0 1-1.306.36zm-.278 2.037a1.87 1.87 0 0 1-.411-.051c-.151-.027-.339-.099-.566-.216l.195-.442.35.154a.86.86 0 0 0 .35.082.71.71 0 0 0 .339-.082c.11-.048.165-.154.165-.319 0-.192-.069-.336-.206-.432-.13-.089-.336-.158-.617-.206l.298-.71.463.144-.113.257c.261.096.439.223.535.381.103.165.154.336.154.514 0 .254-.072.47-.216.648-.137.185-.377.278-.72.278zm-3.898-2.161l-.051-.771V4.546c0-.439-.051-.799-.154-1.08-.096-.288-.25-.504-.463-.648-.206-.144-.477-.216-.813-.216-.309 0-.569.062-.782.185-.206.123-.377.315-.514.576l-.556-.247c.144-.247.305-.449.483-.607a1.84 1.84 0 0 1 .617-.35 2.19 2.19 0 0 1 .751-.123c.459 0 .84.093 1.142.278s.528.463.679.833.226.837.226 1.399v2.757h-.566zm-1.584.123c-.603 0-1.077-.137-1.419-.411-.336-.281-.504-.669-.504-1.162 0-.507.168-.902.504-1.183.343-.281.816-.422 1.419-.422h1.543v.566h-1.461c-.494 0-.85.093-1.07.278-.213.178-.319.432-.319.761 0 .315.11.562.329.741.226.178.538.267.936.267.329 0 .61-.065.843-.195.24-.137.422-.336.545-.597s.185-.583.185-.967h.36c0 .699-.168 1.262-.504 1.687-.329.425-.792.638-1.389.638zm-4.938.001c-.494 0-.933-.113-1.317-.339-.377-.233-.675-.552-.895-.957-.213-.405-.319-.871-.319-1.399s.106-.994.319-1.399a2.35 2.35 0 0 1 .885-.946 2.47 2.47 0 0 1 1.306-.35c.486 0 .919.11 1.296.329a2.2 2.2 0 0 1 .874.895l-.535.288a1.7 1.7 0 0 0-.669-.689 1.82 1.82 0 0 0-.967-.257 1.79 1.79 0 0 0-.988.278c-.281.178-.504.429-.669.751-.158.315-.237.682-.237 1.101s.082.789.247 1.111a1.94 1.94 0 0 0 .679.751c.288.178.617.267.987.267s.7-.093.987-.278a1.82 1.82 0 0 0 .658-.792l.545.288c-.206.418-.501.747-.885.987a2.38 2.38 0 0 1-1.306.36z"/><use xlink:href="#J" x="-48.398"/><path d="M38.206 7.303l-.031-.957V.103h.617v7.2h-.586zm-1.841.123c-.453 0-.854-.113-1.203-.339-.35-.233-.624-.552-.823-.957-.199-.411-.298-.878-.298-1.399 0-.528.099-.994.298-1.399s.473-.72.823-.946a2.12 2.12 0 0 1 1.203-.35c.439 0 .823.117 1.152.35.336.226.597.542.782.946.192.405.288.871.288 1.399 0 .521-.096.987-.288 1.399-.185.405-.446.723-.782.957-.329.226-.713.339-1.152.339zm.123-.555c.329 0 .621-.089.874-.267.254-.185.453-.439.597-.761s.216-.693.216-1.111-.072-.789-.216-1.111-.343-.573-.597-.751a1.46 1.46 0 0 0-.885-.278 1.65 1.65 0 0 0-.946.278 1.83 1.83 0 0 0-.648.751c-.151.322-.226.693-.226 1.111s.079.789.237 1.111.374.576.648.761a1.7 1.7 0 0 0 .946.267zm-7.835.432V2.16h.576l.041.946v4.197h-.617zm3.693 0V4.67h.617v2.633h-.617zm0-2.633c0-.569-.069-1.001-.206-1.296-.13-.295-.312-.494-.545-.597a1.74 1.74 0 0 0-.771-.165c-.487 0-.867.182-1.142.545-.274.357-.412.857-.412 1.502h-.381c0-.549.079-1.018.237-1.409s.387-.689.689-.895c.309-.213.682-.319 1.121-.319.398 0 .747.082 1.049.247.309.158.549.411.72.761.178.35.264.813.257 1.389v.237h-.617zm-5.912 2.633V2.16h.617v5.143h-.617zm.319-6.48c-.11 0-.206-.041-.288-.123s-.123-.178-.123-.288c0-.117.041-.213.123-.288.082-.082.178-.123.288-.123.116 0 .212.041.288.123.082.075.123.171.123.288 0 .11-.041.206-.123.288-.076.082-.172.123-.288.123zm-4.886 6.48l-.052-.771V4.546c0-.439-.051-.799-.154-1.08-.096-.288-.25-.504-.463-.648-.206-.144-.477-.216-.813-.216-.309 0-.569.062-.782.185-.206.123-.377.315-.514.576l-.556-.247c.144-.247.305-.449.484-.607a1.84 1.84 0 0 1 .617-.35 2.19 2.19 0 0 1 .751-.123c.459 0 .84.093 1.142.278s.528.463.679.833.226.837.226 1.399v2.757h-.566zm-1.584.123c-.604 0-1.077-.137-1.42-.411-.336-.281-.504-.669-.504-1.162 0-.507.168-.902.504-1.183.343-.281.816-.422 1.42-.422h1.543v.566h-1.461c-.494 0-.85.093-1.07.278-.213.178-.319.432-.319.761 0 .315.11.562.329.741.226.178.538.267.936.267.329 0 .61-.065.843-.195.24-.137.422-.336.545-.597s.185-.583.185-.967h.36c0 .699-.168 1.262-.504 1.687-.329.425-.792.638-1.389.638zm-5.196-.123l2.16-5.143h.648l-2.17 5.143h-.638zm-.021 0l-2.17-5.143h.638l2.16 5.143h-.627zm-5.136.124c-.494 0-.933-.113-1.317-.339-.377-.233-.675-.552-.895-.957-.213-.405-.319-.871-.319-1.399s.106-.994.319-1.399a2.35 2.35 0 0 1 .885-.946c.384-.233.819-.35 1.306-.35.494 0 .929.117 1.306.35a2.34 2.34 0 0 1 .895.946c.213.404.319.871.319 1.399s-.106.994-.319 1.399a2.43 2.43 0 0 1-.885.957 2.47 2.47 0 0 1-1.296.339zm0-.566c.37 0 .696-.089.977-.267.281-.185.501-.435.658-.751.165-.322.247-.693.247-1.111s-.082-.785-.247-1.101a1.78 1.78 0 0 0-.669-.751c-.288-.185-.617-.278-.987-.278s-.699.093-.987.278c-.281.178-.504.429-.669.751-.158.315-.237.682-.237 1.101s.082.789.247 1.111a1.94 1.94 0 0 0 .679.751c.288.178.617.267.987.267zM0 7.303v-7.2h.658l4.588 6.141V.103h.658v7.2h-.658L.658 1.152v6.151H0z"/></g><path d="M241.023 55.855c-2.637 0-4.964-.714-6.981-2.141-2.016-1.458-3.598-3.443-4.746-5.956-1.148-2.544-1.722-5.46-1.722-8.748s.574-6.189 1.722-8.702c1.148-2.544 2.714-4.529 4.7-5.956 2.016-1.458 4.343-2.187 6.98-2.187s4.964.729 6.98 2.187c2.048 1.427 3.645 3.412 4.793 5.956 1.148 2.513 1.722 5.413 1.722 8.702s-.574 6.205-1.722 8.749c-1.148 2.513-2.73 4.498-4.746 5.956-2.017 1.427-4.343 2.141-6.98 2.141zm0-5.77c1.396 0 2.637-.465 3.722-1.396 1.117-.962 1.986-2.265 2.606-3.909.621-1.675.931-3.599.931-5.77s-.31-4.095-.931-5.77-1.489-2.978-2.606-3.909a5.51 5.51 0 0 0-3.769-1.443c-1.396 0-2.637.481-3.723 1.443-1.085.931-1.939 2.234-2.559 3.909-.589 1.675-.884 3.599-.884 5.77s.295 4.095.884 5.77c.62 1.644 1.474 2.947 2.559 3.909 1.117.931 2.374 1.396 3.77 1.396z" fill="url(#A)"/><path d="M210.848 55.855c-2.637 0-4.964-.714-6.98-2.141-2.017-1.458-3.599-3.443-4.747-5.956-1.148-2.544-1.722-5.46-1.722-8.748s.574-6.189 1.722-8.702c1.148-2.544 2.715-4.529 4.7-5.956 2.017-1.458 4.343-2.187 6.98-2.187s4.964.729 6.98 2.187c2.048 1.427 3.646 3.412 4.793 5.956 1.148 2.513 1.722 5.413 1.722 8.702s-.574 6.205-1.722 8.749c-1.147 2.513-2.73 4.498-4.746 5.956-2.016 1.427-4.343 2.141-6.98 2.141zm0-5.77c1.396 0 2.637-.465 3.723-1.396 1.116-.962 1.985-2.265 2.606-3.909.62-1.675.93-3.599.93-5.77s-.31-4.095-.93-5.77-1.49-2.978-2.606-3.909c-1.086-.962-2.343-1.443-3.77-1.443-1.396 0-2.637.481-3.722 1.443-1.086.931-1.939 2.234-2.56 3.909-.589 1.675-.884 3.599-.884 5.77s.295 4.095.884 5.77c.621 1.644 1.474 2.947 2.56 3.909 1.116.931 2.373 1.396 3.769 1.396z" fill="url(#B)"/><path d="M185.168 60.602l2.839-10.982h6.375l-4.56 10.982h-4.654z" fill="url(#C)"/><path d="M168.721 55.855c-2.637 0-4.963-.714-6.98-2.141-2.016-1.458-3.598-3.443-4.746-5.956-1.148-2.544-1.722-5.46-1.722-8.748s.574-6.189 1.722-8.702c1.148-2.544 2.714-4.529 4.7-5.956 2.016-1.458 4.343-2.187 6.98-2.187s4.964.729 6.98 2.187c2.048 1.427 3.645 3.412 4.793 5.956 1.148 2.513 1.722 5.413 1.722 8.702s-.574 6.205-1.722 8.749c-1.148 2.513-2.73 4.498-4.746 5.956-2.017 1.427-4.344 2.141-6.981 2.141zm0-5.77c1.396 0 2.637-.465 3.723-1.396 1.117-.962 1.986-2.265 2.606-3.909.621-1.675.931-3.599.931-5.77s-.31-4.095-.931-5.77-1.489-2.978-2.606-3.909a5.51 5.51 0 0 0-3.769-1.443c-1.396 0-2.637.481-3.723 1.443-1.086.931-1.939 2.234-2.559 3.909-.59 1.675-.884 3.599-.884 5.77s.294 4.095.884 5.77c.62 1.644 1.473 2.947 2.559 3.909 1.117.931 2.373 1.396 3.769 1.396z" fill="url(#D)"/><path d="M138.547 55.855c-2.637 0-4.964-.714-6.98-2.141-2.017-1.458-3.599-3.443-4.747-5.956-1.147-2.544-1.721-5.46-1.721-8.748s.574-6.189 1.721-8.702c1.148-2.544 2.715-4.529 4.7-5.956 2.017-1.458 4.344-2.187 6.981-2.187s4.963.729 6.98 2.187c2.047 1.427 3.645 3.412 4.793 5.956 1.148 2.513 1.721 5.413 1.721 8.702s-.573 6.205-1.721 8.749c-1.148 2.513-2.73 4.498-4.747 5.956-2.016 1.427-4.343 2.141-6.98 2.141zm0-5.77c1.396 0 2.637-.465 3.723-1.396 1.117-.962 1.985-2.265 2.606-3.909.62-1.675.93-3.599.93-5.77s-.31-4.095-.93-5.77-1.489-2.978-2.606-3.909a5.51 5.51 0 0 0-3.769-1.443c-1.396 0-2.637.481-3.723 1.443-1.086.931-1.939 2.234-2.56 3.909-.589 1.675-.884 3.599-.884 5.77s.295 4.095.884 5.77c.621 1.644 1.474 2.947 2.56 3.909 1.117.931 2.373 1.396 3.769 1.396z" fill="url(#E)"/><path d="M112.912 55.297V26.12l.605-3.397h5.491v32.574h-6.096zm-6.887-22.29v-5.77c.776.062 1.614-.124 2.513-.558.9-.465 1.784-1.055 2.653-1.768.899-.745 1.675-1.489 2.326-2.234l4.049 3.955c-1.117 1.241-2.296 2.373-3.537 3.397-1.241.993-2.528 1.768-3.862 2.327-1.303.558-2.684.776-4.142.651z" fill="url(#F)"/><path d="M80.199 54.18c-1.986 0-3.785-.31-5.398-.931s-2.947-1.458-4.002-2.513c-1.024-1.055-1.675-2.187-1.954-3.397l5.677-1.675c.341.931.962 1.737 1.861 2.42.931.651 2.094.993 3.49 1.024 1.458.031 2.637-.279 3.537-.931.931-.651 1.396-1.52 1.396-2.606 0-.869-.372-1.613-1.117-2.234-.713-.651-1.706-1.132-2.978-1.443l-3.816-.931c-1.427-.403-2.684-.977-3.769-1.722s-1.923-1.66-2.513-2.746c-.589-1.117-.884-2.404-.884-3.862 0-2.761.9-4.917 2.699-6.468 1.83-1.551 4.421-2.327 7.771-2.327 1.861 0 3.49.264 4.886.791 1.427.527 2.621 1.303 3.583 2.327.962.993 1.691 2.187 2.187 3.583l-5.677 1.722c-.31-.9-.915-1.675-1.815-2.327-.869-.683-1.985-1.024-3.35-1.024-1.334 0-2.389.326-3.164.977-.776.62-1.163 1.489-1.163 2.606 0 .9.295 1.629.884 2.187.62.527 1.458.915 2.513 1.163l3.862.977c2.513.62 4.452 1.737 5.817 3.35 1.396 1.582 2.094 3.351 2.094 5.305 0 1.768-.419 3.304-1.256 4.607s-2.048 2.311-3.63 3.025-3.506 1.07-5.77 1.07zm-2.466 5.91v-8.097h5.119v8.097h-5.119zm0-32.993V19h5.119v8.097h-5.119z" fill="url(#G)"/><path d="M40.527 55.297V22.723h12.099c2.296 0 4.328.45 6.096 1.349s3.149 2.141 4.142 3.723c.993 1.551 1.489 3.366 1.489 5.445 0 2.047-.527 3.878-1.582 5.491-1.024 1.582-2.435 2.823-4.235 3.723-1.799.869-3.847 1.303-6.143 1.303h-5.491v11.541h-6.375zm17.916 0l-7.539-13.076 4.886-3.49 9.865 16.566h-7.213zM46.902 37.939h5.77c.962 0 1.815-.202 2.559-.605.776-.403 1.381-.962 1.815-1.675.465-.713.698-1.52.698-2.42 0-1.396-.512-2.528-1.536-3.397-.993-.869-2.28-1.303-3.862-1.303h-5.445v9.4z" fill="url(#H)"/><path d="M8.739 52.179V30.68h4.979v21.499H8.739zM.456 43.942v-4.979h21.499v4.979H.456z" fill="url(#I)"/><defs><linearGradient id="A" x1="230.271" y1="13.551" x2="238.581" y2="61.285" xlink:href="#K"><stop offset=".115" stop-color="#b3dbac"/><stop offset=".875" stop-color="#29ab4c"/></linearGradient><linearGradient id="B" x1="200.097" y1="13.551" x2="208.407" y2="61.285" xlink:href="#K"><stop offset=".115" stop-color="#b3dbac"/><stop offset=".875" stop-color="#29ab4c"/></linearGradient><linearGradient id="C" x1="186.092" y1="46.812" x2="188.677" y2="62.415" xlink:href="#K"><stop offset=".115" stop-color="#b3dbac"/><stop offset=".875" stop-color="#29ab4c"/></linearGradient><linearGradient id="D" x1="157.97" y1="13.551" x2="166.28" y2="61.285" xlink:href="#K"><stop offset=".115" stop-color="#b3dbac"/><stop offset=".875" stop-color="#29ab4c"/></linearGradient><linearGradient id="E" x1="127.796" y1="13.551" x2="136.106" y2="61.285" xlink:href="#K"><stop offset=".115" stop-color="#b3dbac"/><stop offset=".875" stop-color="#29ab4c"/></linearGradient><linearGradient id="F" x1="107.327" y1="14.336" x2="122.149" y2="56.78" xlink:href="#K"><stop offset=".115" stop-color="#b3dbac"/><stop offset=".875" stop-color="#29ab4c"/></linearGradient><linearGradient id="G" x1="71.052" y1="8.495" x2="85.633" y2="64.694" xlink:href="#K"><stop offset=".115" stop-color="#b3dbac"/><stop offset=".875" stop-color="#29ab4c"/></linearGradient><linearGradient id="H" x1="43.047" y1="14.394" x2="51.344" y2="60.451" xlink:href="#K"><stop offset=".115" stop-color="#b3dbac"/><stop offset=".875" stop-color="#29ab4c"/></linearGradient><linearGradient id="I" x1="2.611" y1="25.183" x2="6.891" y2="55.973" xlink:href="#K"><stop offset=".115" stop-color="#b3dbac"/><stop offset=".875" stop-color="#29ab4c"/></linearGradient><path id="J" d="M88.774 7.303V2.16h.617v5.143h-.617zm.319-6.48c-.11 0-.206-.041-.288-.123s-.123-.178-.123-.288c0-.117.041-.213.123-.288.082-.082.178-.123.288-.123.117 0 .213.041.288.123.082.075.123.171.123.288 0 .11-.041.206-.123.288-.075.082-.171.123-.288.123z"/><linearGradient id="K" gradientUnits="userSpaceOnUse"/></defs></svg>