<svg xmlns="http://www.w3.org/2000/svg" xmlns:xlink="http://www.w3.org/1999/xlink" width="256" height="64" fill="none" xmlns:v="https://vecta.io/nano"><path d="M241.09 58.617c-2.914 0-5.486-.789-7.715-2.366-2.228-1.611-3.977-3.806-5.245-6.583-1.269-2.812-1.903-6.035-1.903-9.669s.634-6.84 1.903-9.618c1.268-2.811 3-5.006 5.194-6.583 2.229-1.611 4.8-2.417 7.715-2.417s5.486.806 7.714 2.417c2.263 1.577 4.029 3.772 5.298 6.583 1.268 2.777 1.903 5.983 1.903 9.618s-.635 6.857-1.903 9.669c-1.269 2.777-3.017 4.972-5.246 6.583-2.229 1.577-4.8 2.366-7.715 2.366zm0-6.377c1.543 0 2.915-.514 4.115-1.543 1.234-1.063 2.194-2.503 2.88-4.32.686-1.852 1.028-3.977 1.028-6.377s-.342-4.526-1.028-6.378-1.646-3.292-2.88-4.32c-1.2-1.063-2.589-1.594-4.166-1.594-1.543 0-2.915.532-4.115 1.594-1.2 1.029-2.143 2.469-2.828 4.32-.652 1.852-.978 3.977-.978 6.378s.326 4.526.978 6.377c.685 1.817 1.628 3.257 2.828 4.32 1.235 1.029 2.623 1.543 4.166 1.543z" fill="url(#A)"/><path d="M207.741 58.617c-2.915 0-5.486-.789-7.715-2.366-2.229-1.611-3.977-3.806-5.246-6.583-1.269-2.812-1.903-6.035-1.903-9.669s.634-6.84 1.903-9.618c1.269-2.811 3-5.006 5.194-6.583 2.229-1.611 4.801-2.417 7.715-2.417s5.486.806 7.715 2.417c2.263 1.577 4.029 3.772 5.297 6.583 1.269 2.777 1.903 5.983 1.903 9.618s-.634 6.857-1.903 9.669c-1.268 2.777-3.017 4.972-5.246 6.583-2.228 1.577-4.8 2.366-7.714 2.366zm0-6.377c1.542 0 2.914-.514 4.114-1.543 1.234-1.063 2.194-2.503 2.88-4.32.686-1.852 1.029-3.977 1.029-6.377s-.343-4.526-1.029-6.378-1.646-3.292-2.88-4.32c-1.2-1.063-2.589-1.594-4.166-1.594-1.543 0-2.914.532-4.114 1.594-1.2 1.029-2.143 2.469-2.829 4.32-.652 1.852-.977 3.977-.977 6.378s.325 4.526.977 6.377c.686 1.817 1.629 3.257 2.829 4.32 1.234 1.029 2.623 1.543 4.166 1.543z" fill="url(#B)"/><path d="M179.359 63.863l3.137-12.138h7.046l-5.04 12.138h-5.143z" fill="url(#C)"/><path d="M161.181 58.617c-2.914 0-5.486-.789-7.715-2.366-2.228-1.611-3.977-3.806-5.246-6.583-1.268-2.812-1.903-6.035-1.903-9.669s.635-6.84 1.903-9.618c1.269-2.811 3-5.006 5.195-6.583 2.229-1.611 4.8-2.417 7.715-2.417s5.486.806 7.714 2.417c2.263 1.577 4.029 3.772 5.298 6.583 1.268 2.777 1.903 5.983 1.903 9.618s-.635 6.857-1.903 9.669c-1.269 2.777-3.018 4.972-5.246 6.583-2.229 1.577-4.801 2.366-7.715 2.366zm0-6.377c1.543 0 2.914-.514 4.114-1.543 1.235-1.063 2.195-2.503 2.881-4.32.685-1.852 1.028-3.977 1.028-6.377s-.343-4.526-1.028-6.378-1.646-3.292-2.881-4.32c-1.2-1.063-2.588-1.594-4.165-1.594-1.543 0-2.915.532-4.115 1.594-1.2 1.029-2.143 2.469-2.829 4.32-.651 1.852-.977 3.977-.977 6.378s.326 4.526.977 6.377c.686 1.817 1.629 3.257 2.829 4.32 1.234 1.029 2.623 1.543 4.166 1.543z" fill="url(#D)"/><path d="M129.702 58.617c-1.645 0-3.343-.274-5.091-.823a14.95 14.95 0 0 1-4.681-2.469c-1.371-1.097-2.383-2.451-3.034-4.063l6.429-1.903c.754 1.097 1.646 1.903 2.674 2.417 1.063.514 2.16.771 3.292.771 1.783 0 3.223-.531 4.32-1.594 1.132-1.097 1.697-2.554 1.697-4.372 0-1.68-.548-3.086-1.645-4.217-1.063-1.131-2.486-1.697-4.269-1.697-1.063 0-2.04.24-2.932.72s-1.577 1.046-2.057 1.697l-6.326-1.389 2.16-19.698h20.367v6.377h-14.35l-1.028 8.641c.926-.514 1.954-.926 3.086-1.234 1.131-.343 2.348-.497 3.651-.463 1.955 0 3.738.48 5.349 1.44 1.612.926 2.88 2.212 3.806 3.857.96 1.611 1.44 3.497 1.44 5.657 0 2.434-.548 4.577-1.646 6.429a11.8 11.8 0 0 1-4.526 4.372c-1.92 1.029-4.148 1.543-6.686 1.543z" fill="url(#E)"/><path d="M88.507 56.766c-2.194 0-4.183-.343-5.966-1.029s-3.257-1.611-4.423-2.777c-1.132-1.166-1.852-2.417-2.16-3.754l6.275-1.852c.377 1.029 1.063 1.92 2.057 2.674 1.029.72 2.314 1.097 3.857 1.132 1.612.034 2.914-.309 3.909-1.029 1.029-.72 1.543-1.68 1.543-2.88 0-.96-.412-1.783-1.234-2.469-.789-.72-1.886-1.251-3.291-1.594l-4.217-1.029c-1.577-.446-2.966-1.08-4.166-1.903s-2.126-1.834-2.777-3.034c-.651-1.234-.977-2.657-.977-4.269 0-3.052.994-5.434 2.983-7.149 2.023-1.714 4.886-2.572 8.589-2.572 2.057 0 3.857.291 5.4.874 1.577.583 2.897 1.44 3.96 2.572 1.063 1.097 1.869 2.417 2.417 3.96l-6.274 1.903c-.343-.994-1.011-1.852-2.006-2.572-.96-.754-2.194-1.131-3.703-1.131-1.474 0-2.64.36-3.497 1.08-.857.686-1.286 1.646-1.286 2.88 0 .994.326 1.8.977 2.417.686.583 1.612 1.012 2.777 1.286l4.269 1.08c2.777.686 4.92 1.92 6.429 3.703 1.543 1.749 2.314 3.703 2.314 5.863 0 1.954-.462 3.652-1.388 5.092s-2.263 2.554-4.012 3.343-3.875 1.183-6.378 1.183zm-2.726 6.532v-8.949h5.657v8.949h-5.657zm0-36.465v-8.949h5.657v8.949h-5.657z" fill="url(#F)"/><path d="M44.66 58V21.998h13.372c2.537 0 4.783.497 6.737 1.491s3.48 2.366 4.577 4.115c1.097 1.714 1.646 3.72 1.646 6.017 0 2.263-.583 4.286-1.749 6.069-1.131 1.749-2.692 3.12-4.68 4.115-1.989.96-4.252 1.44-6.789 1.44h-6.069V58H44.66zm19.801 0l-8.332-14.452 5.4-3.857L72.433 58h-7.972zM51.706 38.816h6.377c1.063 0 2.006-.223 2.829-.669.857-.446 1.526-1.063 2.006-1.852.514-.789.771-1.68.771-2.674 0-1.543-.566-2.794-1.697-3.754-1.097-.96-2.52-1.44-4.269-1.44h-6.017v10.389z" fill="url(#G)"/><path d="M9.526 54.554V30.793h5.503v23.761H9.526zM.372 45.451v-5.503h23.761v5.503H.372z" fill="url(#H)"/><path d="M111.474 8l-.052-.771V5.243c0-.439-.051-.799-.154-1.08-.096-.288-.25-.504-.463-.648-.205-.144-.476-.216-.812-.216-.309 0-.569.062-.782.185-.206.123-.377.315-.514.576l-.556-.247c.144-.247.305-.449.484-.607a1.85 1.85 0 0 1 .617-.35 2.18 2.18 0 0 1 .751-.123c.459 0 .84.093 1.141.278s.528.463.679.833.227.837.227 1.399V8h-.566zm-1.584.123c-.604 0-1.077-.137-1.42-.411-.336-.281-.504-.669-.504-1.162 0-.507.168-.902.504-1.183.343-.281.816-.422 1.42-.422h1.543v.566h-1.461c-.494 0-.85.093-1.07.278-.212.178-.319.432-.319.761 0 .315.11.562.33.741.226.178.538.267.936.267.329 0 .61-.065.843-.195.24-.137.422-.336.545-.597s.185-.583.185-.967h.36c0 .699-.168 1.262-.504 1.687-.329.425-.792.638-1.388.638zM106.145 8l-.03-.957V.8h.617V8h-.587zm-1.841.123c-.452 0-.854-.113-1.203-.339-.35-.233-.624-.552-.823-.957-.199-.411-.299-.878-.299-1.399 0-.528.1-.994.299-1.399s.473-.72.823-.946c.349-.233.751-.35 1.203-.35a1.94 1.94 0 0 1 1.152.35c.336.226.597.542.782.946.192.405.288.871.288 1.399a3.27 3.27 0 0 1-.288 1.399c-.185.405-.446.723-.782.957-.329.226-.713.339-1.152.339zm.124-.555c.329 0 .62-.089.874-.267.254-.185.453-.439.597-.761s.216-.693.216-1.111-.072-.789-.216-1.111-.343-.573-.597-.751c-.254-.185-.549-.278-.885-.278a1.65 1.65 0 0 0-.946.278c-.274.178-.49.429-.648.751a2.59 2.59 0 0 0-.226 1.111c0 .418.079.789.236 1.111s.374.576.648.761a1.7 1.7 0 0 0 .947.267zM100.334 8l-.052-.771V5.243c0-.439-.051-.799-.154-1.08-.096-.288-.25-.504-.463-.648-.206-.144-.477-.216-.813-.216-.309 0-.569.062-.782.185-.206.123-.377.315-.514.576l-.555-.247c.144-.247.305-.449.483-.607a1.85 1.85 0 0 1 .617-.35 2.19 2.19 0 0 1 .751-.123c.459 0 .84.093 1.142.278s.528.463.679.833.227.837.227 1.399V8h-.566zm-1.584.123c-.604 0-1.077-.137-1.419-.411-.336-.281-.504-.669-.504-1.162 0-.507.168-.902.504-1.183.343-.281.816-.422 1.419-.422h1.543v.566h-1.461c-.494 0-.85.093-1.07.278-.213.178-.319.432-.319.761 0 .315.11.562.329.741.226.178.538.267.936.267.329 0 .61-.065.844-.195.24-.137.422-.336.545-.597s.185-.583.185-.967h.36c0 .699-.168 1.262-.504 1.687-.329.425-.792.638-1.388.638zM91.765 8v-.535l3.23-4.042h-3.23v-.566h4.053v.504l-3.24 4.073h3.271V8h-4.084zm-1.962 0V2.857h.617V8h-.617zm.319-6.48c-.11 0-.206-.041-.288-.123s-.123-.178-.123-.288c0-.117.041-.213.123-.288.082-.082.178-.123.288-.123.117 0 .213.041.288.123.082.075.123.171.123.288 0 .11-.041.206-.123.288-.075.082-.171.123-.288.123zM87.602 8V.8h.617V8h-.617zm-1.954 0l-.051-.771V5.243c0-.439-.051-.799-.154-1.08-.096-.288-.25-.504-.463-.648-.206-.144-.477-.216-.813-.216-.309 0-.569.062-.782.185-.206.123-.377.315-.514.576l-.556-.247c.144-.247.305-.449.484-.607a1.84 1.84 0 0 1 .617-.35 2.19 2.19 0 0 1 .751-.123c.46 0 .84.093 1.142.278s.528.463.679.833.226.837.226 1.399V8h-.566zm-1.584.123c-.603 0-1.077-.137-1.419-.411-.336-.281-.504-.669-.504-1.162 0-.507.168-.902.504-1.183.343-.281.816-.422 1.419-.422h1.543v.566h-1.461c-.494 0-.85.093-1.07.278-.213.178-.319.432-.319.761 0 .315.11.562.329.741.226.178.538.267.936.267.329 0 .61-.065.844-.195.24-.137.422-.336.545-.597s.185-.583.185-.967h.36c0 .699-.168 1.262-.504 1.687-.329.425-.792.638-1.389.638zm-4.978 0c-.494 0-.933-.113-1.317-.339-.377-.233-.675-.552-.895-.957-.212-.405-.319-.871-.319-1.399s.106-.994.319-1.399a2.38 2.38 0 0 1 .874-.946c.377-.233.806-.35 1.286-.35.487 0 .898.12 1.234.36.343.233.603.559.782.977.178.411.267.888.267 1.43h-4.392l.237-.195c0 .473.079.878.237 1.214a1.76 1.76 0 0 0 .669.771 1.93 1.93 0 0 0 1.018.267c.398 0 .734-.096 1.008-.288.281-.199.501-.453.658-.761l.514.319a2.47 2.47 0 0 1-.514.679c-.206.192-.449.343-.73.453s-.593.165-.936.165zM77.214 5.12l-.257-.185h3.96l-.257.195a2.12 2.12 0 0 0-.206-.957c-.13-.274-.316-.487-.555-.638-.24-.158-.528-.237-.864-.237a1.84 1.84 0 0 0-.915.237 1.72 1.72 0 0 0-.658.638c-.165.267-.247.583-.247.946zm-3.408.062c0-.555.103-1.005.309-1.347.213-.343.483-.593.813-.751a2.38 2.38 0 0 1 1.06-.247v.566c-.302 0-.593.055-.874.165-.274.103-.501.281-.679.535-.178.247-.267.586-.267 1.018l-.36.062zM73.549 8V2.857h.617V8h-.617zm-6.307.123c-.494 0-.933-.113-1.317-.339-.377-.233-.675-.552-.895-.957-.213-.405-.319-.871-.319-1.399s.106-.994.319-1.399a2.35 2.35 0 0 1 .885-.946c.384-.233.819-.35 1.306-.35.494 0 .929.117 1.306.35a2.34 2.34 0 0 1 .895.946c.213.404.319.871.319 1.399s-.106.994-.319 1.399a2.43 2.43 0 0 1-.885.957 2.47 2.47 0 0 1-1.296.339zm0-.566c.37 0 .696-.089.977-.267.281-.185.501-.435.658-.751.165-.322.247-.693.247-1.111s-.082-.785-.247-1.101a1.78 1.78 0 0 0-.669-.751c-.288-.185-.617-.278-.987-.278s-.699.093-.987.278c-.281.178-.504.429-.669.751a2.43 2.43 0 0 0-.237 1.101c0 .418.082.789.247 1.111a1.94 1.94 0 0 0 .679.751c.288.178.617.267.987.267zM63.066 8l-.051-.771V5.243c0-.439-.052-.799-.154-1.08-.096-.288-.25-.504-.463-.648-.206-.144-.477-.216-.813-.216-.309 0-.569.062-.782.185-.206.123-.377.315-.514.576l-.555-.247c.144-.247.305-.449.483-.607a1.85 1.85 0 0 1 .617-.35 2.19 2.19 0 0 1 .751-.123c.459 0 .84.093 1.142.278s.528.463.679.833.226.837.226 1.399V8h-.566zm-1.584.123c-.603 0-1.077-.137-1.419-.411-.336-.281-.504-.669-.504-1.162 0-.507.168-.902.504-1.183.343-.281.816-.422 1.419-.422h1.543v.566h-1.461c-.494 0-.85.093-1.07.278-.212.178-.319.432-.319.761 0 .315.11.562.329.741.226.178.538.267.936.267.329 0 .61-.065.843-.195.24-.137.422-.336.545-.597s.185-.583.185-.967h.36c0 .699-.168 1.262-.504 1.687-.329.425-.792.638-1.389.638zm1.049-6.007a.88.88 0 0 1-.463-.113 1.37 1.37 0 0 1-.298-.257l-.216-.257c-.069-.075-.144-.113-.226-.113-.123 0-.216.031-.278.093-.055.055-.099.151-.134.288h-.566a1.09 1.09 0 0 1 .144-.442 1.03 1.03 0 0 1 .34-.37.87.87 0 0 1 .494-.145c.171 0 .312.038.422.113s.206.161.288.257l.237.257c.075.075.161.113.257.113.123 0 .213-.031.267-.093a.57.57 0 0 0 .123-.298h.566c-.027.233-.123.453-.288.658a.81.81 0 0 1-.669.309zm-5.987 6.007c-.494 0-.933-.113-1.317-.339-.377-.233-.675-.552-.895-.957-.213-.405-.319-.871-.319-1.399s.106-.994.319-1.399.508-.72.885-.946c.384-.233.819-.35 1.306-.35s.919.11 1.296.329c.377.213.669.511.874.895l-.535.288a1.7 1.7 0 0 0-.669-.689 1.82 1.82 0 0 0-.967-.257c-.37 0-.7.093-.987.278-.281.178-.504.429-.669.751-.158.315-.237.682-.237 1.101s.082.789.247 1.111c.165.315.391.566.679.751.288.178.617.267.987.267s.699-.093.987-.278c.288-.192.507-.456.658-.792l.545.288c-.206.418-.501.747-.885.987a2.38 2.38 0 0 1-1.306.36zm-.278 2.037a1.87 1.87 0 0 1-.411-.052c-.151-.027-.339-.099-.566-.216l.195-.442.35.154a.86.86 0 0 0 .35.082.71.71 0 0 0 .339-.082c.11-.048.165-.154.165-.319 0-.192-.069-.336-.206-.432-.13-.089-.336-.158-.617-.206l.298-.71.463.144-.113.257c.261.096.439.223.535.381.103.165.154.336.154.514 0 .254-.072.47-.216.648-.137.185-.377.278-.72.278zM52.368 8l-.052-.771V5.243c0-.439-.051-.799-.154-1.08-.096-.288-.25-.504-.463-.648-.206-.144-.477-.216-.813-.216-.308 0-.569.062-.782.185-.206.123-.377.315-.514.576l-.555-.247c.144-.247.305-.449.483-.607a1.84 1.84 0 0 1 .617-.35 2.19 2.19 0 0 1 .751-.123c.46 0 .84.093 1.142.278s.528.463.679.833.226.837.226 1.399V8h-.566zm-1.584.123c-.604 0-1.077-.137-1.419-.411-.336-.281-.504-.669-.504-1.162 0-.507.168-.902.504-1.183.343-.281.816-.422 1.419-.422h1.543v.566h-1.461c-.494 0-.85.093-1.07.278-.213.178-.319.432-.319.761 0 .315.11.562.329.741.226.178.538.267.936.267.329 0 .61-.065.843-.195.24-.137.422-.336.545-.597s.185-.583.185-.967h.36c0 .699-.168 1.262-.504 1.687-.329.425-.792.638-1.389.638zm-4.938 0c-.494 0-.933-.113-1.317-.339-.377-.233-.675-.552-.895-.957-.213-.405-.319-.871-.319-1.399s.106-.994.319-1.399.508-.72.885-.946c.384-.233.819-.35 1.306-.35s.919.11 1.296.329a2.2 2.2 0 0 1 .874.895l-.535.288a1.7 1.7 0 0 0-.669-.689 1.82 1.82 0 0 0-.967-.257c-.37 0-.7.093-.987.278-.281.178-.504.429-.669.751-.158.315-.237.682-.237 1.101s.082.789.247 1.111a1.94 1.94 0 0 0 .679.751c.288.178.617.267.987.267a1.79 1.79 0 0 0 .988-.278 1.82 1.82 0 0 0 .658-.792l.545.288c-.206.418-.501.747-.885.987a2.38 2.38 0 0 1-1.306.36zM41.405 8V2.857h.617V8h-.617zm.319-6.48c-.11 0-.206-.041-.288-.123s-.123-.178-.123-.288c0-.117.041-.213.123-.288.082-.082.178-.123.288-.123.117 0 .213.041.288.123.082.075.123.171.123.288 0 .11-.041.206-.123.288-.075.082-.172.123-.288.123zM39.234 8l-.031-.957V.8h.617V8h-.586zm-1.841.123c-.453 0-.854-.113-1.203-.339-.35-.233-.624-.552-.823-.957-.199-.411-.298-.878-.298-1.399 0-.528.099-.994.298-1.399s.473-.72.823-.946a2.12 2.12 0 0 1 1.203-.35c.439 0 .823.117 1.152.35.336.226.597.542.782.946.192.405.288.871.288 1.399a3.27 3.27 0 0 1-.288 1.399 2.3 2.3 0 0 1-.782.957c-.329.226-.713.339-1.152.339zm.123-.555c.329 0 .621-.089.874-.267.254-.185.453-.439.597-.761s.216-.693.216-1.111-.072-.789-.216-1.111-.343-.573-.597-.751a1.46 1.46 0 0 0-.885-.278 1.65 1.65 0 0 0-.946.278c-.274.178-.49.429-.648.751-.151.322-.226.693-.226 1.111s.079.789.237 1.111.374.576.648.761a1.7 1.7 0 0 0 .946.267zM29.682 8V2.857h.576l.041.946V8h-.617zm3.693 0V5.367h.617V8h-.617zm0-2.633c0-.569-.069-1.001-.206-1.296-.13-.295-.312-.494-.545-.597a1.74 1.74 0 0 0-.771-.165c-.487 0-.867.182-1.142.545-.274.357-.412.857-.412 1.502h-.381c0-.549.079-1.018.237-1.409s.387-.689.689-.895c.309-.213.682-.319 1.121-.319.398 0 .747.082 1.049.247.309.158.549.411.72.761.178.35.264.813.257 1.389v.237h-.617zM27.463 8V2.857h.617V8h-.617zm.319-6.48c-.11 0-.206-.041-.288-.123s-.123-.178-.123-.288c0-.117.041-.213.123-.288.082-.082.178-.123.288-.123.116 0 .212.041.288.123.082.075.123.171.123.288 0 .11-.041.206-.123.288-.076.082-.172.123-.288.123zM22.896 8l-.051-.771V5.243c0-.439-.052-.799-.154-1.08-.096-.288-.25-.504-.463-.648-.206-.144-.477-.216-.813-.216-.309 0-.569.062-.782.185-.206.123-.377.315-.514.576l-.555-.247c.144-.247.305-.449.483-.607a1.85 1.85 0 0 1 .617-.35 2.19 2.19 0 0 1 .751-.123c.459 0 .84.093 1.142.278s.528.463.679.833.226.837.226 1.399V8h-.566zm-1.584.123c-.603 0-1.077-.137-1.419-.411-.336-.281-.504-.669-.504-1.162 0-.507.168-.902.504-1.183.343-.281.816-.422 1.419-.422h1.543v.566h-1.461c-.494 0-.85.093-1.07.278-.213.178-.319.432-.319.761 0 .315.11.562.329.741.226.178.538.267.936.267.329 0 .61-.065.843-.195.24-.137.422-.336.545-.597s.185-.583.185-.967h.36c0 .699-.168 1.262-.504 1.687-.329.425-.792.638-1.389.638zM16.116 8l2.16-5.143h.648L16.754 8h-.638zm-.021 0l-2.17-5.143h.638L16.723 8h-.627zm-5.136.123c-.494 0-.933-.113-1.317-.339-.377-.233-.675-.552-.895-.957-.213-.405-.319-.871-.319-1.399s.106-.994.319-1.399a2.35 2.35 0 0 1 .885-.946 2.47 2.47 0 0 1 1.306-.35c.494 0 .929.117 1.306.35a2.34 2.34 0 0 1 .895.946c.213.404.319.871.319 1.399s-.106.994-.319 1.399a2.43 2.43 0 0 1-.885.957 2.47 2.47 0 0 1-1.296.339zm0-.566c.37 0 .696-.089.977-.267.281-.185.501-.435.658-.751.165-.322.247-.693.247-1.111s-.082-.785-.247-1.101a1.78 1.78 0 0 0-.669-.751c-.288-.185-.617-.278-.988-.278s-.699.093-.987.278c-.281.178-.504.429-.669.751-.158.315-.237.682-.237 1.101s.082.789.247 1.111c.165.315.391.566.679.751.288.178.617.267.987.267zM1.029 8V.8h.658l4.588 6.141V.8h.658V8h-.658L1.687 1.849V8h-.658z" fill="#000"/><defs><linearGradient id="A" x1="229.207" y1="11.861" x2="238.392" y2="64.619" xlink:href="#I"><stop offset=".115" stop-color="#b3dbac"/><stop offset=".875" stop-color="#29ab4c"/></linearGradient><linearGradient id="B" x1="195.858" y1="11.861" x2="205.042" y2="64.619" xlink:href="#I"><stop offset=".115" stop-color="#b3dbac"/><stop offset=".875" stop-color="#29ab4c"/></linearGradient><linearGradient id="C" x1="180.38" y1="48.622" x2="183.237" y2="65.867" xlink:href="#I"><stop offset=".115" stop-color="#b3dbac"/><stop offset=".875" stop-color="#29ab4c"/></linearGradient><linearGradient id="D" x1="149.298" y1="11.861" x2="158.483" y2="64.619" xlink:href="#I"><stop offset=".115" stop-color="#b3dbac"/><stop offset=".875" stop-color="#29ab4c"/></linearGradient><linearGradient id="E" x1="119.469" y1="12.636" x2="129.669" y2="64.069" xlink:href="#I"><stop offset=".115" stop-color="#b3dbac"/><stop offset=".875" stop-color="#29ab4c"/></linearGradient><linearGradient id="F" x1="78.397" y1="6.273" x2="94.512" y2="68.386" xlink:href="#I"><stop offset=".115" stop-color="#b3dbac"/><stop offset=".875" stop-color="#29ab4c"/></linearGradient><linearGradient id="G" x1="47.445" y1="12.794" x2="56.615" y2="63.696" xlink:href="#I"><stop offset=".115" stop-color="#b3dbac"/><stop offset=".875" stop-color="#29ab4c"/></linearGradient><linearGradient id="H" x1="2.754" y1="24.718" x2="7.484" y2="58.747" xlink:href="#I"><stop offset=".115" stop-color="#b3dbac"/><stop offset=".875" stop-color="#29ab4c"/></linearGradient><linearGradient id="I" gradientUnits="userSpaceOnUse"/></defs></svg>