<svg width="52" height="50" viewBox="0 0 52 50" fill="none" xmlns="http://www.w3.org/2000/svg">
<path d="M35.3164 23.2451L34.9036 23.6579H34.904C34.696 23.862 34.5006 24.0766 34.3157 24.2615C33.4897 25.0734 32.7326 25.6825 31.9202 25.6786C31.9202 25.6786 30.3794 25.6711 30.3673 25.6707V25.6711C29.2945 25.666 28.2166 26.0526 28.2033 26.0573L20.2547 29.1719C18.3586 29.8714 18.9289 32.9253 21.3627 32.5199L24.8725 32.0452L34.8789 43.3156L39.6714 38.5113C41.8836 36.3031 39.9609 34.7055 41.7395 32.9296C41.7403 32.9284 43.1323 31.538 43.1327 31.538L43.3708 31.2995C41.7183 29.6474 37.1322 25.0609 35.3164 23.2451Z" fill="#FFBEAB"/>
<path d="M21.3248 31.0774C29.9671 27.6914 30.4144 27.373 32.005 27.3804V27.38C32.0179 27.3804 33.6453 27.3882 33.6453 27.3882C34.5031 27.3925 35.3028 26.7494 36.1751 25.892V25.8916C36.3702 25.6966 36.577 25.4702 36.7963 25.2544L37.0607 24.9896L35.3162 23.2451L34.9033 23.6579H34.9037C34.6958 23.862 34.5003 24.0766 34.3154 24.2615C33.4894 25.0734 32.7323 25.6825 31.92 25.6786C31.92 25.6786 30.3791 25.6711 30.367 25.6707V25.6711C29.2942 25.666 28.2163 26.0526 28.203 26.0573L20.2544 29.1719C18.7226 29.7367 18.8013 31.8372 20.1702 32.4106C20.2842 31.8419 20.6606 31.3226 21.3248 31.0774Z" fill="#F7AF9F"/>
<path d="M34.7404 44.3574C35.4172 43.6794 35.4129 42.5847 34.7349 41.9075L24.929 32.0424C24.8989 32.0123 24.8566 31.9982 24.8143 32.004L21.3566 32.5022C18.9227 32.9076 18.4237 29.9164 20.2548 29.2749L25.6849 27.0439L23.1665 26.0573C23.1532 26.0526 22.0753 25.6656 21.0025 25.6711L21.0021 25.6707C20.9904 25.6707 19.4491 25.6781 19.4491 25.6781C18.6368 25.682 17.8797 25.0734 17.0537 24.2615H17.054C16.8692 24.0766 16.6733 23.8619 16.4658 23.6579V23.6575L16.0373 23.229C7.16471 32.1012 13.267 25.9993 7.98291 31.2834C8.36322 31.6637 9.63068 32.9296 9.63068 32.9296C11.4089 34.7054 9.48615 36.3026 11.6983 38.5109L16.8782 43.6829L16.8743 43.6869L22.6793 49.4914C23.3568 50.1694 24.4559 50.1694 25.1339 49.4918C25.8118 48.8135 25.8118 47.7144 25.1339 47.0364L27.3366 49.2392C28.0256 49.9278 29.174 49.9489 29.8496 49.2474C30.5045 48.5671 30.4966 47.4849 29.8261 46.8144L30.7226 47.7109C31.4112 48.3998 32.56 48.421 33.2352 47.7191C33.8905 47.0388 33.8823 45.9566 33.2117 45.2857L32.305 44.3789L32.3066 44.3774C32.9861 45.0354 34.0699 45.0287 34.7404 44.3574Z" fill="#FFCDBF"/>
<path d="M20.1518 44.1702L20.1565 44.1655L13.8498 37.8678C11.1562 35.1794 13.4969 33.234 11.3317 31.0715C11.3305 31.0707 10.1555 29.8965 9.76228 29.5037C9.17986 30.0861 9.49359 29.7727 7.98291 31.2834C8.36322 31.6637 9.63029 32.9296 9.63029 32.9296C11.4085 34.7055 9.48615 36.3027 11.6983 38.511L16.8778 43.683L16.8743 43.6869L22.6789 49.4915C23.3568 50.1695 24.4559 50.1695 25.1335 49.4919C25.1914 49.4339 25.2427 49.372 25.2905 49.3086L20.1518 44.1702Z" fill="#FFBEAB"/>
<path d="M23.3758 37.3312C22.9752 36.925 22.3211 36.9207 21.9149 37.3214C21.5087 37.7221 21.5044 38.3762 21.9051 38.7823L30.0398 47.0282L30.7228 47.7113C31.4114 48.3998 32.5598 48.421 33.2354 47.7195C33.3008 47.6514 33.358 47.5785 33.4105 47.5029L23.3758 37.3312Z" fill="#FFBEAB"/>
<path d="M26.0619 35.1046C25.6612 34.6984 25.0071 34.6941 24.6009 35.0948C24.1948 35.4955 24.1905 36.1496 24.5912 36.5558L32.3134 44.3833C32.9929 45.0351 34.0716 45.0268 34.7402 44.3575C34.8173 44.2799 34.8851 44.1965 34.9446 44.1092L26.0619 35.1046Z" fill="#FFBEAB"/>
<path d="M20.7763 39.6534C20.3764 39.2468 19.7223 39.241 19.3154 39.6413C18.9088 40.0412 18.9033 40.6953 19.3032 41.1018L25.3886 47.291L27.3368 49.2392C28.0254 49.9278 29.1738 49.9489 29.8494 49.2474C29.9101 49.1844 29.9634 49.1166 30.0127 49.0473L20.7763 39.6534Z" fill="#FFBEAB"/>
<path d="M44.5152 32.5473C44.7674 32.7996 45.1763 32.7996 45.4286 32.5473L51.1482 26.8277C51.4004 26.5755 51.4004 26.1666 51.1482 25.9143C50.9249 25.6911 40.6631 15.4293 40.7336 15.4998C40.4813 15.2471 40.0724 15.2471 39.8202 15.4998L34.1006 21.2194C33.848 21.4716 33.848 21.8805 34.1006 22.1328C34.4449 22.477 44.8348 32.8669 44.5152 32.5473Z" fill="#54A0FF"/>
<path d="M35.4386 22.6713L41.2721 16.8377C41.4421 16.6677 41.6818 16.6109 41.8992 16.6653L40.7336 15.4997C40.4813 15.2475 40.0724 15.2475 39.8202 15.4997L34.1006 21.2193C33.848 21.4716 33.848 21.8805 34.1006 22.1327L35.2662 23.2983C35.2114 23.0809 35.2686 22.8412 35.4386 22.6713Z" fill="#338DEF"/>
<path d="M6.82215 32.5473C6.56992 32.7996 6.16101 32.7996 5.90877 32.5473L0.189178 26.8277C-0.0630593 26.5755 -0.0630593 26.1666 0.189178 25.9143C0.412431 25.6911 10.6743 15.4293 10.6038 15.4998C10.856 15.2471 11.2649 15.2471 11.5171 15.4998L17.2367 21.2194C17.4894 21.4716 17.4894 21.8805 17.2367 22.1328C16.8925 22.477 6.50255 32.8669 6.82215 32.5473Z" fill="#576574"/>
<path d="M7.71752 31.2016L1.53536 25.0195C1.45389 24.938 1.39749 24.8416 1.36459 24.739L0.189178 25.9144C-0.0630593 26.1667 -0.0630593 26.5756 0.189178 26.8278L5.90877 32.5474C6.16101 32.7996 6.56992 32.7996 6.82215 32.5474L7.99756 31.372C7.89534 31.3391 7.79859 31.2827 7.71752 31.2016Z" fill="#3E4B5A"/>
<path d="M48.9282 5.54818C49.2419 5.24855 49.0688 4.72645 48.6352 4.66496L45.286 4.18829C45.1137 4.16361 44.9649 4.05786 44.8881 3.90472L43.39 0.932315C43.1961 0.547301 42.636 0.547301 42.4421 0.932315L40.9444 3.90472C40.8672 4.05786 40.7184 4.16361 40.546 4.18829L37.1968 4.66496C36.7632 4.72645 36.5901 5.24855 36.9039 5.54818L39.3275 7.86218C39.4521 7.98086 39.5089 8.15241 39.4795 8.32044L38.9073 11.5878C38.8332 12.0108 39.2864 12.3335 39.6746 12.1338L42.6701 10.591C42.824 10.5118 43.0081 10.5118 43.162 10.591L46.1575 12.1338C46.5453 12.3335 46.9984 12.0108 46.9244 11.5878L46.3522 8.32044C46.3228 8.15241 46.38 7.98086 46.5045 7.86218L48.9282 5.54818Z" fill="#FECA57"/>
<path d="M43.137 7.72222C43.1668 7.5542 43.1096 7.38304 42.9851 7.26397L40.5618 4.94997C40.3213 4.72045 40.3675 4.36167 40.5963 4.17798C40.5798 4.1819 40.5634 4.18581 40.5465 4.18816L37.1973 4.66483C36.7637 4.72632 36.5906 5.24842 36.9043 5.54805L39.3276 7.86205C39.4522 7.98073 39.509 8.15228 39.4796 8.32031L38.9074 11.5876C38.8333 12.0106 39.2865 12.3334 39.6746 12.1336L42.6314 10.6108L43.137 7.72222Z" fill="#F4B537"/>
<path d="M40.8545 4.06687L44.2037 3.59021C44.3706 3.56631 44.5147 3.46565 44.5934 3.32074L43.3902 0.932315C43.1963 0.547301 42.6359 0.547301 42.442 0.932315L40.9442 3.90472C40.9098 3.97326 40.8604 4.03201 40.8013 4.07823C40.8185 4.07392 40.8361 4.06961 40.8545 4.06687Z" fill="#F4B537"/>
<path d="M14.4332 5.54803C14.7469 5.2484 14.5738 4.7263 14.1402 4.66481L10.791 4.18814C10.6191 4.16347 10.4702 4.05772 10.3931 3.90457L8.89533 0.931778C8.70145 0.547155 8.14097 0.547155 7.94709 0.931778L6.44933 3.90457C6.37257 4.05733 6.22373 4.16347 6.05139 4.18775L2.7022 4.66481C2.26862 4.7263 2.0955 5.2484 2.40923 5.54803L4.8329 7.86203C4.95745 7.98071 5.01424 8.15226 4.98487 8.32029L4.41264 11.5876C4.33861 12.0106 4.79177 12.3334 5.17953 12.1336L8.17504 10.5908C8.32936 10.5117 8.51306 10.5117 8.66738 10.5908L11.6629 12.1336C12.0506 12.3334 12.5038 12.0106 12.4298 11.5876L11.8575 8.32029C11.8282 8.15226 11.885 7.98071 12.0095 7.86203L14.4332 5.54803Z" fill="#FECA57"/>
<path d="M8.64231 7.72222C8.67168 7.5542 8.6145 7.38304 8.49034 7.26397L6.06667 4.94997C5.82657 4.72045 5.8724 4.36167 6.10153 4.17798C6.08508 4.1819 6.06824 4.18581 6.05139 4.18816L2.7022 4.66483C2.26862 4.72632 2.0955 5.24842 2.40923 5.54805L4.8329 7.86205C4.95745 7.98073 5.01424 8.15228 4.98487 8.32031L4.41264 11.5876C4.33861 12.0106 4.79177 12.3334 5.17992 12.1336L8.13666 10.6108L8.64231 7.72222Z" fill="#F4B537"/>
<path d="M6.35942 4.06673L9.70861 3.59006C9.87547 3.56617 10.0196 3.46551 10.0987 3.32059L8.89511 0.931777C8.70123 0.547155 8.14075 0.547155 7.94687 0.931777L6.44911 3.90457C6.41465 3.97312 6.36529 4.03147 6.30615 4.07808C6.32378 4.07378 6.34101 4.06947 6.35942 4.06673Z" fill="#F4B537"/>
<path d="M34.645 7.3232C35.1135 6.87591 34.855 6.09648 34.2075 6.00444L29.2071 5.29277C28.9501 5.25595 28.7276 5.09772 28.6129 4.86976L26.3764 0.430938C26.087 -0.143646 25.2504 -0.143646 24.9609 0.430938L22.7245 4.86976C22.6097 5.09772 22.3872 5.25595 22.1303 5.29277L17.1298 6.00444C16.4824 6.09648 16.2239 6.87591 16.6923 7.3232L20.3106 10.7781C20.4966 10.9556 20.5816 11.2117 20.5378 11.4624L19.6835 16.3411C19.5731 16.9724 20.2499 17.4542 20.8288 17.1561L25.3013 14.8527C25.5312 14.7344 25.8062 14.7344 26.0361 14.8527L30.5086 17.1561C31.0875 17.4542 31.7643 16.9724 31.6538 16.3411L30.7996 11.4624C30.7557 11.2117 30.8407 10.9556 31.0268 10.7781L34.645 7.3232Z" fill="#FECA57"/>
<path d="M25.5077 4.74041C25.7646 4.7036 25.9867 4.54575 26.1019 4.31741L27.2181 2.10172L26.3764 0.431232C26.087 -0.143744 25.2504 -0.143744 24.9609 0.431232L22.7245 4.86967C22.6602 4.99735 22.5615 5.10193 22.4429 5.17674L25.5077 4.74041Z" fill="#F4B537"/>
<path d="M23.0609 15.7889L23.9152 10.9102C23.959 10.6595 23.874 10.4038 23.688 10.2259L20.0697 6.77099C19.6886 6.40712 19.7885 5.82392 20.1872 5.56934L17.1298 6.00448C16.4824 6.09653 16.2239 6.87596 16.6923 7.32325L20.3106 10.7782C20.4966 10.9556 20.5816 11.2118 20.5378 11.4624L19.6835 16.3407C19.5731 16.9725 20.2499 17.4543 20.8288 17.1558L23.0543 16.0098C23.046 15.9393 23.0476 15.8652 23.0609 15.7889Z" fill="#F4B537"/>
</svg>
