<svg width="51" height="51" viewBox="0 0 51 51" fill="none" xmlns="http://www.w3.org/2000/svg">
<path d="M50.3523 21.9878C49.4536 15.438 45.9899 9.51344 40.723 5.51746C35.4561 1.52148 28.8176 -0.218581 22.2677 0.680071C15.7179 1.57872 9.79335 5.04248 5.79737 10.3093C1.80139 15.5762 0.061326 22.2148 0.959978 28.7646C1.70035 34.1857 4.19158 39.2165 8.05452 43.0914C11.9175 46.9662 16.9406 49.4729 22.3594 50.2299C23.4682 50.3752 24.5853 50.4482 25.7036 50.4486C30.2216 50.456 34.6551 49.2231 38.5207 46.8842C38.792 46.7207 39.0285 46.5055 39.2166 46.2507C39.4047 45.9959 39.5408 45.7065 39.6171 45.3991C39.6934 45.0917 39.7084 44.7723 39.6612 44.4591C39.6141 44.1459 39.5057 43.8451 39.3423 43.5738C39.1788 43.3024 38.9636 43.066 38.7088 42.8779C38.454 42.6897 38.1646 42.5537 37.8572 42.4774C37.2364 42.3233 36.5798 42.4221 36.0319 42.7522C33.2804 44.4037 30.1735 45.3723 26.971 45.577C23.7684 45.7817 20.5635 45.2165 17.6242 43.9287C14.6848 42.6409 12.0966 40.668 10.0761 38.1749C8.05549 35.6819 6.66129 32.7412 6.01009 29.599C5.3589 26.4567 5.46965 23.2041 6.33308 20.1134C7.19651 17.0227 8.78751 14.1837 10.973 11.8339C13.1585 9.48408 15.8749 7.69178 18.895 6.60692C21.9151 5.52205 25.1511 5.17618 28.3323 5.59824C31.287 5.99111 34.1174 7.03634 36.6184 8.6582C39.1193 10.2801 41.2282 12.4379 42.7921 14.9755C44.3561 17.513 45.336 20.3667 45.6609 23.3298C45.9857 26.2928 45.6474 29.291 44.6704 32.1071C44.4169 32.7843 43.9589 33.3658 43.3599 33.7709C42.7609 34.1759 42.0507 34.3845 41.3279 34.3677C40.3752 34.3664 39.462 33.9874 38.7884 33.3138C38.1148 32.6402 37.7358 31.7269 37.7345 30.7743V15.8783C37.7345 15.2387 37.4804 14.6253 37.0281 14.173C36.5759 13.7207 35.9624 13.4667 35.3228 13.4667C34.6832 13.4667 34.0698 13.7207 33.6175 14.173C33.1653 14.6253 32.9112 15.2387 32.9112 15.8783V15.9008C31.0829 14.5209 28.8994 13.6903 26.6163 13.5062C24.3332 13.3221 22.0448 13.7921 20.019 14.8611C17.9933 15.9302 16.3139 17.5541 15.1775 19.5429C14.0411 21.5316 13.4946 23.8029 13.602 26.091C13.7094 28.379 14.4663 30.5891 15.7841 32.4626C17.1018 34.3362 18.926 35.7956 21.043 36.6702C23.16 37.5447 25.4823 37.7983 27.7382 37.401C29.994 37.0038 32.09 35.9723 33.781 34.4272C34.4642 35.8501 35.5345 37.0518 36.8693 37.8944C38.2041 38.737 39.7494 39.1863 41.3279 39.191C43.0534 39.2076 44.7413 38.6865 46.1571 37.6999C47.5729 36.7134 48.6464 35.3105 49.2284 33.686C50.5281 29.9315 50.9134 25.9211 50.3523 21.9878ZM25.6762 32.7599C24.2453 32.7599 22.8465 32.3356 21.6567 31.5406C20.4669 30.7456 19.5396 29.6156 18.992 28.2936C18.4444 26.9716 18.3011 25.5169 18.5803 24.1135C18.8594 22.71 19.5485 21.4209 20.5603 20.409C21.5722 19.3972 22.8613 18.7081 24.2647 18.429C25.6682 18.1498 27.1229 18.2931 28.4449 18.8407C29.7669 19.3883 30.8969 20.3156 31.6919 21.5054C32.4869 22.6952 32.9112 24.094 32.9112 25.5249C32.9091 27.4431 32.1461 29.2821 30.7898 30.6385C29.4334 31.9948 27.5944 32.7578 25.6762 32.7599Z" fill="#F13461"/>
</svg>
