<svg width="48" height="50" viewBox="0 0 48 50" fill="none" xmlns="http://www.w3.org/2000/svg">
<path d="M23.9258 50C37.1396 50 47.8516 38.8071 47.8516 25C47.8516 11.1929 37.1396 0 23.9258 0C10.7119 0 0 11.1929 0 25C0 38.8071 10.7119 50 23.9258 50Z" fill="#E88102"/>
<path d="M23.9258 47.3633C37.0048 47.3633 47.6074 36.7607 47.6074 23.6816C47.6074 10.6026 37.0048 0 23.9258 0C10.8468 0 0.244141 10.6026 0.244141 23.6816C0.244141 36.7607 10.8468 47.3633 23.9258 47.3633Z" fill="#FDD835"/>
<path opacity="0.5" d="M33.3789 1.96289L2.20703 33.125C1.16211 30.7324 0.507812 28.1348 0.3125 25.4102L25.6543 0.0585938C28.3789 0.263672 30.9766 0.917969 33.3789 1.96289Z" fill="white"/>
<path opacity="0.5" d="M44.5605 12.0605L12.3047 44.3164C10.293 43.1836 8.47656 41.7676 6.88477 40.1172L40.3711 6.64062C42.0117 8.22266 43.4277 10.0488 44.5605 12.0605Z" fill="white"/>
<path opacity="0.5" d="M39.4043 5.75195L6.00586 39.1504C5.48828 38.5449 4.99023 37.9102 4.53125 37.2559L37.5098 4.27734C38.1641 4.73633 38.7988 5.23438 39.4043 5.75195Z" fill="white"/>
<path opacity="0.5" d="M46.8652 17.7734L18.0176 46.6211C17.1484 46.3965 16.2988 46.123 15.4688 45.8105L46.0547 15.2246C46.3672 16.0547 46.6406 16.9043 46.8652 17.7734Z" fill="white"/>
<path opacity="0.5" d="M47.6074 23.6816C47.6074 23.8477 47.6074 24.0039 47.5977 24.1699C47.3437 11.3184 36.8457 0.976562 23.9258 0.976562C11.0059 0.976562 0.507813 11.3184 0.253906 24.1699C0.253906 24.0039 0.244141 23.8477 0.244141 23.6816C0.244141 10.6055 10.8496 0 23.9258 0C37.002 0 47.6074 10.6055 47.6074 23.6816Z" fill="white"/>
<path opacity="0.5" d="M43.1641 24.707C43.1641 34.9512 34.8535 43.2617 24.6094 43.2617C18.8574 43.2617 13.7109 40.6348 10.3027 36.5234C13.6914 40.1855 18.5352 42.4805 23.9258 42.4805C34.1699 42.4805 42.4805 34.1699 42.4805 23.9258C42.4805 19.4336 40.8887 15.3223 38.2324 12.1094C41.2891 15.4199 43.1641 19.8438 43.1641 24.707Z" fill="white"/>
<path d="M23.9258 42.4805C34.1733 42.4805 42.4805 34.1733 42.4805 23.9258C42.4805 13.6783 34.1733 5.37109 23.9258 5.37109C13.6783 5.37109 5.37109 13.6783 5.37109 23.9258C5.37109 34.1733 13.6783 42.4805 23.9258 42.4805Z" fill="#F39E09"/>
<path d="M37.9883 11.8164C34.7363 9.01367 30.5078 7.32422 25.8789 7.32422C15.6348 7.32422 7.32422 15.6348 7.32422 25.8789C7.32422 30.5078 9.01367 34.7363 11.8164 37.9883C7.87109 34.5801 5.37109 29.5508 5.37109 23.9258C5.37109 13.6816 13.6816 5.37109 23.9258 5.37109C29.541 5.37109 34.5801 7.87109 37.9883 11.8164Z" fill="#E88102"/>
<path d="M22.7637 19.1992C22.4316 19.5801 22.2559 20.1074 22.2559 20.7813C22.2559 21.4551 22.4512 22.0117 22.8418 22.4121C23.2324 22.8125 23.8574 23.1934 24.7168 23.5645C25.5762 23.9258 26.3867 24.3066 27.1484 24.6973C27.9102 25.0879 28.5645 25.5371 29.1211 26.0352C29.6777 26.5332 30.1074 27.1191 30.4199 27.7832C30.5371 28.0371 30.8887 28.5156 30.8887 28.5156C30.8887 28.5156 30.8887 30.1367 30.8887 30.1855C30.8887 31.7676 30.3906 33.0566 29.3848 34.0527C28.3789 35.0488 27.0215 35.6348 25.293 35.8008V38.5742H23.0859V35.7715C21.0742 35.5566 19.5313 34.873 18.4473 33.7012C17.373 32.5293 16.8359 30.9961 16.8359 29.082V27.6172L21.5039 29.082C21.5039 30.1367 21.7383 30.9375 22.207 31.4844C22.6758 32.0312 23.3398 32.3047 24.1992 32.3047C24.8242 32.3047 25.3223 32.1191 25.6836 31.7383C26.0449 31.3574 26.2207 30.8496 26.2207 30.1953C26.2207 29.4629 26.0449 28.8965 25.6836 28.4766C25.3223 28.0566 24.6875 27.666 23.7891 27.2949C22.8809 26.9238 22.0508 26.5527 21.2793 26.1719C20.5078 25.791 19.8535 25.3516 19.2969 24.8535C18.7402 24.3555 18.3203 23.7793 18.0176 23.125C17.7246 22.4707 17.5781 21.6797 17.5781 20.7422V19.1895C17.5781 19.1895 18.4473 17.5586 19.1602 16.8848C20.2148 15.8691 21.6211 15.2832 23.3691 15.1172V12.207H25.5762V15.1855C27.2656 15.4395 28.5938 16.1328 29.5605 17.2754C30.2246 18.0566 31.0059 20.1562 31.0059 20.1562V21.6211H26.3184C26.3184 20.6641 26.1328 19.9219 25.7617 19.4043C25.3906 18.8867 24.8633 18.6328 24.1797 18.6328C23.5742 18.623 23.1055 18.8184 22.7637 19.1992Z" fill="#DB6704"/>
<path d="M26.2207 28.7402C26.2207 28.0078 26.0449 27.4414 25.6836 27.0215C25.3223 26.6016 24.6875 26.2109 23.7891 25.8398C22.8809 25.4688 22.0508 25.0977 21.2793 24.7168C20.5078 24.3359 19.8535 23.8965 19.2969 23.3984C18.7402 22.9004 18.3203 22.3242 18.0176 21.6699C17.7246 21.0156 17.5781 20.2148 17.5781 19.2871C17.5781 17.7246 18.1055 16.4355 19.1602 15.4297C20.2148 14.4238 21.6211 13.8281 23.3691 13.6621V10.7422H25.5762V13.7207C27.2656 13.9746 28.5938 14.668 29.5605 15.8105C30.5273 16.9531 31.0059 18.3984 31.0059 20.1562H26.3184C26.3184 19.1992 26.1328 18.457 25.7617 17.9395C25.3906 17.4219 24.8633 17.168 24.1797 17.168C23.5742 17.168 23.0957 17.3633 22.7637 17.7441C22.4316 18.125 22.2559 18.6523 22.2559 19.3262C22.2559 20 22.4512 20.5566 22.8418 20.957C23.2324 21.3574 23.8574 21.7383 24.707 22.1094C25.5664 22.4707 26.377 22.8516 27.1387 23.2422C27.9004 23.6328 28.5547 24.082 29.1113 24.5801C29.668 25.0781 30.0977 25.6641 30.4102 26.3281C30.7227 26.9922 30.8789 27.793 30.8789 28.7207C30.8789 30.3027 30.3809 31.5918 29.375 32.5879C28.3691 33.584 27.0117 34.1699 25.2832 34.3359V37.1094H23.0762V34.3066C21.0645 34.0918 19.5215 33.4082 18.4375 32.2363C17.3633 31.0645 16.8262 29.5312 16.8262 27.6172H21.4941C21.4941 28.6719 21.7285 29.4727 22.1973 30.0195C22.666 30.5664 23.3301 30.8398 24.1895 30.8398C24.8145 30.8398 25.3125 30.6543 25.6738 30.2734C26.0352 29.8926 26.2207 29.3945 26.2207 28.7402Z" fill="#FDD835"/>
<path opacity="0.5" d="M19.1602 15.4297C19.7266 14.8828 20.4004 14.4629 21.1719 14.1602L17.8613 17.4805C18.1152 16.6992 18.5449 16.0254 19.1602 15.4297Z" fill="white"/>
<path opacity="0.5" d="M24.5898 10.7422L23.3691 11.9629V10.7422H24.5898Z" fill="white"/>
<path opacity="0.5" d="M30.3809 26.2402L22.4023 34.2187C20.7227 33.9355 19.4043 33.2715 18.457 32.2461C17.8418 31.5723 17.4023 30.7812 17.1387 29.873L19.3848 27.627H21.5137C21.5137 28.6816 21.748 29.4824 22.2168 30.0293C22.6855 30.5762 23.3496 30.8496 24.209 30.8496C24.834 30.8496 25.332 30.6641 25.6934 30.2832C26.0547 29.9023 26.2305 29.3945 26.2305 28.7402C26.2305 28.0078 26.0547 27.4414 25.6934 27.0215C25.332 26.6016 24.6973 26.2109 23.7988 25.8398C23.1543 25.5762 22.5488 25.3125 21.9727 25.0391L24.8633 22.1484C25.6738 22.5 26.4355 22.8516 27.1582 23.2227C27.9199 23.6133 28.5742 24.0625 29.1309 24.5605C29.6582 25.0488 30.0781 25.6055 30.3809 26.2402Z" fill="white"/>
<path opacity="0.5" d="M31.0059 20.1465H26.8555L30.2246 16.7773C30.7422 17.7344 31.0059 18.8574 31.0059 20.1465Z" fill="white"/>
<path opacity="0.5" d="M16.8457 27.6172H17.5391L16.875 28.2813C16.8555 28.0664 16.8457 27.8418 16.8457 27.6172Z" fill="white"/>
<path opacity="0.5" d="M22.8418 20.9473C23.0371 21.1523 23.291 21.3477 23.6133 21.543L20.7227 24.4336C20.1855 24.1309 19.707 23.7891 19.2969 23.4082C19.1309 23.2617 18.9844 23.1055 18.8477 22.9492L22.2754 19.5215C22.3047 20.1074 22.5 20.5859 22.8418 20.9473Z" fill="white"/>
<path opacity="0.5" d="M29.4629 15.6934L26.2012 18.9551C26.1133 18.5547 25.9668 18.2129 25.7715 17.9395C25.4785 17.5293 25.0879 17.2852 24.5996 17.1973L27.5195 14.2773C28.2715 14.6191 28.916 15.0879 29.4629 15.6934Z" fill="white"/>
<path opacity="0.5" d="M24.1602 37.1094L25.293 35.9766V37.1094H24.1602Z" fill="white"/>
<path opacity="0.5" d="M30.5859 30.6836C30.3418 31.4063 29.9414 32.0312 29.3945 32.5781C28.8477 33.125 28.1934 33.5449 27.4316 33.8379L30.5859 30.6836Z" fill="white"/>
<path opacity="0.25" d="M39.4043 13.6816C27.3926 17.9004 17.7441 27.168 13.0176 38.9355C12.6074 38.6328 12.207 38.3203 11.8164 37.9785C9.01367 34.7266 7.32422 30.498 7.32422 25.8789C7.32422 15.6348 15.6348 7.32422 25.8789 7.32422C30.5078 7.32422 34.7363 9.01367 37.9785 11.8164C38.4961 12.4121 38.9648 13.0371 39.4043 13.6816Z" fill="white"/>
</svg>
