<svg width="51" height="50" viewBox="0 0 51 50" fill="none" xmlns="http://www.w3.org/2000/svg">
<path d="M23.7506 50V39.2734C21.0643 39.3758 18.4038 39.7546 15.8723 40.3825C16.28 41.3676 16.7262 42.3112 17.2093 43.202C19.1376 46.7552 21.5339 49.2112 23.7506 50Z" fill="#FFC42A"/>
<path d="M33.2483 43.202C33.7314 42.3116 34.1776 41.3676 34.5853 40.3825C32.0538 39.7546 29.3933 39.3758 26.707 39.2734V50C28.9236 49.2112 31.32 46.7552 33.2483 43.202Z" fill="#FFC42A"/>
<path d="M23.7507 36.315V26.478H12.9702C13.105 30.3184 13.7602 34.1365 14.8573 37.593C17.7133 36.8604 20.7207 36.4227 23.7507 36.315Z" fill="#FFC42A"/>
<path d="M23.7507 23.522V13.685C20.7207 13.5772 17.7133 13.1395 14.8573 12.4073C13.7602 15.8639 13.105 19.6816 12.9702 23.522H23.7507Z" fill="#FFC42A"/>
<path d="M37.4444 8.78368C39.2425 8.17737 40.9472 7.4394 42.5147 6.58132C39.7622 3.9963 36.4327 2.01836 32.7417 0.866943C33.8473 2.11614 34.8933 3.63135 35.8464 5.38794C36.4319 6.46621 36.9647 7.60185 37.4444 8.78368Z" fill="#FFC42A"/>
<path d="M17.2093 6.79804C16.7262 7.68884 16.28 8.63238 15.8723 9.6175C18.4038 10.2454 21.0643 10.6242 23.7506 10.7266V0C21.5339 0.788787 19.1376 3.24484 17.2093 6.79804Z" fill="#FFC42A"/>
<path d="M26.707 26.478V36.315C29.7375 36.4231 32.7444 36.8604 35.6004 37.593C36.6976 34.1365 37.3528 30.3184 37.4879 26.478H26.707Z" fill="#FFC42A"/>
<path d="M26.707 13.685V23.522H37.4875C37.3528 19.6816 36.6976 15.8639 35.6004 12.4073C32.7444 13.1395 29.7375 13.5772 26.707 13.685Z" fill="#FFC42A"/>
<path d="M12.0112 38.4384C10.8294 34.7174 10.1426 30.6449 10.0105 26.478H0C0.323753 32.0638 2.46953 37.168 5.85065 41.2047C7.73388 40.1118 9.80998 39.1841 12.0112 38.4384Z" fill="#FFC42A"/>
<path d="M37.4444 41.2163C36.9643 42.3981 36.4316 43.5338 35.8464 44.6124C34.8933 46.369 33.8473 47.8838 32.7417 49.133C36.4327 47.9816 39.7622 46.0037 42.5151 43.4187C40.9472 42.5606 39.2425 41.8226 37.4444 41.2163Z" fill="#FFC42A"/>
<path d="M13.0132 41.2163C11.215 41.8226 9.51044 42.5606 7.94287 43.4187C10.6953 46.0041 14.0249 47.9816 17.7159 49.1334C16.6107 47.8838 15.5647 46.369 14.6112 44.6124C14.0257 43.5338 13.4929 42.3981 13.0132 41.2163Z" fill="#FFC42A"/>
<path d="M38.4465 11.5616C39.6284 15.2826 40.3151 19.3552 40.4472 23.522H50.4577C50.134 17.9362 47.9882 12.8324 44.6071 8.79565C42.7238 9.88856 40.6477 10.8159 38.4465 11.5616Z" fill="#FFC42A"/>
<path d="M38.4465 38.4384C40.6477 39.1841 42.7238 40.1115 44.6071 41.2044C47.9882 37.1676 50.134 32.0634 50.4577 26.478H40.4472C40.3151 30.6449 39.6284 34.7174 38.4465 38.4384Z" fill="#FFC42A"/>
<path d="M26.707 0V10.7266C29.3933 10.6242 32.0538 10.2454 34.5853 9.61789C34.1776 8.63238 33.7318 7.68884 33.2483 6.79804C31.32 3.24484 28.9236 0.788787 26.707 0Z" fill="#FFC42A"/>
<path d="M12.0112 11.5616C9.80998 10.8159 7.73388 9.88856 5.85065 8.79565C2.46915 12.8324 0.323753 17.9366 0 23.522H10.0105C10.1426 19.3552 10.8294 15.2826 12.0112 11.5616Z" fill="#FFC42A"/>
<path d="M13.0133 8.78368C13.4934 7.60185 14.0262 6.46621 14.6113 5.38794C15.5645 3.63097 16.6104 2.11614 17.716 0.866943C14.025 2.01836 10.6955 3.9963 7.94263 6.58132C9.51058 7.4394 11.2152 8.17737 13.0133 8.78368Z" fill="#FFC42A"/>
</svg>
