<svg width="30" height="30" viewBox="0 0 30 30" fill="none" xmlns="http://www.w3.org/2000/svg">
<path d="M3.52768 19.5144L0.0331632 23.0089C-0.025607 23.0649 -0.00363407 23.1662 0.078281 23.1906L4.287 24.469C4.88408 24.6507 5.34932 25.1159 5.5309 25.7129L6.80938 29.9217C6.83363 30.0036 6.935 30.0255 6.99102 29.9668L11.6667 25.2911C8.20726 24.4317 5.35119 22.275 3.52768 19.5144Z" fill="#C2D932"/>
<path d="M29.9672 23.0089L26.4727 19.5144C24.6622 22.2552 21.8149 24.4263 18.3335 25.2911L23.0092 29.9668C23.0652 30.0256 23.1666 30.0036 23.1909 29.9217L24.4693 25.713C24.651 25.1159 25.1162 24.6507 25.7133 24.4691L29.922 23.1906C30.0042 23.1662 30.0258 23.0648 29.9672 23.0089Z" fill="#C2D932"/>
<path d="M26.9691 11.9688C26.9691 5.36948 21.6002 0 15.0003 0C8.40039 0 3.03149 5.36948 3.03149 11.9688C3.03149 17.9358 7.42485 22.909 13.1611 23.797C20.4272 24.9272 26.9691 19.2716 26.9691 11.9688ZM5.67053 14.8856C3.69666 8.57489 8.44832 2.19548 15.0003 2.19548C22.3195 2.19548 27.1572 10.0617 23.5894 16.631C19.4706 24.1868 8.26286 23.1313 5.67053 14.8856Z" fill="#C2D932"/>
<path d="M15.0003 3.95325C10.5806 3.95325 6.98413 7.54913 6.98413 11.9688C6.98413 18.4711 14.3563 22.2631 19.6355 18.5048C20.7667 17.702 21.6878 16.6044 22.2804 15.322C24.7432 10.0201 20.8172 3.95325 15.0003 3.95325ZM19.0461 10.8444C18.946 10.9187 14.0761 14.5332 14.0481 14.554C13.6964 14.8161 13.196 14.781 12.8832 14.4497C10.6463 12.0657 10.8252 12.2561 10.7716 12.1997C10.3957 11.7995 10.4741 11.152 10.9444 10.8544C10.945 10.8539 10.9456 10.8533 10.9462 10.8533C11.2954 10.6341 11.7612 10.6851 12.0536 10.9968C12.5266 11.501 12.2082 11.1617 13.6292 12.6755C13.7823 12.5613 15.5846 11.2243 18.064 9.38431C18.4537 9.09485 19.0045 9.1763 19.2933 9.56595C19.558 9.92127 19.5571 10.4658 19.0461 10.8444Z" fill="#C2D932"/>
</svg>
