<svg width="53" height="50" viewBox="0 0 53 50" fill="none" xmlns="http://www.w3.org/2000/svg">
<path d="M1.47076 32.353H7.35274C8.16486 32.353 8.8235 33.0111 8.8235 33.8233V48.5293C8.8235 49.3414 8.16486 50 7.35274 50H1.47076C0.658639 50 0 49.3414 0 48.5293V33.8233C0 33.0111 0.658639 32.353 1.47076 32.353Z" fill="#C2D932"/>
<path d="M16.1763 20.5879H22.0588C22.8709 20.5879 23.5296 21.2465 23.5296 22.0587V48.5291C23.5296 49.3413 22.8709 49.9999 22.0588 49.9999H16.1763C15.3642 49.9999 14.7061 49.3413 14.7061 48.5291V22.0587C14.7061 21.2465 15.3642 20.5879 16.1763 20.5879Z" fill="#C2D932"/>
<path d="M30.8824 26.4705H36.7649C37.577 26.4705 38.2351 27.1291 38.2351 27.9412V48.5292C38.2351 49.3413 37.577 50 36.7649 50H30.8824C30.0703 50 29.4116 49.3413 29.4116 48.5292V27.9412C29.4116 27.1291 30.0703 26.4705 30.8824 26.4705Z" fill="#C2D932"/>
<path d="M45.5884 17.647H51.4704C52.2825 17.647 52.9412 18.3056 52.9412 19.1177V48.5292C52.9412 49.3413 52.2825 50 51.4704 50H45.5884C44.7763 50 44.1177 49.3413 44.1177 48.5292V19.1177C44.1177 18.3056 44.7763 17.647 45.5884 17.647Z" fill="#C2D932"/>
<path d="M48.5292 0C46.0939 0.00269271 44.1202 1.97645 44.1175 4.41175C44.1234 4.89213 44.2085 5.3682 44.3695 5.82058L37.0076 10.1968C36.0415 9.17194 34.6407 8.6754 33.2448 8.86227C31.8484 9.04915 30.628 9.89682 29.9651 11.1398L23.4719 7.92359C23.5037 7.73456 23.5225 7.54392 23.5295 7.35274C23.5327 5.56692 22.4594 3.9556 20.8104 3.27004C19.1614 2.58501 17.2619 2.96145 15.9991 4.2238C14.7356 5.48614 14.3581 7.38505 15.0426 9.03461L6.61978 15.3205C5.95198 14.9225 5.18941 14.7103 4.41175 14.706C1.97538 14.706 0 16.6808 0 19.1178C0 21.5541 1.97538 23.5295 4.41175 23.5295C6.84812 23.5295 8.8235 21.5541 8.8235 19.1178C8.81973 18.5868 8.71956 18.0617 8.52784 17.5668L17.0347 11.2179C18.6988 12.1458 20.7743 11.8738 22.1428 10.5479L29.5267 14.2052C30.019 16.3976 32.0821 17.8689 34.3155 17.6201C36.5488 17.3713 38.2377 15.4826 38.235 13.2352C38.235 13.1232 38.2102 13.0177 38.2021 12.9078L46.2092 8.14763C46.9034 8.58654 47.7074 8.82081 48.5292 8.8235C50.9656 8.8235 52.941 6.84812 52.941 4.41175C52.941 1.97538 50.9656 0 48.5292 0Z" fill="#C2D932"/>
</svg>
