<svg width="51" height="50" viewBox="0 0 51 50" fill="none" xmlns="http://www.w3.org/2000/svg">
<path d="M26.5234 9.71423L2.56153 33.6761C1.67857 34.5607 1.12054 35.7178 0.978042 36.9595L0.0232938 45.3426C-0.0389422 45.9322 0.0238742 46.5282 0.207641 47.0918C0.391408 47.6554 0.691992 48.1738 1.08976 48.6134C1.48753 49.0529 1.97354 49.4036 2.51605 49.6425C3.05856 49.8814 3.64537 50.0032 4.23816 49.9999H4.72717L13.1103 49.0452C14.3471 48.9021 15.5017 48.3535 16.3937 47.485L40.3556 23.4999L26.5234 9.71423Z" fill="#2C3DDF"/>
<path d="M48.4592 7.6883L42.3815 1.61051C41.873 1.10005 41.2688 0.695012 40.6034 0.41864C39.9381 0.142268 39.2247 0 38.5043 0C37.7838 0 37.0704 0.142268 36.4051 0.41864C35.7397 0.695012 35.1355 1.10005 34.627 1.61051L28.9917 7.24585L42.8239 21.0781L48.4592 15.4427C48.9697 14.9343 49.3747 14.3301 49.6511 13.6647C49.9275 12.9993 50.0698 12.286 50.0698 11.5655C50.0698 10.845 49.9275 10.1317 49.6511 9.46631C49.3747 8.80096 48.9697 8.19673 48.4592 7.6883Z" fill="#2C3DDF"/>
</svg>
