<svg width="45" height="50" viewBox="0 0 45 50" fill="none" xmlns="http://www.w3.org/2000/svg">
<path d="M42.6693 20.7596L23.1685 1.25594C22.0184 0.108672 20.1579 0.122247 19.0229 1.25448C17.8814 2.39891 17.8814 4.25712 19.0229 5.40009L38.5265 24.9024C39.6691 26.045 41.5266 26.045 42.6693 24.9024C43.815 23.7567 43.815 21.9051 42.6693 20.7596Z" fill="#CBC534"/>
<path d="M17.576 8.09619L17.4293 8.83194C16.3954 14.0036 13.8827 18.9168 10.4841 22.899L21.0942 33.509C25.0759 30.1112 29.9214 27.531 35.0933 26.4958L35.8304 26.3491L17.576 8.09619Z" fill="#CBC534"/>
<path d="M8.539 25.0967L1.28771 32.3465C-0.425671 34.0599 -0.4328 36.8415 1.28771 38.562L5.43049 42.7048C7.14388 44.4182 9.92552 44.4252 11.646 42.7048L18.8966 35.4542L8.539 25.0967ZM9.57474 36.4907C9.00257 37.0629 8.07552 37.0629 7.50335 36.4907C6.93118 35.9186 6.93118 34.9915 7.50335 34.4194L9.57474 32.348C10.1469 31.7758 11.074 31.7758 11.6461 32.348C12.2183 32.9201 12.2183 33.8472 11.6461 34.4194L9.57474 36.4907Z" fill="#CBC534"/>
<path d="M25.0128 43.4843L27.0054 41.4916C28.7261 39.7713 28.7204 36.9897 27.0055 35.2777L25.5255 33.7965C24.7074 34.346 23.9261 34.9431 23.1666 35.5802L24.9341 37.3504C25.505 37.9183 25.509 38.8425 24.9341 39.4203L22.9086 41.4459L19.9318 38.5619L15.7888 42.7048L22.435 49.145C23.5692 50.2821 25.4314 50.2885 26.5763 49.1435C27.7193 48.0005 27.7193 46.1423 26.5763 44.9993L25.0128 43.4843Z" fill="#CBC534"/>
<path d="M30.9304 0C30.1208 0 29.4656 0.655177 29.4656 1.46485V4.39454C29.4656 5.20421 30.1208 5.85939 30.9304 5.85939C31.7401 5.85939 32.3953 5.20421 32.3953 4.39454V1.46485C32.3953 0.655177 31.7401 0 30.9304 0Z" fill="#CBC534"/>
<path d="M42.6494 11.7188H39.7197C38.9101 11.7188 38.2549 12.3739 38.2549 13.1836C38.2549 13.9933 38.9101 14.6484 39.7197 14.6484H42.6494C43.4591 14.6484 44.1143 13.9933 44.1143 13.1836C44.1143 12.3739 43.4591 11.7188 42.6494 11.7188Z" fill="#CBC534"/>
<path d="M40.7552 3.35881C40.183 2.78665 39.2559 2.78665 38.6838 3.35881L35.7541 6.28851C35.1819 6.86068 35.1819 7.78773 35.7541 8.3599C36.3262 8.93207 37.2533 8.93217 37.8255 8.3599L40.7552 5.43021C41.3273 4.85804 41.3273 3.93098 40.7552 3.35881Z" fill="#CBC534"/>
</svg>
