<svg width="50" height="50" viewBox="0 0 50 50" fill="none" xmlns="http://www.w3.org/2000/svg">
<path d="M26.5691 28.0338C34.2981 28.0338 40.586 21.7458 40.586 14.0169C40.586 6.28799 34.2981 0 26.5691 0C18.8401 0 12.5522 6.28799 12.5522 14.0169C12.5522 21.7458 18.8402 28.0338 26.5691 28.0338ZM25.1043 7.90693V7.74092C25.1043 6.93193 25.7602 6.27607 26.5691 6.27607C27.3781 6.27607 28.034 6.93193 28.034 7.74092V7.84502H28.1382C28.9472 7.84502 29.603 8.50088 29.603 9.30986C29.603 10.1188 28.9472 10.7747 28.1382 10.7747H25.7846C25.2945 10.7747 24.8959 11.1733 24.8959 11.6635C24.8959 12.1535 25.2945 12.5521 25.7846 12.5521H27.3537C29.4593 12.5521 31.1722 14.265 31.1722 16.3706C31.1722 18.2437 29.816 19.8051 28.0341 20.1271V20.2931C28.0341 21.1021 27.3782 21.7579 26.5692 21.7579C25.7603 21.7579 25.1044 21.1021 25.1044 20.2931V20.189H25.0002C24.1912 20.189 23.5354 19.5331 23.5354 18.7241C23.5354 17.9151 24.1912 17.2593 25.0002 17.2593H27.3537C27.8438 17.2593 28.2425 16.8606 28.2425 16.3706C28.2425 15.8805 27.8438 15.4818 27.3537 15.4818H25.7848C23.6793 15.4818 21.9664 13.7689 21.9664 11.6635C21.9664 9.79023 23.3226 8.22891 25.1043 7.90693Z" fill="#903CD3"/>
<path d="M46.0519 9.05116L49.1899 7.48212C49.9136 7.1204 50.2068 6.24052 49.845 5.51689C49.4832 4.79325 48.6035 4.49999 47.8798 4.86171L44.7417 6.43075C44.0181 6.79247 43.7248 7.67235 44.0866 8.39599C44.4498 9.12235 45.3311 9.41132 46.0519 9.05116Z" fill="#903CD3"/>
<path d="M49.1899 20.5517L46.0519 18.9827C45.3286 18.6212 44.4484 18.9142 44.0866 19.6379C43.7248 20.3615 44.0181 21.2414 44.7417 21.6031L47.8798 23.1721C48.6024 23.5333 49.4827 23.2415 49.845 22.517C50.2068 21.7933 49.9136 20.9134 49.1899 20.5517Z" fill="#903CD3"/>
<path d="M8.39649 6.43085L5.2584 4.86171C4.53467 4.49999 3.65499 4.79325 3.29317 5.51689C2.93135 6.24052 3.22461 7.1204 3.94825 7.48212L7.08633 9.05116C7.80713 9.41142 8.68838 9.12245 9.05157 8.39599C9.41338 7.67235 9.12012 6.79257 8.39649 6.43085Z" fill="#903CD3"/>
<path d="M7.08633 18.9827L3.94825 20.5517C3.22461 20.9134 2.93135 21.7933 3.29317 22.517C3.65547 23.2415 4.53575 23.5333 5.2584 23.1721L8.39649 21.6031C9.12012 21.2414 9.41338 20.3615 9.05157 19.6379C8.68975 18.9142 7.80957 18.6212 7.08633 18.9827Z" fill="#903CD3"/>
<path d="M39.6327 32.153L32.5479 39.2379C31.6775 40.1075 30.5222 40.5859 29.294 40.5859H23.9778C23.1891 40.5859 22.5104 39.9797 22.4732 39.1918C22.4336 38.3506 23.1039 37.6562 23.9364 37.6562H28.6802C30.4133 37.6562 31.8182 36.2512 31.8182 34.5182C31.8182 32.7852 30.4133 31.3802 28.6802 31.3802H19.1263C14.6824 31.3802 13.2744 35.1236 13.041 36.0872H10.7744V46.8619H30.974C32.7955 46.8619 34.5085 46.1524 35.7976 44.8638L46.4326 34.2284C46.9893 33.6718 47.0229 32.7455 46.4255 32.1496C44.478 30.2071 41.4552 30.3305 39.6327 32.153Z" fill="#903CD3"/>
<path d="M6.38027 32.9492H1.46484C0.655859 32.9492 0 33.6051 0 34.4141V48.5352C0 49.3441 0.655859 50 1.46484 50H6.38018C7.18916 50 7.84502 49.3441 7.84502 48.5352V34.4141C7.84512 33.6051 7.18926 32.9492 6.38027 32.9492Z" fill="#903CD3"/>
</svg>
