<svg width="51" height="50" viewBox="0 0 51 50" fill="none" xmlns="http://www.w3.org/2000/svg">
<path d="M26.9193 34.5651L19.2671 42.2175C19.2671 42.2175 19.2671 42.2177 19.2669 42.2177C19.2669 42.2177 19.2669 42.2179 19.2668 42.2179C16.1023 45.3825 10.9531 45.3827 7.78837 42.2179C6.25523 40.6847 5.4111 38.6464 5.4111 36.4785C5.4111 34.3108 6.25523 32.2728 7.78783 30.7397C7.78801 30.7395 7.78819 30.7393 7.78837 30.7391L15.4406 23.0868C16.497 22.0302 16.497 20.317 15.4404 19.2606C14.384 18.2042 12.6708 18.2042 11.6142 19.2606L3.96201 26.913C3.96146 26.9135 3.96092 26.9142 3.96038 26.9148C1.40652 29.4695 0 32.8661 0 36.4785C0 40.0919 1.40707 43.4889 3.96219 46.0441C6.59955 48.6813 10.0636 49.9999 13.5277 49.9999C16.9919 49.9999 20.4561 48.6813 23.0931 46.0441C23.0933 46.0441 23.0933 46.0437 23.0933 46.0437L30.7455 38.3913C31.8019 37.3349 31.8019 35.6218 30.7453 34.5651C29.6891 33.5087 27.9761 33.5087 26.9193 34.5651Z" fill="#4BC270"/>
<path d="M50.0126 13.5213C50.0126 9.90792 48.6054 6.51084 46.0502 3.95572C40.7757 -1.31866 32.1935 -1.31848 26.9193 3.95572C26.9191 3.95608 26.9188 3.95626 26.9186 3.95662L19.2666 11.6084C18.21 12.6649 18.21 14.3782 19.2666 15.4346C19.7951 15.9631 20.4873 16.2272 21.1798 16.2272C21.872 16.2272 22.5646 15.9629 23.0928 15.4346L30.7448 7.7828C30.745 7.78244 30.7453 7.78226 30.7457 7.7819C33.9101 4.61749 39.0593 4.61731 42.2241 7.7819C43.757 9.31505 44.6015 11.3534 44.6015 13.5213C44.6015 15.689 43.7574 17.727 42.2246 19.2601L42.2241 19.2606L34.5719 26.913C33.5154 27.9694 33.5154 29.6826 34.572 30.7392C35.1003 31.2675 35.7928 31.5317 36.485 31.5317C37.1775 31.5317 37.8699 31.2675 38.3982 30.7392L46.0504 23.0868C46.051 23.0863 46.0515 23.0856 46.052 23.085C48.6059 20.5303 50.0126 17.1337 50.0126 13.5213Z" fill="#4BC270"/>
<path d="M15.4409 34.5653C15.9692 35.0936 16.6616 35.3579 17.3539 35.3579C18.0463 35.3579 18.7388 35.0936 19.2671 34.5653L34.5718 19.2606C35.6284 18.2042 35.6284 16.491 34.5718 15.4344C33.5154 14.378 31.8022 14.378 30.7456 15.4344L15.4409 30.739C14.3843 31.7958 14.3843 33.5089 15.4409 34.5653Z" fill="#4BC270"/>
</svg>
