<svg width="45" height="50" viewBox="0 0 45 50" fill="none" xmlns="http://www.w3.org/2000/svg">
<path d="M22.4647 50L21.5679 49.7758C-1.97472 40.1345 0.0432157 9.64126 0.0432157 9.19282L0.267431 7.17489H2.28537C12.5993 7.17489 21.1194 0.896861 21.1194 0.896861L22.4647 0L23.81 0.896861C23.81 0.896861 32.3302 7.17489 42.6441 7.17489H44.662L44.8863 9.19282C44.8863 9.41704 46.9042 40.1345 23.3616 49.5516L22.4647 50ZM4.52752 11.6592C4.52752 17.9372 5.87281 37.8924 22.4647 45.2915C39.0567 38.1166 40.402 18.1614 40.402 11.6592C32.106 10.9865 25.1553 7.17489 22.4647 5.38117C19.7742 7.17489 12.8235 10.9865 4.52752 11.6592Z" fill="#5E8CDA"/>
<path d="M22.465 40.807C7.66677 34.529 9.01207 14.1254 9.01207 14.1254C16.4112 14.1254 22.465 9.41687 22.465 9.41687C22.465 9.41687 28.5188 14.1254 35.9179 14.1254C35.9179 14.1254 37.2632 34.529 22.465 40.807Z" fill="#5E8CDA"/>
</svg>
