<svg width="61" height="50" viewBox="0 0 61 50" fill="none" xmlns="http://www.w3.org/2000/svg">
<path d="M0.962348 21.8871C1.62272 22.9659 2.58264 23.8297 3.72552 24.3731C4.26748 24.6308 4.49782 25.2796 4.23961 25.822C3.98141 26.3639 3.33264 26.5943 2.79069 26.3361C2.35601 26.1257 1.93991 25.8796 1.5461 25.6C2.73821 29.1341 6.04984 31.516 9.77989 31.522H9.84491C9.78222 30.922 9.76828 30.3183 9.80265 29.7164C10.2842 23.9203 15.1697 19.4853 20.9854 19.5651H27.1712C27.7716 19.5651 28.2579 19.0784 28.2579 18.4784C28.2579 16.6775 29.7179 15.2174 31.5189 15.2174H34.7799C35.3804 15.2174 35.8666 15.7041 35.8666 16.3046C35.8666 16.9046 35.3804 17.3913 34.7799 17.3913H31.5189C30.9184 17.3913 30.4322 17.878 30.4322 18.4784C30.4322 20.2794 28.9721 21.739 27.1712 21.739H20.9854C16.3158 21.6568 12.3791 25.202 11.9733 29.8544C11.9203 30.6773 11.9839 31.5034 12.1623 32.3087C12.2092 32.5261 12.2644 32.7304 12.3267 32.9361C12.3383 32.9761 12.3503 33.0174 12.3633 33.0578C12.4307 33.2751 12.5059 33.4818 12.5895 33.6871L12.6155 33.7488C13.6576 36.2422 15.7906 38.116 18.3973 38.8284L18.4767 38.8488C18.6755 38.9013 18.8775 38.9445 19.0818 38.9826C19.184 39.0012 19.2885 39.0151 19.3916 39.0304C19.5397 39.0523 19.6865 39.075 19.8365 39.0894C20.1049 39.114 20.3798 39.1307 20.6492 39.1307C23.3998 39.1233 25.9851 37.817 27.6235 35.6078C27.1085 35.279 26.6144 34.9196 26.143 34.5318C25.6814 34.1477 25.6182 33.4623 26.0023 33.0007C26.3859 32.5391 27.0713 32.4759 27.5329 32.86C30.5362 35.3584 34.5026 36.3764 38.3381 35.6329C42.1736 34.8889 45.4718 32.462 47.3233 29.0217C46.74 28.229 46.2956 27.3429 46.0091 26.4011C45.8433 25.8276 46.1711 25.2271 46.7437 25.0571C47.3159 24.8867 47.9187 25.2104 48.0928 25.7816C48.9352 28.639 51.6069 30.5626 54.5842 30.4548C57.5615 30.3471 60.0873 28.2355 60.7208 25.3246C61.3547 22.4138 59.9355 19.4435 57.2721 18.1079C57.1337 18.7399 56.948 19.3608 56.7167 19.9654C56.4985 20.5246 55.8678 20.8014 55.3082 20.5826C54.7486 20.3644 54.4723 19.7332 54.6905 19.1741C55.0319 18.2955 55.2562 17.376 55.357 16.4393C55.3746 16.2893 55.3853 16.149 55.396 16.0046C55.4145 15.7422 55.4322 15.4817 55.4322 15.2174C55.4322 10.5047 52.389 6.33162 47.9015 4.89152C48.2433 5.40839 48.547 5.94988 48.8103 6.51088C48.9914 6.86614 48.9631 7.29246 48.7369 7.62079C48.5108 7.94912 48.1225 8.12745 47.726 8.08519C47.3294 8.04246 46.988 7.78612 46.8362 7.41738C44.4612 2.32617 38.6079 -0.129104 33.3115 1.74475C32.5099 2.0206 31.7441 2.3898 31.0289 2.84444C30.5255 3.17231 29.8522 3.0302 29.5243 2.52726C29.1964 2.02431 29.3385 1.35047 29.8419 1.02261C30.0059 0.913936 30.1777 0.820592 30.3463 0.720746C28.0442 -0.372449 25.3433 -0.214089 23.1852 1.14149C23.6891 1.58685 24.1396 2.08933 24.5278 2.63918C24.7596 2.95729 24.8009 3.37572 24.6365 3.7333C24.4721 4.09089 24.127 4.33191 23.7346 4.36256C23.3422 4.39368 22.9637 4.20978 22.745 3.88238C22.2323 3.15188 21.5756 2.5333 20.8159 2.06518H20.8057C17.9761 0.305574 14.2725 0.984525 12.2514 3.63392C12.6815 3.75652 13.1013 3.91303 13.5072 4.10204C13.8671 4.26318 14.1118 4.60637 14.1466 4.99926C14.181 5.39214 14.0004 5.77295 13.6739 5.99446C13.3474 6.21552 12.9267 6.24292 12.5742 6.06505C10.8141 5.23331 8.77447 5.23099 7.01254 6.05948C5.25107 6.8875 3.95122 8.45949 3.46871 10.3459C4.05339 10.1234 4.65989 9.96508 5.27847 9.87405C5.87337 9.78907 6.42415 10.2028 6.50867 10.7973C6.59319 11.3917 6.17987 11.9425 5.58498 12.027C4.59116 12.17 3.64425 12.542 2.81902 13.1142L2.80462 13.1262C-0.0268222 15.0823 -0.841843 18.9075 0.947023 21.8477C0.953524 21.863 0.955846 21.876 0.962348 21.8871Z" fill="#8FD13A"/>
<path d="M46.1931 42.3913C51.8866 42.3913 56.519 38.7351 56.519 34.2393C56.5171 33.6133 56.4238 32.9905 56.2417 32.3914C53.6564 32.9803 50.9439 32.3464 48.8875 30.6718C46.3444 34.8634 41.9484 37.5843 37.0625 37.9902C38.6377 40.1952 41.0215 41.6873 43.6932 42.1406C44.5152 42.3105 45.3534 42.3946 46.1931 42.3913Z" fill="#8FD13A"/>
<path d="M34.5626 37.9739C33.0347 37.8397 31.5356 37.4766 30.1155 36.8956C30.076 36.891 30.037 36.8831 29.9985 36.8728C29.8898 36.8264 29.7811 36.7707 29.6725 36.7228C29.6288 36.7033 29.5819 36.6903 29.5387 36.6694C29.1612 37.2012 28.7362 37.6976 28.269 38.1523C28.3276 39.9063 29.7639 41.2995 31.5189 41.3046C32.4904 41.2837 33.4229 41.6877 34.0722 42.4108L40.3592 49.6122C40.5831 49.856 40.8979 49.9968 41.2286 50C41.8671 50.0019 42.3863 49.4864 42.3886 48.8478V44.0501C39.0152 43.2699 36.1541 41.0487 34.5626 37.9739Z" fill="#8FD13A"/>
</svg>
