<svg width="48" height="50" viewBox="0 0 48 50" fill="none" xmlns="http://www.w3.org/2000/svg">
<path d="M30.072 34.0809C39.459 34.0809 47.0687 26.4516 47.0687 17.0404C47.0687 7.62926 39.459 0 30.072 0C20.6849 0 13.0752 7.62926 13.0752 17.0404C13.0752 26.4516 20.6849 34.0809 30.072 34.0809Z" fill="#FF5781"/>
<path d="M30.0722 0C29.3913 0 28.7201 0.0413086 28.0601 0.119434C36.4986 1.11738 43.0448 8.31191 43.0448 17.0404C43.0448 25.7689 36.4986 32.9635 28.0601 33.9614C28.72 34.0395 29.3912 34.0809 30.0722 34.0809C39.4593 34.0809 47.069 26.4516 47.069 17.0404C47.069 7.6293 39.4593 0 30.0722 0Z" fill="#FF4170"/>
<path d="M35.0865 9.73793C34.7419 9.50404 34.2725 9.59359 34.0386 9.93852L24.9726 23.2949C24.7386 23.6396 24.8283 24.1089 25.1731 24.3429C25.3029 24.431 25.4503 24.4733 25.5962 24.4733C25.8378 24.4733 26.0752 24.3574 26.2211 24.1424L35.287 10.7861C35.5212 10.4412 35.4314 9.97191 35.0865 9.73793Z" fill="white"/>
<path d="M35.0396 17.4727C33.4694 17.4727 32.1919 19.0428 32.1919 20.9729C32.1919 22.9029 33.4694 24.473 35.0396 24.473C36.6098 24.473 37.8873 22.9029 37.8873 20.9729C37.8873 19.0428 36.6099 17.4727 35.0396 17.4727ZM35.0396 22.964C34.314 22.964 33.701 22.0521 33.701 20.9729C33.701 19.8936 34.3141 18.9817 35.0396 18.9817C35.7652 18.9817 36.3782 19.8936 36.3782 20.9729C36.3783 22.0521 35.7653 22.964 35.0396 22.964Z" fill="white"/>
<path d="M27.9522 13.1079C27.9522 11.1778 26.6747 9.60767 25.1046 9.60767C23.5344 9.60767 22.2568 11.1778 22.2568 13.1079C22.2568 15.0379 23.5343 16.6081 25.1046 16.6081C26.6747 16.6081 27.9522 15.0379 27.9522 13.1079ZM23.7659 13.1079C23.7659 12.0286 24.379 11.1167 25.1046 11.1167C25.8302 11.1167 26.4432 12.0286 26.4432 13.1079C26.4432 14.1872 25.8302 15.099 25.1046 15.099C24.379 15.099 23.7659 14.1873 23.7659 13.1079Z" fill="white"/>
<path d="M11.9801 47.8616C11.9801 49.0425 9.29824 49.9999 5.99004 49.9999C2.68184 49.9999 0 49.0425 0 47.8616C0 47.2236 0 44.4514 0 44.4514H11.9802C11.9802 44.4514 11.9801 46.6806 11.9801 47.8616Z" fill="#FFE563"/>
<path d="M7.95605 44.4514V47.8616C7.95605 48.7905 6.29629 49.5808 3.97803 49.8759C4.60703 49.956 5.28408 49.9999 5.99014 49.9999C9.29834 49.9999 11.9802 49.0425 11.9802 47.8616C11.9802 46.6806 11.9802 44.4514 11.9802 44.4514H7.95605Z" fill="#FFDC2E"/>
<path d="M11.9801 44.4514C11.9801 45.6324 9.29824 46.5898 5.99004 46.5898C2.68184 46.5898 0 45.6324 0 44.4514C0 43.8134 0 41.0413 0 41.0413H11.9802C11.9802 41.0413 11.9801 43.2704 11.9801 44.4514Z" fill="#FFB700"/>
<path d="M7.95605 41.0413V44.4514C7.95605 45.3803 6.29629 46.1707 3.97803 46.4658C4.60703 46.5458 5.28408 46.5898 5.99014 46.5898C9.29834 46.5898 11.9802 45.6324 11.9802 44.4514C11.9802 43.2705 11.9802 41.0413 11.9802 41.0413H7.95605Z" fill="#F5B000"/>
<path d="M11.9801 41.0413C11.9801 42.2222 9.29824 43.1796 5.99004 43.1796C2.68184 43.1796 0 42.2222 0 41.0413C0 40.4033 0 37.6311 0 37.6311H11.9802C11.9802 37.6311 11.9801 39.8603 11.9801 41.0413Z" fill="#FFE563"/>
<path d="M7.95605 37.6311V41.0413C7.95605 41.9702 6.29629 42.7605 3.97803 43.0556C4.60703 43.1357 5.28408 43.1796 5.99014 43.1796C9.29834 43.1796 11.9802 42.2222 11.9802 41.0413C11.9802 39.8603 11.9802 37.6311 11.9802 37.6311H7.95605Z" fill="#FFDC2E"/>
<path d="M11.9801 37.6311C11.9801 38.8121 9.29824 39.7695 5.99004 39.7695C2.68184 39.7695 0 38.8121 0 37.6311C0 36.9931 0 34.2209 0 34.2209H11.9802C11.9802 34.2209 11.9801 36.4501 11.9801 37.6311Z" fill="#FFB700"/>
<path d="M7.95605 34.2207V37.6309C7.95605 38.5599 6.29629 39.3501 3.97803 39.6452C4.60703 39.7253 5.28408 39.7692 5.99014 39.7692C9.29834 39.7692 11.9802 38.8118 11.9802 37.6309C11.9802 36.4499 11.9802 34.2207 11.9802 34.2207H7.95605Z" fill="#F5B000"/>
<path d="M5.99004 36.3593C9.29825 36.3593 11.9801 35.4019 11.9801 34.2209C11.9801 33.0399 9.29825 32.0825 5.99004 32.0825C2.68183 32.0825 0 33.0399 0 34.2209C0 35.4019 2.68183 36.3593 5.99004 36.3593Z" fill="#FFE563"/>
<path d="M23.9601 47.8616C23.9601 49.0425 21.2782 49.9999 17.97 49.9999C14.6618 49.9999 11.98 49.0425 11.98 47.8616C11.98 47.2236 11.98 44.4514 11.98 44.4514H23.9601V47.8616Z" fill="#FFB700"/>
<path d="M19.936 44.4514V47.8616C19.936 48.7905 18.2763 49.5808 15.958 49.8759C16.587 49.956 17.2641 49.9999 17.9701 49.9999C21.2783 49.9999 23.9602 49.0425 23.9602 47.8616C23.9602 46.6806 23.9602 44.4514 23.9602 44.4514H19.936Z" fill="#F5B000"/>
<path d="M23.9601 44.4514C23.9601 45.6324 21.2782 46.5898 17.97 46.5898C14.6618 46.5898 11.98 45.6324 11.98 44.4514C11.98 43.8134 11.98 41.0413 11.98 41.0413H23.9601C23.9601 41.0413 23.9601 43.2704 23.9601 44.4514Z" fill="#FFE563"/>
<path d="M19.936 41.0413V44.4514C19.936 45.3803 18.2763 46.1707 15.958 46.4658C16.587 46.5458 17.2641 46.5898 17.9701 46.5898C21.2783 46.5898 23.9602 45.6324 23.9602 44.4514C23.9602 43.2705 23.9602 41.0413 23.9602 41.0413H19.936Z" fill="#FFDC2E"/>
<path d="M23.9601 41.0413C23.9601 42.2222 21.2782 43.1796 17.97 43.1796C14.6618 43.1796 11.98 42.2222 11.98 41.0413C11.98 40.4033 11.98 37.6311 11.98 37.6311H23.9601V41.0413Z" fill="#FFB700"/>
<path d="M19.936 37.6311V41.0413C19.936 41.9702 18.2763 42.7605 15.958 43.0556C16.587 43.1357 17.2641 43.1796 17.9701 43.1796C21.2783 43.1796 23.9602 42.2222 23.9602 41.0413C23.9602 39.8603 23.9602 37.6311 23.9602 37.6311H19.936Z" fill="#F5B000"/>
<path d="M23.9601 37.6311C23.9601 38.8121 21.2782 39.7695 17.97 39.7695C14.6618 39.7695 11.98 38.8121 11.98 37.6311C11.98 36.9931 11.98 34.2209 11.98 34.2209H23.9601C23.9601 34.2209 23.9601 36.4501 23.9601 37.6311Z" fill="#FFE563"/>
<path d="M19.936 34.2207V37.6309C19.936 38.5599 18.2763 39.3501 15.958 39.6452C16.587 39.7253 17.2641 39.7692 17.9701 39.7692C21.2783 39.7692 23.9602 38.8118 23.9602 37.6309C23.9602 36.4499 23.9602 34.2207 23.9602 34.2207H19.936Z" fill="#FFDC2E"/>
<path d="M23.9601 34.1667C23.9601 35.3477 21.2782 36.3051 17.97 36.3051C14.6618 36.3051 11.98 35.3477 11.98 34.1667C11.98 33.5288 11.98 30.7566 11.98 30.7566H23.9601C23.9601 30.7566 23.9601 32.9857 23.9601 34.1667Z" fill="#FFB700"/>
<path d="M19.936 30.7563V34.1665C19.936 35.0954 18.2763 35.8857 15.958 36.1809C16.587 36.2609 17.2641 36.3049 17.9701 36.3049C21.2783 36.3049 23.9602 35.3475 23.9602 34.1665C23.9602 32.9855 23.9602 30.7563 23.9602 30.7563H19.936Z" fill="#F5B000"/>
<path d="M23.9601 30.7024C23.9601 31.8834 21.2782 32.8408 17.97 32.8408C14.6618 32.8408 11.98 31.8834 11.98 30.7024C11.98 30.0644 11.98 27.2922 11.98 27.2922H23.9601C23.9601 27.2922 23.9601 29.5213 23.9601 30.7024Z" fill="#FFE563"/>
<path d="M19.936 27.292V30.7021C19.936 31.6311 18.2763 32.4214 15.958 32.7165C16.587 32.7966 17.2641 32.8405 17.9701 32.8405C21.2783 32.8405 23.9602 31.8831 23.9602 30.7021C23.9602 29.5212 23.9602 27.292 23.9602 27.292H19.936Z" fill="#FFDC2E"/>
<path d="M17.97 29.4306C21.2782 29.4306 23.9601 28.4732 23.9601 27.2922C23.9601 26.1112 21.2782 25.1538 17.97 25.1538C14.6618 25.1538 11.98 26.1112 11.98 27.2922C11.98 28.4732 14.6618 29.4306 17.97 29.4306Z" fill="#FFB700"/>
<path d="M35.9405 44.4514V47.8616C35.9405 47.8616 33.2587 49.9999 29.9505 49.9999C26.6423 49.9999 23.9604 49.0425 23.9604 47.8616C23.9604 47.2236 23.9604 44.4514 23.9604 44.4514H35.9405Z" fill="#FFE563"/>
<path d="M31.916 44.4514V47.8616C31.916 48.7905 30.2562 49.5808 27.938 49.8759C28.567 49.956 29.244 49.9999 29.9501 49.9999C33.2583 49.9999 35.9401 49.0425 35.9401 47.8616C35.9401 46.6806 35.9401 44.4514 35.9401 44.4514H31.916Z" fill="#FFDC2E"/>
<path d="M35.9405 44.4514C35.9405 45.6324 33.2587 46.5898 29.9505 46.5898C26.6423 46.5898 23.9604 45.6324 23.9604 44.4514C23.9604 43.8134 23.9604 41.0413 23.9604 41.0413H35.9406C35.9406 41.0413 35.9405 43.2704 35.9405 44.4514Z" fill="#FFB700"/>
<path d="M31.916 41.0413V44.4514C31.916 45.3803 30.2562 46.1707 27.938 46.4658C28.567 46.5458 29.244 46.5898 29.9501 46.5898C33.2583 46.5898 35.9401 45.6324 35.9401 44.4514C35.9401 43.2705 35.9401 41.0413 35.9401 41.0413H31.916Z" fill="#F5B000"/>
<path d="M29.9505 43.1796C33.2587 43.1796 35.9405 42.2222 35.9405 41.0412C35.9405 39.8602 33.2587 38.9028 29.9505 38.9028C26.6423 38.9028 23.9604 39.8602 23.9604 41.0412C23.9604 42.2222 26.6423 43.1796 29.9505 43.1796Z" fill="#FFE563"/>
</svg>
