<svg width="256" height="38" viewBox="0 0 256 38" fill="none" xmlns="http://www.w3.org/2000/svg">
<path d="M69.9989 16.5748C71.6777 16.5748 73.6148 17.4788 73.6148 20.7718V26.5184H72.7108V20.9009C72.7108 18.4473 71.5486 17.3496 69.8052 17.3496C68.0619 17.3496 66.7059 18.5764 66.5768 21.03V26.5184H65.6729V16.8331H66.4477L66.5768 19.2867V19.3513C66.8996 17.6725 68.3847 16.5103 69.9989 16.5748Z" fill="white"/>
<path d="M80.8461 26.7775C78.78 26.9067 77.0366 25.357 76.9075 23.2908V16.834H77.8114V22.5806C77.8114 24.7113 78.9091 26.0027 80.8461 26.0027C82.7832 26.0027 83.8809 24.7113 83.8809 22.5806V16.834H84.7848V22.5806C85.0431 24.6468 83.6226 26.4547 81.5564 26.7775H80.8461Z" fill="white"/>
<path d="M95.6326 16.834L91.4356 26.5192H90.6608L86.4639 16.834H87.4324L91.0482 25.4861L94.6641 16.834H95.6326Z" fill="white"/>
<path d="M97.7633 21.5467C97.6341 23.8066 99.3129 25.8082 101.637 25.9373C102.864 26.0019 104.091 25.5499 104.93 24.5814L105.576 25.098C104.608 26.131 103.187 26.7122 101.766 26.7122C99.0546 26.7767 96.8593 24.646 96.7947 21.9341V21.4821C96.6656 18.8994 98.6672 16.6395 101.315 16.5104H101.508C103.962 16.4458 105.963 18.3828 106.028 20.7719V21.4821L97.7633 21.5467ZM101.508 17.3497C99.5066 17.3497 97.8924 18.8994 97.7633 20.901H105.124C105.124 18.964 103.574 17.3497 101.573 17.3497H101.508Z" fill="white"/>
<path d="M119.006 16.5754C120.621 16.5754 122.364 17.4794 122.364 20.7724V26.519H121.46V20.7724C121.46 18.7062 120.621 17.2857 118.813 17.2857C117.198 17.2857 116.165 18.577 116.036 20.9015V26.4544H115.132V20.5787C115.132 18.6416 114.164 17.2211 112.42 17.2211C110.871 17.2211 109.773 18.577 109.644 20.6432V26.3898H108.74V16.7046H109.515L109.644 18.6416C110.031 17.3502 111.258 16.4463 112.614 16.4463C114.099 16.4463 115.391 17.4148 115.778 18.8999C116.101 17.4794 117.457 16.5109 119.006 16.5754Z" fill="white"/>
<path d="M138.937 12.3574V26.5625H135.709V20.6222H130.285V26.5625H127.057V12.3574H130.285V17.9749H135.709V12.3574H138.937Z" fill="#2EC9D4"/>
<path d="M141.262 21.3984C141.132 18.2346 143.521 15.5873 146.685 15.4581C149.849 15.329 152.496 17.718 152.626 20.8819C152.755 24.0457 150.366 26.693 147.202 26.8222H146.944C143.973 27.0159 141.455 24.756 141.262 21.7858V21.3984ZM149.526 21.3984C149.397 19.9779 148.106 18.9448 146.685 19.074C145.265 19.2031 144.232 20.4945 144.361 21.915C144.49 23.2063 145.588 24.2394 146.944 24.2394C148.429 24.2394 149.591 23.0126 149.526 21.5275V21.3984Z" fill="#2EC9D4"/>
<path d="M155.338 23.3992C155.983 24.1095 156.952 24.5615 157.92 24.5615C158.889 24.5615 159.406 24.174 159.406 23.5284C159.406 21.8496 154.305 22.8827 154.305 19.3314C154.305 17.3944 155.919 15.9739 158.695 15.9739C160.051 15.9093 161.472 16.3613 162.505 17.2007L160.955 19.0731C160.374 18.5566 159.664 18.2338 158.824 18.2338C157.92 18.2338 157.468 18.6212 157.468 19.2668C157.468 21.2039 162.699 20.0417 162.699 23.5929C162.699 25.4654 161.149 26.8213 158.308 26.8213C156.629 26.9505 154.886 26.3694 153.659 25.2071L155.338 23.3992Z" fill="#2EC9D4"/>
<path d="M170.899 15.9736C173.546 15.9736 175.677 17.9753 175.677 21.3974C175.677 24.8195 173.611 26.8211 170.899 26.8211C169.736 26.8857 168.574 26.4337 167.799 25.5943V31.1472H164.765V16.2965H167.412L167.606 17.3941C168.445 16.4902 169.672 15.9736 170.899 15.9736ZM172.577 21.3974C172.384 19.9769 171.092 19.0083 169.736 19.2021C168.316 19.3958 167.347 20.6871 167.541 22.0431C167.735 23.3344 168.832 24.303 170.124 24.2384C171.544 24.1738 172.707 23.0116 172.642 21.5265C172.577 21.5265 172.577 21.4619 172.577 21.3974Z" fill="#2EC9D4"/>
<path d="M187.686 22.1728H180.003C180.067 23.5933 181.23 24.6909 182.65 24.6264C183.49 24.6909 184.329 24.3035 184.975 23.6578L186.976 25.3366C185.814 26.4343 184.329 26.9508 182.715 26.8863C179.745 27.1445 177.097 25.0138 176.839 22.0436V21.4625C176.774 18.5569 179.099 16.1033 182.004 16.0388H182.392C185.168 15.9096 187.557 18.0404 187.751 20.8168V21.4625L187.686 22.1728ZM182.392 18.2341C181.165 18.2341 180.132 19.2672 180.067 20.494H184.716C184.716 19.2026 183.683 18.1695 182.392 18.2341Z" fill="#2EC9D4"/>
<path d="M199.761 11.4541V26.5631H197.243L196.92 25.4009C196.08 26.3694 194.854 26.9505 193.562 26.8859C190.915 26.8859 188.784 24.8843 188.784 21.4622C188.784 18.0401 190.85 16.0385 193.562 16.0385C194.724 16.0385 195.887 16.4904 196.662 17.2653V11.4541H199.761ZM196.984 21.3976C196.791 19.9771 195.499 19.0086 194.143 19.2023C192.723 19.396 191.754 20.6874 191.948 22.0433C192.142 23.3347 193.175 24.2386 194.466 24.2386C195.887 24.2386 197.049 23.0118 197.049 21.5268C196.984 21.5268 196.984 21.4622 196.984 21.3976Z" fill="#2EC9D4"/>
<path d="M212.61 16.2973V26.5637H210.092L209.769 25.4015C208.93 26.37 207.703 26.8865 206.411 26.8865C203.764 26.8865 201.633 24.8849 201.633 21.4628C201.633 18.0407 203.699 16.0391 206.411 16.0391C207.703 15.9745 208.93 16.5556 209.769 17.5241L210.092 16.2973H212.61ZM209.898 21.3982C209.704 19.9777 208.413 19.0092 207.057 19.2029C205.637 19.3966 204.668 20.688 204.862 22.0439C205.055 23.3353 206.089 24.2392 207.38 24.2392C208.8 24.1747 209.963 23.0124 209.963 21.5274C209.898 21.5274 209.898 21.4628 209.898 21.3982Z" fill="#2EC9D4"/>
<path d="M225.524 16.2329V25.5307C225.524 29.2757 223.586 31.1482 220.1 31.1482C219.26 31.1482 218.356 31.019 217.582 30.7608L218.227 28.3072C218.744 28.5654 219.39 28.63 219.971 28.63C221.972 28.63 222.489 27.3386 222.553 25.337C221.714 26.1764 220.616 26.5638 219.454 26.5638C216.807 26.5638 214.676 24.5622 214.676 21.2692C214.676 17.9762 216.742 15.9746 219.454 15.9746C220.745 15.91 221.972 16.4911 222.812 17.4597L223.134 16.2974L225.524 16.2329ZM222.812 21.3338C222.682 19.9133 221.391 18.9447 219.971 19.0739C218.55 19.203 217.582 20.4944 217.711 21.9149C217.84 23.2063 218.938 24.1748 220.229 24.1748C221.649 24.1748 222.812 22.948 222.812 21.5275V21.3338Z" fill="#2EC9D4"/>
<path d="M238.372 22.1728H230.689C230.753 23.5933 231.916 24.6909 233.336 24.6264C234.176 24.6909 235.015 24.3035 235.661 23.6578L237.662 25.3366C236.5 26.4343 235.015 26.9508 233.401 26.8863C230.431 27.1445 227.783 25.0138 227.525 22.0436V21.4625C227.46 18.5569 229.785 16.1033 232.69 16.0388H233.078C235.854 15.9096 238.243 18.0404 238.437 20.8168V21.4625L238.372 22.1728ZM233.013 18.2341C231.787 18.2341 230.753 19.2672 230.689 20.494H235.338C235.402 19.2026 234.369 18.1695 233.013 18.2341C233.078 18.2341 233.078 18.2341 233.013 18.2341Z" fill="#2EC9D4"/>
<path d="M252.255 15.9746C254.644 15.9746 256 17.4597 256 20.4298V26.4992H252.965V20.8172C252.965 19.4613 252.513 18.5573 251.415 18.5573C250.189 18.5573 249.672 19.5259 249.672 21.2046V26.4992H246.637V20.8172C246.637 19.4613 246.185 18.5573 245.088 18.5573C243.99 18.5573 243.409 19.3322 243.344 20.8172V26.4992H240.31V16.2974H242.957L243.28 17.5242C243.861 16.5557 244.894 15.9746 246.056 15.9746C247.218 15.91 248.316 16.4911 248.962 17.4597C249.737 16.4911 251.028 15.91 252.255 15.9746Z" fill="#2EC9D4"/>
<path d="M34.3504 25.4986H7.29622C3.29298 25.4986 0 22.2702 0 18.2024C0 14.1992 3.22842 10.9062 7.29622 10.9062C7.61906 10.9062 7.94191 10.9062 8.20018 10.9708C9.16871 3.99738 15.6255 -0.845241 22.5989 0.123285C26.473 0.639832 29.8952 2.9643 31.8968 6.38643C37.0622 5.03049 42.4214 8.06519 43.7774 13.2952C45.1333 18.4607 42.0986 23.8199 36.8685 25.1758C36.0291 25.3695 35.1898 25.4986 34.3504 25.4986ZM7.29622 11.681C3.74496 11.681 0.839386 14.5866 0.839386 18.1379C0.839386 21.6891 3.74496 24.5947 7.29622 24.5947H34.3504C39.2576 24.5947 43.2608 20.5915 43.2608 15.6843C43.2608 10.7771 39.2576 6.77382 34.3504 6.77382C33.4464 6.77382 32.607 6.90296 31.7031 7.16123L31.3802 7.22581L31.2511 6.96754C28.0872 1.15638 20.8556 -0.97437 15.0444 2.18948C11.6223 4.06196 9.29784 7.54865 8.91043 11.4228L8.84587 11.8747L8.39389 11.8102C8.07105 11.7456 7.68363 11.7456 7.29622 11.681Z" fill="white"/>
<path d="M23.7612 19.2353C24.6652 19.2353 25.5691 19.3645 26.4731 19.6228C29.7015 13.6179 37.1914 11.4226 43.1963 14.651C46.7476 16.588 49.1366 20.1393 49.5886 24.2071C53.3335 23.4968 56.8848 25.9504 57.5951 29.6954C58.3053 33.4404 55.8517 36.9916 52.1067 37.7019C51.7193 37.7665 51.2674 37.831 50.8154 37.831H23.7612C18.5958 37.831 14.4634 33.6341 14.4634 28.5332C14.3988 23.3677 18.5958 19.2353 23.7612 19.2353Z" fill="#2EC9D4"/>
</svg>
