<?xml version="1.0" encoding="utf-8"?>
<!DOCTYPE svg PUBLIC "-//W3C//DTD SVG 1.1//EN" "http://www.w3.org/Graphics/SVG/1.1/DTD/svg11.dtd">
<svg version="1.1" xmlns="http://www.w3.org/2000/svg" viewBox="0 0 512 180" xml:space="preserve" fill="#014965">
<g>
	<path d="M457.848,145.912c-5.596,0-11.195,0.003-16.793,0c-2.455-0.002-3.225-0.997-2.545-3.302
		c8.736-29.724,17.488-59.445,26.186-89.18c0.375-1.282,0.955-1.598,2.221-1.592c11.793,0.049,23.588,0.019,35.383,0.032
		c7.367,0.009,11.273,5.177,9.191,12.278c-6.768,23.113-13.555,46.22-20.398,69.313c-2.471,8.35-7.223,11.956-16.268,12.268
		c-5.652,0.195-11.314,0.037-16.975,0.037C457.848,145.814,457.848,145.864,457.848,145.912z M464.645,127.94
		c1.232,0,2.182,0.001,3.131,0c3.48-0.004,3.527-0.037,4.529-3.44c3.76-12.762,7.518-25.523,11.273-38.288
		c1.408-4.786,2.803-9.575,4.199-14.365c0.73-2.508,0.703-2.539-1.973-2.542c-0.773-0.002-1.559,0.083-2.318-0.02
		c-1.24-0.167-1.711,0.329-2.061,1.525c-3.387,11.697-6.848,23.371-10.287,35.053C468.994,113.148,466.852,120.435,464.645,127.94z"
		/>
	<path d="M443.121,101.999c2.256,2.778,2.006,5.831,1.119,8.896c-3.266,11.252-6.596,22.486-9.85,33.741
		c-0.316,1.1-0.873,1.308-1.896,1.298c-5.777-0.057-11.555-0.043-17.332-0.068c-1.846-0.009-2.727-1.223-2.199-3.013
		c3.301-11.24,6.611-22.478,9.924-33.716c0.66-2.251,0.66-2.251-1.691-2.255c-3.922-0.005-3.912-0.002-5.016,3.75
		c-5.52,18.772-11.057,37.537-16.541,56.317c-0.373,1.266-0.848,1.789-2.273,1.765c-5.656-0.098-11.316-0.035-16.977-0.044
		c-2.055-0.003-2.885-1.119-2.303-3.093c11.033-37.419,22.078-74.835,33.088-112.263c0.326-1.104,0.773-1.479,1.943-1.475
		c11.496,0.046,22.996-0.01,34.492,0.041c8.109,0.036,12.246,5.571,9.986,13.347c-2.957,10.164-6.004,20.302-8.998,30.454
		C447.734,98.599,445.818,100.599,443.121,101.999z M424.838,90.727c3.457-0.001,4.16-0.32,4.818-2.491
		c1.699-5.622,3.34-11.262,5.02-16.888c0.4-1.339,0.076-2.077-1.443-2.042c-1.129,0.025-2.264,0.068-3.387-0.021
		c-1.123-0.089-1.637,0.245-1.967,1.421c-1.617,5.771-3.361,11.505-5.064,17.253C421.994,90.728,421.99,90.728,424.838,90.727z"/>
	<path d="M371.066,145.912c-2.742,0-5.482,0.004-8.223,0c-2.439-0.004-3.146-0.838-2.719-3.295
		c0.66-3.811,1.324-7.621,2.049-11.419c0.238-1.238,0.145-1.872-1.398-1.767c-2.016,0.139-4.055,0.123-6.07,0.003
		c-1.334-0.079-1.971,0.349-2.486,1.615c-4.867,11.949-9.838,23.854-14.691,35.81c-0.592,1.457-1.311,1.884-2.848,1.856
		c-5.777-0.105-11.555-0.037-17.334-0.046c-1.98-0.003-2.855-1.317-2.076-3.117c16.225-37.424,32.463-74.842,48.65-112.281
		c0.498-1.15,1.09-1.436,2.254-1.429c8.221,0.047,16.441,0.023,24.662,0.025c2.404,0,3.152,0.772,2.836,3.104
		C391.848,68.483,390,81.991,388.164,95.5c-2.096,15.393-4.209,30.783-6.27,46.18c-0.566,4.225-0.496,4.233-4.756,4.233
		C375.117,145.912,373.09,145.912,371.066,145.912z M369.125,88.855c-0.141-0.025-0.285-0.051-0.428-0.075
		c-3.143,7.979-6.285,15.958-9.516,24.156c1.668,0,3.088-0.093,4.494,0.028c1.184,0.104,1.502-0.438,1.668-1.457
		c0.742-4.517,1.551-9.024,2.311-13.539C368.164,94.935,368.887,91.931,369.125,88.855z"/>
	<path d="M308.408,51.863c2.799,0,5.6-0.013,8.396,0.005c1.809,0.013,2.941,1.596,2.428,3.341
		c-6.791,23.105-13.582,46.211-20.379,69.315c-0.949,3.241-0.949,3.252,2.439,3.26c2.762,0.007,2.766,0.009,3.543-2.633
		c6.988-23.73,13.99-47.457,20.92-71.203c0.457-1.559,0.996-2.179,2.738-2.133c5.477,0.142,10.959,0.046,16.439,0.055
		c2.041,0.002,2.912,1.13,2.348,3.044c-8.424,28.638-16.855,57.272-25.264,85.915c-0.252,0.871-0.652,1.415-1.488,1.818
		c-6.744,3.263-13.471,6.56-20.189,9.883c-0.797,0.395-1.354,0.41-2.043-0.225c-0.656-0.603-1.154-1.08-0.74-2.074
		c0.387-0.927,0.535-1.952,0.898-2.892c0.424-1.095,0.188-1.479-1.033-1.449c-2.617,0.069-5.24,0.016-7.859,0.024
		c-2.219,0.007-4.398-0.267-6.506-0.976c-6.117-2.058-9.176-7.771-7.432-14.848c1.736-7.037,3.916-13.964,5.951-20.924
		c5.436-18.547,10.914-37.08,16.318-55.634c0.383-1.313,0.9-1.795,2.297-1.73c2.732,0.125,5.477,0.037,8.217,0.037
		C308.408,51.849,308.408,51.857,308.408,51.863z"/>
	<path d="M260.99,82.413c-1.168-0.501-2.621,0.442-3.465-1.048c-0.375-0.662-0.596-1.161-0.344-1.945
		c1.893-5.823,3.744-11.66,5.563-17.505c0.258-0.827,0.643-1.113,1.504-1.11c8.041,0.029,16.082,0.008,24.123,0.024
		c1.762,0.005,2.621,1.324,2.09,3.132c-6.139,20.939-12.285,41.879-18.43,62.816c-1.475,5.021-2.982,10.033-4.398,15.072
		c-0.287,1.02-0.801,1.603-1.723,2.063c-7.441,3.734-14.869,7.498-22.282,11.286c-0.908,0.464-1.553,0.745-2.521-0.07
		c-0.999-0.845-0.723-1.581-0.426-2.51c0.47-1.472,0.872-2.967,1.313-4.448c0.672-2.259,0.676-2.235-1.6-2.263
		c-2.973-0.036-5.957,0.188-8.913-0.326c-11.817-2.053-17.44-10.229-14.797-21.961c1.843-8.181,4.575-16.129,6.936-24.174
		c7.096-24.19,14.225-48.371,21.386-72.542c2.641-8.905,7.842-12.873,17.14-12.956c11.314-0.101,22.631-0.029,33.947-0.023
		c1.742,0.001,2.697,1.238,2.211,2.863c-1.688,5.638-3.428,11.262-5.066,16.914c-0.318,1.107-0.889,1.295-1.904,1.289
		c-7.029-0.037-14.059-0.025-21.086-0.018c-3.227,0.004-3.57,0.294-4.484,3.395c-8.117,27.546-16.24,55.09-24.364,82.634
		c-0.05,0.172-0.129,0.333-0.175,0.505c-0.727,2.668-0.38,3.152,2.379,3.325c4.821,0.301,4.822,0.301,6.187-4.31
		c3.612-12.201,7.225-24.403,10.833-36.606C260.77,83.418,260.869,82.906,260.99,82.413z"/>
	<path d="M183.294,34.924c-2.322,0.017-4.645,0.067-6.966,0.036c-1.498-0.021-2.407-1.73-1.602-3.013
		c3.608-5.743,7.253-11.464,10.856-17.209c0.402-0.642,0.873-0.833,1.603-0.831c14.055,0.023,28.111-0.087,42.166,0.069
		c8.419,0.094,13.091,6.598,10.825,15.196c-2.333,8.852-5.102,17.586-7.709,26.364c-3.502,11.798-7.029,23.588-10.555,35.378
		c-0.374,1.253-0.77,2.503-1.232,3.725c-3.064,8.118-8.765,12.089-17.445,12.097c-4.941,0.004-9.883-0.042-14.823-0.169
		c-1.346-0.035-1.931,0.316-2.334,1.685c-5.771,19.62-11.625,39.216-17.41,58.832c-0.363,1.232-0.864,1.64-2.168,1.624
		c-6.372-0.077-12.744-0.032-19.118-0.037c-2.114-0.002-2.93-1.123-2.323-3.184c12.633-42.888,25.267-85.777,37.907-128.665
		c0.147-0.502,0.39-0.978,0.586-1.466c7.384-0.002,14.768-0.004,22.152-0.006c1.18,0.87,1.222,1.91,0.815,3.278
		c-3.577,12.027-7.083,24.073-10.604,36.116c-1.228,4.198-2.442,8.398-3.699,12.727c2.055,0,3.898,0.031,5.741-0.01
		c1.424-0.032,2.526-0.691,3.128-2.006c0.419-0.916,0.791-1.864,1.077-2.83c2.258-7.642,4.493-15.289,6.733-22.937
		c2.039-6.96,4.084-13.919,6.113-20.882c0.954-3.274,0.539-3.827-2.8-3.835c-2.145-0.007-4.288-0.019-6.432-0.026
		c-0.374-0.412-0.874-0.31-1.338-0.31c-6.599-0.006-13.199-0.006-19.799,0C184.175,34.637,183.677,34.528,183.294,34.924z"/>
	<path d="M149.027,69.33c-1.693,0-3.224-0.027-4.755,0.009c-1.365,0.031-1.479,1.176-1.759,2.128
		c-2.727,9.241-5.444,18.482-8.165,27.725c-2.332,7.933-4.661,15.863-6.991,23.794c-0.757,2.576-0.608,2.789,2.04,2.792
		c6.254,0.006,12.509-0.004,18.764,0.004c2.085,0.002,2.959,1.282,2.205,3.225c-2.026,5.208-4.079,10.407-6.082,15.624
		c-0.335,0.874-0.712,1.32-1.768,1.31c-8.815-0.077-17.63-0.004-26.444-0.146c-6.458-0.104-11.25-3.999-12.367-9.812
		c-0.517-2.687-0.141-5.344,0.624-7.941c5.561-18.881,11.133-37.76,16.698-56.639c0.992-3.365,1.949-6.741,2.962-10.101
		c1.954-6.482,5.408-9.325,12.207-9.411c11.732-0.147,23.468-0.053,35.204-0.041c1.495,0.001,2.484,1.316,2.068,2.736
		c-2.583,8.85-5.201,17.689-7.774,26.542c-0.234,0.805-0.689,1.141-1.449,1.316c-5.625,1.294-11.241,2.622-16.866,3.916
		c-1.746,0.4-2.992-0.935-2.498-2.665C146.235,78.959,147.611,74.229,149.027,69.33z"/>
	<path d="M74.054,54.919c0,11.019,0.021,22.037-0.032,33.056c-0.006,1.109,0.27,1.44,1.344,1.438
		c8.93-0.036,17.86-0.035,26.792-0.04c1.191-0.001,2.386,0.094,3.57,0.015c1.152-0.078,1.43,0.156,1.058,1.366
		c-1.485,4.827-2.879,9.683-4.26,14.54c-2.031,7.148-4.289,14.229-6.137,21.434c-1.14,4.447-1.445,8.791,0.064,13.159
		c0.403,1.17,0.098,2.016-0.661,2.893c-5.777,6.673-12.36,12.271-20.595,15.731c-1.759,0.739-1.59-0.397-1.59-1.454
		c0.001-16.499,0.003-32.998,0.004-49.497c0-5.302-0.049-10.604,0.035-15.904c0.023-1.458-0.338-1.905-1.86-1.898
		c-13.998,0.062-27.996,0.037-41.993,0.037c-2.543,0-2.467-0.017-2.962-2.489c-0.686-3.415-1.563-6.793-2.245-10.21
		c-0.778-3.893-1.54-7.794-2.113-11.719c-0.771-5.275-1.464-10.567-1.968-15.873c-0.223-2.356-0.393-4.727-0.688-7.073
		c-0.173-1.372,0.391-2.281,1.267-3.136c3.92-3.832,8.653-6.397,13.625-8.528c3.564-1.527,7.179-2.97,10.856-4.195
		c4.703-1.569,9.434-3.081,14.304-4.101c3.88-0.813,7.754-1.659,11.617-2.549c2.171-0.5,2.57-0.242,2.57,1.944
		C74.054,32.882,74.054,43.901,74.054,54.919z"/>
	<path d="M142.711,38.863c-1.964-0.115-4.266,0.129-6.515,0.778c-0.822,0.236-1.235,0.194-1.666-0.77
		c-1.709-3.82-4.823-6.42-8.191-8.695c-6.479-4.378-13.64-7.373-20.977-9.918c-5.911-2.051-11.947-3.723-18.071-5.059
		c-4.159-0.906-8.305-1.854-12.522-2.478c-2.976-0.44-5.779,0.607-8.594,1.13c-3.464,0.644-6.933,1.423-10.354,2.386
		c-4.95,1.391-9.89,2.763-14.751,4.461c-5.324,1.858-10.499,4.027-15.423,6.743c-4.846,2.672-9.468,5.651-12.426,10.615
		c-0.803,1.347-0.572,2.623-0.447,3.943c0.518,5.492,1,10.989,1.683,16.463c0.595,4.763,1.378,9.506,2.194,14.237
		c0.724,4.192,1.516,8.377,2.449,12.526c0.894,3.973,1.968,7.908,3.038,11.838c0.943,3.465,2.047,6.88,3.183,10.289
		c1.984,5.953,4.244,11.791,6.902,17.473c4.063,8.682,8.959,16.849,15.286,24.085c4.929,5.638,10.651,10.316,17.286,13.851
		c2.667,1.419,5.461,2.558,8.32,3.458c1.397,0.44,2.814-0.59,4.161-1.081c8.626-3.145,15.601-8.68,21.766-15.325
		c0.929-1.003,1.403-1.172,2.311,0.087c1.919,2.663,4.765,4.271,7.514,5.928c0.903,0.544,1.034,0.801,0.283,1.619
		c-4.664,5.075-9.714,9.715-15.509,13.462c-3.905,2.525-8.082,4.535-12.457,6.188c-2.153,0.813-4.378,1.322-6.518,2.113
		c-1.583,0.585-2.962-0.282-4.239-0.671c-7.209-2.198-13.923-5.475-19.987-10.028c-8.828-6.628-15.908-14.798-21.782-24.103
		c-4.321-6.844-7.966-14.005-11.042-21.491c-1.893-4.609-3.575-9.291-5.129-14.011c-1.156-3.508-2.157-7.079-3.105-10.661
		c-0.857-3.24-1.738-6.478-2.488-9.744C5.917,84.25,4.804,80.005,4.24,75.691c-0.391-2.992-0.932-5.973-1.395-8.942
		C2.289,63.183,1.919,59.6,1.501,56.027c-0.522-4.467-1.207-8.929-1.202-13.447c0.001-1.007-0.09-2.015-0.183-3.019
		c-0.29-3.139,1.094-5.751,2.666-8.262c4.651-7.428,11.698-12.05,19.173-16.12c6.278-3.418,12.964-5.912,19.745-8.079
		c5.042-1.609,10.168-2.969,15.358-4.112c3.845-0.848,7.723-1.536,11.556-2.438c4.156-0.979,8.192-0.5,12.316,0.566
		c2.239,0.579,4.657,0.709,6.943,1.281c4.268,1.068,8.572,1.963,12.798,3.237c2.577,0.779,5.193,1.521,7.768,2.31
		c3.407,1.045,6.663,2.583,9.98,3.919c6.616,2.665,12.776,6.118,18.312,10.64c4.119,3.365,7.663,7.197,9.706,12.218
		c0.371,0.912,0.992,1.672,0.963,2.796c-0.029,1.14-0.393,1.455-1.456,1.365C144.997,38.802,144.039,38.863,142.711,38.863z"/>
</g>
</svg>
