<svg width="42" height="50" viewBox="0 0 42 50" fill="none" xmlns="http://www.w3.org/2000/svg">
<path d="M7.84288 36.9245C10.3192 37.941 12.2785 39.5805 13.4793 41.4387C13.7307 41.8279 13.3515 42.7516 12.8992 42.8519C10.7391 43.3304 8.19298 43.1205 5.71671 42.1039C3.24043 41.0874 1.28112 39.448 0.0803331 37.5897C-0.171138 37.2006 0.208078 36.2768 0.660431 36.1766C2.82043 35.698 5.36661 35.908 7.84288 36.9245Z" fill="url(#paint0_linear_127_365)"/>
<path d="M7.84288 36.9245C10.3192 37.941 12.2785 39.5805 13.4793 41.4387C13.7307 41.8279 13.3515 42.7516 12.8992 42.8519C10.7391 43.3304 8.19298 43.1205 5.71671 42.1039C3.24043 41.0874 1.28112 39.448 0.0803331 37.5897C-0.171138 37.2006 0.208078 36.2768 0.660431 36.1766C2.82043 35.698 5.36661 35.908 7.84288 36.9245Z" fill="url(#paint1_linear_127_365)"/>
<path d="M9.1021 33.4131C11.5272 35.3351 13.1786 37.7837 13.9175 40.2323C14.0722 40.7451 13.3552 41.6498 12.8206 41.6162C10.268 41.4561 7.50701 40.4076 5.08191 38.4855C2.65681 36.5635 1.00544 34.1149 0.266514 31.6663C0.111808 31.1535 0.828769 30.2489 1.36338 30.2824C3.91602 30.4426 6.67701 31.491 9.1021 33.4131Z" fill="url(#paint2_linear_127_365)"/>
<path d="M9.1021 33.4131C11.5272 35.3351 13.1786 37.7837 13.9175 40.2323C14.0722 40.7451 13.3552 41.6498 12.8206 41.6162C10.268 41.4561 7.50701 40.4076 5.08191 38.4855C2.65681 36.5635 1.00544 34.1149 0.266514 31.6663C0.111808 31.1535 0.828769 30.2489 1.36338 30.2824C3.91602 30.4426 6.67701 31.491 9.1021 33.4131Z" fill="url(#paint3_linear_127_365)"/>
<path d="M11.5504 28.0022C13.6753 31.2639 14.6668 34.8445 14.57 38.0605C14.5497 38.7341 13.3329 39.5267 12.7087 39.2732C9.72773 38.0623 6.85312 35.7085 4.72822 32.4468C2.60332 29.1852 1.61175 25.6046 1.70861 22.3885C1.7289 21.715 2.94567 20.9223 3.56988 21.1758C6.55087 22.3867 9.42548 24.7405 11.5504 28.0022Z" fill="url(#paint4_linear_127_365)"/>
<path d="M2.0708 26.1688C2.52727 28.2754 3.40904 30.4223 4.72786 32.4466C6.85276 35.7083 9.72727 38.0621 12.7084 39.273C13.3327 39.5266 14.5493 38.7339 14.5696 38.0604C14.6666 34.8443 13.675 31.2637 11.55 28.002C10.2987 26.0814 8.78747 24.4759 7.14766 23.2329L2.0708 26.1688Z" fill="url(#paint5_linear_127_365)"/>
<path d="M34.0536 36.9245C31.5773 37.941 29.618 39.5805 28.4172 41.4387C28.1658 41.8279 28.545 42.7516 28.9973 42.8519C31.1574 43.3304 33.7035 43.1205 36.1798 42.1039C38.6561 41.0874 40.6154 39.448 41.8162 37.5897C42.0676 37.2006 41.6884 36.2768 41.2361 36.1766C39.0761 35.698 36.5299 35.908 34.0536 36.9245Z" fill="url(#paint6_linear_127_365)"/>
<path d="M34.0536 36.9245C31.5773 37.941 29.618 39.5805 28.4172 41.4387C28.1658 41.8279 28.545 42.7516 28.9973 42.8519C31.1574 43.3304 33.7035 43.1205 36.1798 42.1039C38.6561 41.0874 40.6154 39.448 41.8162 37.5897C42.0676 37.2006 41.6884 36.2768 41.2361 36.1766C39.0761 35.698 36.5299 35.908 34.0536 36.9245Z" fill="url(#paint7_linear_127_365)"/>
<path d="M32.7943 33.4131C30.3692 35.3351 28.7178 37.7837 27.9789 40.2323C27.8242 40.7451 28.5412 41.6498 29.0758 41.6162C31.6284 41.4561 34.3894 40.4076 36.8145 38.4855C39.2396 36.5635 40.891 34.1149 41.6299 31.6663C41.7846 31.1535 41.0676 30.2489 40.533 30.2824C37.9804 30.4426 35.2194 31.491 32.7943 33.4131Z" fill="url(#paint8_linear_127_365)"/>
<path d="M32.7943 33.4131C30.3692 35.3351 28.7178 37.7837 27.9789 40.2323C27.8242 40.7451 28.5412 41.6498 29.0758 41.6162C31.6284 41.4561 34.3894 40.4076 36.8145 38.4855C39.2396 36.5635 40.891 34.1149 41.6299 31.6663C41.7846 31.1535 41.0676 30.2489 40.533 30.2824C37.9804 30.4426 35.2194 31.491 32.7943 33.4131Z" fill="url(#paint9_linear_127_365)"/>
<path d="M30.3464 28.0022C28.2215 31.2639 27.2299 34.8445 27.3268 38.0605C27.3471 38.7341 28.5638 39.5267 29.1881 39.2732C32.169 38.0623 35.0436 35.7085 37.1685 32.4468C39.2934 29.1852 40.285 25.6046 40.1882 22.3885C40.1679 21.715 38.9511 20.9223 38.3269 21.1758C35.3459 22.3867 32.4713 24.7405 30.3464 28.0022Z" fill="url(#paint10_linear_127_365)"/>
<path d="M39.8256 26.1688C39.3691 28.2754 38.4874 30.4223 37.1686 32.4466C35.0437 35.7083 32.1691 38.0621 29.1881 39.273C28.5637 39.5266 27.3471 38.7339 27.3268 38.0604C27.2298 34.8443 28.2214 31.2637 30.3464 28.002C31.5977 26.0814 33.1089 24.4759 34.7487 23.2329L39.8256 26.1688Z" fill="url(#paint11_linear_127_365)"/>
<path d="M20.9482 49.9999C29.5588 49.9999 36.539 43.0197 36.539 34.4091C36.539 25.7986 29.5588 18.8184 20.9482 18.8184C12.3377 18.8184 5.35742 25.7986 5.35742 34.4091C5.35742 43.0197 12.3377 49.9999 20.9482 49.9999Z" fill="url(#paint12_linear_127_365)"/>
<path d="M20.9484 46.8361C27.8117 46.8361 33.3754 41.2724 33.3754 34.4091C33.3754 27.5459 27.8117 21.9822 20.9484 21.9822C14.0852 21.9822 8.52148 27.5459 8.52148 34.4091C8.52148 41.2724 14.0852 46.8361 20.9484 46.8361Z" fill="url(#paint13_linear_127_365)"/>
<path d="M20.9484 45.0777C26.8405 45.0777 31.617 40.3012 31.617 34.4091C31.617 28.517 26.8405 23.7405 20.9484 23.7405C15.0563 23.7405 10.2798 28.517 10.2798 34.4091C10.2798 40.3012 15.0563 45.0777 20.9484 45.0777Z" fill="url(#paint14_linear_127_365)"/>
<path d="M5.35742 34.4093C5.35742 43.0198 12.3376 50 20.9482 50C29.5588 50 36.539 43.0198 36.539 34.4093C36.539 34.3488 36.5374 34.2887 36.5367 34.2283H5.35968C5.35899 34.2887 5.35742 34.3488 5.35742 34.4093Z" fill="url(#paint15_linear_127_365)"/>
<path d="M25.3212 49.3773C30.2339 47.9446 34.1431 44.1598 35.7483 39.3232L28.1548 31.7298L26.443 31.8138L21.8228 27.1936L16.1919 40.248L25.3212 49.3773Z" fill="url(#paint16_linear_127_365)"/>
<path d="M27.3411 31.0215L24.2836 30.2828C23.9992 30.214 23.7507 30.0416 23.5866 29.7992L21.8241 27.1938C21.6108 26.8787 21.2843 26.7096 20.9482 26.6824C20.6121 26.7096 20.2855 26.8787 20.0723 27.1938L18.3098 29.7992C18.1458 30.0416 17.8973 30.214 17.6128 30.2828L14.5553 31.0215C13.7258 31.2219 13.3803 32.2118 13.9046 32.8849L15.8378 35.3663C16.0176 35.5972 16.1049 35.8868 16.0823 36.1785L15.8401 39.3147C15.7744 40.1654 16.609 40.8001 17.4112 40.5093L20.3686 39.4376C20.5555 39.3698 20.7548 39.3524 20.9482 39.3824C21.1417 39.3525 21.3409 39.3699 21.5278 39.4376L24.4852 40.5093C25.2873 40.8 26.122 40.1654 26.0563 39.3147L25.8141 36.1785C25.7915 35.8868 25.8788 35.5972 26.0586 35.3663L27.9918 32.8849C28.5161 32.2118 28.1706 31.2219 27.3411 31.0215Z" fill="url(#paint17_linear_127_365)"/>
<path d="M21.5278 39.4376L24.4852 40.5093C25.2874 40.8 26.1221 40.1654 26.0564 39.3147L25.8141 36.1785C25.7916 35.8868 25.8788 35.5972 26.0586 35.3663L27.9919 32.8849C28.5163 32.2119 28.1706 31.2219 27.3412 31.0215L24.2836 30.2828C23.9992 30.214 23.7507 30.0416 23.5867 29.7992L21.8241 27.1938C21.6109 26.8787 21.2843 26.7096 20.9482 26.6824V39.3824C21.1418 39.3524 21.3411 39.3698 21.5278 39.4376Z" fill="url(#paint18_linear_127_365)"/>
<path d="M27.3413 31.0214L24.2838 30.2827C24.1793 30.2575 24.0799 30.218 23.9877 30.1665L16.1934 40.2482C16.4991 40.5437 16.9604 40.6728 17.4114 40.5093L20.3688 39.4376C20.5556 39.3698 20.7549 39.3524 20.9484 39.3824C21.1419 39.3525 21.3411 39.3699 21.528 39.4376L24.4853 40.5093C25.2875 40.8 26.1222 40.1654 26.0565 39.3147L25.8142 36.1786C25.7917 35.8868 25.879 35.5972 26.0588 35.3663L27.992 32.8849C28.5163 32.2117 28.1707 31.2218 27.3413 31.0214Z" fill="url(#paint19_linear_127_365)"/>
<path d="M14.5553 31.0214L17.6128 30.2827C17.7172 30.2575 17.8166 30.218 17.9089 30.1665L25.7032 40.2482C25.3974 40.5437 24.9361 40.6728 24.4852 40.5093L21.5278 39.4376C21.3409 39.3698 21.1416 39.3524 20.9482 39.3824C20.7547 39.3525 20.5555 39.3699 20.3686 39.4376L17.4112 40.5093C16.6091 40.8 15.7744 40.1654 15.8401 39.3147L16.0823 36.1786C16.1049 35.8868 16.0176 35.5972 15.8378 35.3663L13.9046 32.8849C13.3803 32.2117 13.7258 31.2218 14.5553 31.0214Z" fill="url(#paint20_linear_127_365)"/>
<path d="M13.7417 31.73C13.5963 32.0966 13.6312 32.5336 13.9048 32.8849L15.838 35.3663C16.0178 35.5971 16.1051 35.8867 16.0825 36.1785L15.8403 39.3147C15.7746 40.1654 16.6092 40.8001 17.4115 40.5093L20.3688 39.4375C20.5557 39.3698 20.755 39.3523 20.9484 39.3823C21.142 39.3524 21.3412 39.3699 21.528 39.4375L24.4854 40.5093C25.2875 40.8 26.1223 40.1654 26.0566 39.3147L25.8143 36.1785C25.8018 36.0166 25.8242 35.8558 25.8764 35.7049L13.7417 31.73Z" fill="url(#paint21_linear_127_365)"/>
<path d="M28.1564 31.73C28.3018 32.0966 28.267 32.5336 27.9933 32.8849L26.0601 35.3663C25.8803 35.5971 25.793 35.8867 25.8156 36.1785L26.0578 39.3147C26.1235 40.1654 25.2888 40.8001 24.4866 40.5093L21.5293 39.4375C21.3424 39.3698 21.1431 39.3523 20.9497 39.3823C20.7561 39.3524 20.5569 39.3699 20.3701 39.4375L17.4127 40.5093C16.6106 40.8 15.7758 40.1654 15.8415 39.3147L16.0838 36.1785C16.0963 36.0166 16.0739 35.8558 16.0217 35.7049L28.1564 31.73Z" fill="url(#paint22_linear_127_365)"/>
<path d="M20.9481 18.8184C20.8834 18.8184 20.8192 18.82 20.7547 18.8208L18.3486 21.2269L35.9134 38.7917C36.3199 37.4013 36.5389 35.9308 36.5389 34.409C36.5389 25.7986 29.5587 18.8184 20.9481 18.8184Z" fill="url(#paint23_linear_127_365)"/>
<path d="M11.5361 0.32666V8.56195L20.9479 17.9737L30.3597 8.56195V0.32666H11.5361Z" fill="url(#paint24_linear_127_365)"/>
<path d="M11.5366 0.32666V2.8896L20.9169 12.2699C20.9343 12.2872 20.9625 12.2872 20.9799 12.2699L30.3602 2.8896V0.32666H11.5366Z" fill="url(#paint25_linear_127_365)"/>
<path d="M11.5366 0.32666V2.8896L20.9169 12.2699C20.9343 12.2872 20.9625 12.2872 20.9799 12.2699L30.3602 2.8896V0.32666H11.5366Z" fill="url(#paint26_linear_127_365)"/>
<path d="M20.9484 13.7528C20.5603 13.7528 20.1724 13.6051 19.8771 13.3097L11.5366 4.96924V8.56198L20.9484 17.9737L30.3602 8.56198V4.96924L22.0197 13.3097C21.7244 13.605 21.3364 13.7528 20.9484 13.7528Z" fill="url(#paint27_linear_127_365)"/>
<path d="M20.9484 13.7528C20.5603 13.7528 20.1724 13.6051 19.8771 13.3097L11.5366 4.96924V8.56198L20.9484 17.9737L30.3602 8.56198V4.96924L22.0197 13.3097C21.7244 13.605 21.3364 13.7528 20.9484 13.7528Z" fill="url(#paint28_linear_127_365)"/>
<path d="M20.9484 13.7528C21.3364 13.7528 21.7244 13.6051 22.0197 13.3097L30.3602 4.96924V8.56198L20.9484 17.9737L11.5366 8.56198V4.96924L19.8771 13.3097C20.1724 13.605 20.5604 13.7528 20.9484 13.7528Z" fill="url(#paint29_linear_127_365)"/>
<path d="M19.9164 15.8359L11.9072 7.82666C11.3066 7.22607 10.3328 7.22607 9.73218 7.82666C9.13159 8.42725 9.13159 9.40107 9.73218 10.0017L20.9485 21.2181L32.1648 10.0018C32.7654 9.40117 32.7654 8.42735 32.1648 7.82676C31.5642 7.22617 30.5904 7.22617 29.9898 7.82676L21.9806 15.836C21.4105 16.406 20.4864 16.406 19.9164 15.8359Z" fill="url(#paint30_linear_127_365)"/>
<path d="M9.73226 7.8449L19.7677 17.8803C20.4199 18.5325 21.4775 18.5325 22.1297 17.8803L32.165 7.8449C32.168 7.84196 32.1703 7.83872 32.1732 7.83578C32.1704 7.83284 32.168 7.8296 32.165 7.82666C31.5644 7.22607 30.5906 7.22607 29.99 7.82666L21.9808 15.8359C21.4108 16.4059 20.4866 16.4059 19.9166 15.8359L11.9074 7.82666C11.3068 7.22607 10.3329 7.22607 9.73236 7.82666C9.72942 7.8296 9.72706 7.83284 9.72412 7.83578C9.72696 7.83872 9.72932 7.84196 9.73226 7.8449Z" fill="url(#paint31_linear_127_365)"/>
<path d="M20.9484 21.2181L28.866 13.3005H24.5159L21.9805 15.8359C21.4105 16.4059 20.4863 16.4059 19.9163 15.8359L17.3809 13.3005H13.0308L20.9484 21.2181Z" fill="url(#paint32_linear_127_365)"/>
<path d="M19.9683 20.2379L20.9487 21.2183L30.9904 11.1765H26.6403L21.9808 15.836C21.4274 16.3895 20.5412 16.4039 19.9683 15.8828V20.2379Z" fill="url(#paint33_linear_127_365)"/>
<path d="M20.9482 22.3037C22.9786 22.3037 24.6245 20.6578 24.6245 18.6274C24.6245 16.5971 22.9786 14.9512 20.9482 14.9512C18.9179 14.9512 17.272 16.5971 17.272 18.6274C17.272 20.6578 18.9179 22.3037 20.9482 22.3037Z" fill="url(#paint34_linear_127_365)"/>
<path d="M20.948 20.7353C22.112 20.7353 23.0556 19.7917 23.0556 18.6277C23.0556 17.4636 22.112 16.52 20.948 16.52C19.784 16.52 18.8403 17.4636 18.8403 18.6277C18.8403 19.7917 19.784 20.7353 20.948 20.7353Z" fill="url(#paint35_linear_127_365)"/>
<path d="M31.7816 3.6601H10.1146C9.49201 3.6601 8.9873 3.15539 8.9873 2.53284V1.12725C8.9873 0.504706 9.49201 0 10.1146 0H31.7817C32.4042 0 32.9089 0.504706 32.9089 1.12725V2.53294C32.9089 3.15549 32.4042 3.6601 31.7816 3.6601Z" fill="url(#paint36_linear_127_365)"/>
<defs>
<linearGradient id="paint0_linear_127_365" x1="4.99349" y1="34.8433" x2="6.76658" y2="39.4626" gradientUnits="userSpaceOnUse">
<stop stop-color="#E6E6E6"/>
<stop offset="1" stop-color="#999999"/>
</linearGradient>
<linearGradient id="paint1_linear_127_365" x1="4.07504" y1="37.2568" x2="7.95245" y2="40.4792" gradientUnits="userSpaceOnUse">
<stop stop-color="#766E6E" stop-opacity="0"/>
<stop offset="0.2806" stop-color="#716B6B" stop-opacity="0.281"/>
<stop offset="0.5705" stop-color="#656060" stop-opacity="0.571"/>
<stop offset="0.8636" stop-color="#514F4F" stop-opacity="0.864"/>
<stop offset="1" stop-color="#444444"/>
</linearGradient>
<linearGradient id="paint2_linear_127_365" x1="2.99542" y1="30.7758" x2="6.71066" y2="35.4582" gradientUnits="userSpaceOnUse">
<stop stop-color="#E6E6E6"/>
<stop offset="1" stop-color="#999999"/>
</linearGradient>
<linearGradient id="paint3_linear_127_365" x1="3.90958" y1="35.1476" x2="7.44012" y2="36.0298" gradientUnits="userSpaceOnUse">
<stop stop-color="#766E6E" stop-opacity="0"/>
<stop offset="0.2806" stop-color="#716B6B" stop-opacity="0.281"/>
<stop offset="0.5705" stop-color="#656060" stop-opacity="0.571"/>
<stop offset="0.8636" stop-color="#514F4F" stop-opacity="0.864"/>
<stop offset="1" stop-color="#444444"/>
</linearGradient>
<linearGradient id="paint4_linear_127_365" x1="7.88169" y1="24.8505" x2="8.26706" y2="32.7894" gradientUnits="userSpaceOnUse">
<stop stop-color="#E6E6E6"/>
<stop offset="1" stop-color="#999999"/>
</linearGradient>
<linearGradient id="paint5_linear_127_365" x1="7.28897" y1="28.959" x2="9.59748" y2="32.3698" gradientUnits="userSpaceOnUse">
<stop stop-color="#766E6E" stop-opacity="0"/>
<stop offset="0.2806" stop-color="#716B6B" stop-opacity="0.281"/>
<stop offset="0.5705" stop-color="#656060" stop-opacity="0.571"/>
<stop offset="0.8636" stop-color="#514F4F" stop-opacity="0.864"/>
<stop offset="1" stop-color="#444444"/>
</linearGradient>
<linearGradient id="paint6_linear_127_365" x1="36.9074" y1="34.8398" x2="35.1343" y2="39.4591" gradientUnits="userSpaceOnUse">
<stop stop-color="#E6E6E6"/>
<stop offset="1" stop-color="#999999"/>
</linearGradient>
<linearGradient id="paint7_linear_127_365" x1="37.8259" y1="37.2532" x2="33.9485" y2="40.4756" gradientUnits="userSpaceOnUse">
<stop stop-color="#766E6E" stop-opacity="0"/>
<stop offset="0.2806" stop-color="#716B6B" stop-opacity="0.281"/>
<stop offset="0.5705" stop-color="#656060" stop-opacity="0.571"/>
<stop offset="0.8636" stop-color="#514F4F" stop-opacity="0.864"/>
<stop offset="1" stop-color="#444444"/>
</linearGradient>
<linearGradient id="paint8_linear_127_365" x1="38.9055" y1="30.7722" x2="35.1902" y2="35.4547" gradientUnits="userSpaceOnUse">
<stop stop-color="#E6E6E6"/>
<stop offset="1" stop-color="#999999"/>
</linearGradient>
<linearGradient id="paint9_linear_127_365" x1="37.9912" y1="35.144" x2="34.4607" y2="36.0263" gradientUnits="userSpaceOnUse">
<stop stop-color="#766E6E" stop-opacity="0"/>
<stop offset="0.2806" stop-color="#716B6B" stop-opacity="0.281"/>
<stop offset="0.5705" stop-color="#656060" stop-opacity="0.571"/>
<stop offset="0.8636" stop-color="#514F4F" stop-opacity="0.864"/>
<stop offset="1" stop-color="#444444"/>
</linearGradient>
<linearGradient id="paint10_linear_127_365" x1="34.0194" y1="24.8469" x2="33.6341" y2="32.7859" gradientUnits="userSpaceOnUse">
<stop stop-color="#E6E6E6"/>
<stop offset="1" stop-color="#999999"/>
</linearGradient>
<linearGradient id="paint11_linear_127_365" x1="34.6118" y1="28.9554" x2="32.3034" y2="32.3662" gradientUnits="userSpaceOnUse">
<stop stop-color="#766E6E" stop-opacity="0"/>
<stop offset="0.2806" stop-color="#716B6B" stop-opacity="0.281"/>
<stop offset="0.5705" stop-color="#656060" stop-opacity="0.571"/>
<stop offset="0.8636" stop-color="#514F4F" stop-opacity="0.864"/>
<stop offset="1" stop-color="#444444"/>
</linearGradient>
<linearGradient id="paint12_linear_127_365" x1="11.3359" y1="24.7968" x2="27.7786" y2="41.2395" gradientUnits="userSpaceOnUse">
<stop stop-color="#E6E6E6"/>
<stop offset="1" stop-color="#999999"/>
</linearGradient>
<linearGradient id="paint13_linear_127_365" x1="29.0196" y1="42.4803" x2="12.6418" y2="26.1025" gradientUnits="userSpaceOnUse">
<stop stop-color="#E6E6E6"/>
<stop offset="1" stop-color="#999999"/>
</linearGradient>
<linearGradient id="paint14_linear_127_365" x1="13.1926" y1="26.6533" x2="25.959" y2="39.4197" gradientUnits="userSpaceOnUse">
<stop stop-color="#E6E6E6"/>
<stop offset="1" stop-color="#999999"/>
</linearGradient>
<linearGradient id="paint15_linear_127_365" x1="20.9482" y1="38.9708" x2="20.9482" y2="49.2042" gradientUnits="userSpaceOnUse">
<stop stop-color="#766E6E" stop-opacity="0"/>
<stop offset="0.2806" stop-color="#716B6B" stop-opacity="0.281"/>
<stop offset="0.5705" stop-color="#656060" stop-opacity="0.571"/>
<stop offset="0.8636" stop-color="#514F4F" stop-opacity="0.864"/>
<stop offset="1" stop-color="#444444"/>
</linearGradient>
<linearGradient id="paint16_linear_127_365" x1="30.2861" y1="42.5116" x2="17.4102" y2="34.407" gradientUnits="userSpaceOnUse">
<stop stop-color="#766E6E" stop-opacity="0"/>
<stop offset="0.2806" stop-color="#716B6B" stop-opacity="0.281"/>
<stop offset="0.5705" stop-color="#656060" stop-opacity="0.571"/>
<stop offset="0.8636" stop-color="#514F4F" stop-opacity="0.864"/>
<stop offset="1" stop-color="#444444"/>
</linearGradient>
<linearGradient id="paint17_linear_127_365" x1="17.7006" y1="31.4458" x2="23.557" y2="37.3022" gradientUnits="userSpaceOnUse">
<stop stop-color="#F9F5F3"/>
<stop offset="1" stop-color="#D8E8F0"/>
</linearGradient>
<linearGradient id="paint18_linear_127_365" x1="24.4574" y1="33.0426" x2="16.3629" y2="36.3888" gradientUnits="userSpaceOnUse">
<stop stop-color="#678D98" stop-opacity="0"/>
<stop offset="0.9957" stop-color="#678D98" stop-opacity="0.996"/>
<stop offset="1" stop-color="#678D98"/>
</linearGradient>
<linearGradient id="paint19_linear_127_365" x1="22.344" y1="35.915" x2="17.9125" y2="34.0157" gradientUnits="userSpaceOnUse">
<stop stop-color="#678D98" stop-opacity="0"/>
<stop offset="0.9957" stop-color="#678D98" stop-opacity="0.996"/>
<stop offset="1" stop-color="#678D98"/>
</linearGradient>
<linearGradient id="paint20_linear_127_365" x1="19.5525" y1="35.915" x2="23.9841" y2="34.0157" gradientUnits="userSpaceOnUse">
<stop stop-color="#678D98" stop-opacity="0"/>
<stop offset="0.9957" stop-color="#678D98" stop-opacity="0.996"/>
<stop offset="1" stop-color="#678D98"/>
</linearGradient>
<linearGradient id="paint21_linear_127_365" x1="19.6513" y1="36.1373" x2="22.5001" y2="31.5588" gradientUnits="userSpaceOnUse">
<stop stop-color="#678D98" stop-opacity="0"/>
<stop offset="0.9957" stop-color="#678D98" stop-opacity="0.996"/>
<stop offset="1" stop-color="#678D98"/>
</linearGradient>
<linearGradient id="paint22_linear_127_365" x1="22.0272" y1="35.5591" x2="21.7899" y2="31.0823" gradientUnits="userSpaceOnUse">
<stop stop-color="#678D98" stop-opacity="0"/>
<stop offset="0.9957" stop-color="#678D98" stop-opacity="0.996"/>
<stop offset="1" stop-color="#678D98"/>
</linearGradient>
<linearGradient id="paint23_linear_127_365" x1="28.6309" y1="27.8227" x2="22.6179" y2="17.2998" gradientUnits="userSpaceOnUse">
<stop stop-color="#766E6E" stop-opacity="0"/>
<stop offset="0.2806" stop-color="#716B6B" stop-opacity="0.281"/>
<stop offset="0.5705" stop-color="#656060" stop-opacity="0.571"/>
<stop offset="0.8636" stop-color="#514F4F" stop-opacity="0.864"/>
<stop offset="1" stop-color="#444444"/>
</linearGradient>
<linearGradient id="paint24_linear_127_365" x1="21.6452" y1="5.55637" x2="25.5177" y2="11.7328" gradientUnits="userSpaceOnUse">
<stop stop-color="#F9F5F3"/>
<stop offset="1" stop-color="#D8E8F0"/>
</linearGradient>
<linearGradient id="paint25_linear_127_365" x1="17.783" y1="-2.02167" x2="29.8092" y2="11.7691" gradientUnits="userSpaceOnUse">
<stop stop-color="#B3DAFE"/>
<stop offset="1" stop-color="#0182FC"/>
</linearGradient>
<linearGradient id="paint26_linear_127_365" x1="20.9484" y1="6.5195" x2="20.9484" y2="3.28088" gradientUnits="userSpaceOnUse">
<stop stop-color="#0182FC" stop-opacity="0"/>
<stop offset="0.1261" stop-color="#017FF3" stop-opacity="0.126"/>
<stop offset="0.3306" stop-color="#0176DB" stop-opacity="0.331"/>
<stop offset="0.5881" stop-color="#0268B4" stop-opacity="0.588"/>
<stop offset="0.8857" stop-color="#02547E" stop-opacity="0.886"/>
<stop offset="1" stop-color="#024C67"/>
</linearGradient>
<linearGradient id="paint27_linear_127_365" x1="15.2283" y1="0.206101" x2="27.2544" y2="13.9969" gradientUnits="userSpaceOnUse">
<stop stop-color="#B3DAFE"/>
<stop offset="1" stop-color="#0182FC"/>
</linearGradient>
<linearGradient id="paint28_linear_127_365" x1="24.6734" y1="10.4905" x2="26.3469" y2="12.164" gradientUnits="userSpaceOnUse">
<stop stop-color="#0182FC" stop-opacity="0"/>
<stop offset="0.1261" stop-color="#017FF3" stop-opacity="0.126"/>
<stop offset="0.3306" stop-color="#0176DB" stop-opacity="0.331"/>
<stop offset="0.5881" stop-color="#0268B4" stop-opacity="0.588"/>
<stop offset="0.8857" stop-color="#02547E" stop-opacity="0.886"/>
<stop offset="1" stop-color="#024C67"/>
</linearGradient>
<linearGradient id="paint29_linear_127_365" x1="17.2234" y1="10.4905" x2="15.5499" y2="12.164" gradientUnits="userSpaceOnUse">
<stop stop-color="#0182FC" stop-opacity="0"/>
<stop offset="0.1261" stop-color="#017FF3" stop-opacity="0.126"/>
<stop offset="0.3306" stop-color="#0176DB" stop-opacity="0.331"/>
<stop offset="0.5881" stop-color="#0268B4" stop-opacity="0.588"/>
<stop offset="0.8857" stop-color="#02547E" stop-opacity="0.886"/>
<stop offset="1" stop-color="#024C67"/>
</linearGradient>
<linearGradient id="paint30_linear_127_365" x1="29.4471" y1="17.4128" x2="9.34316" y2="-2.69109" gradientUnits="userSpaceOnUse">
<stop stop-color="#E6E6E6"/>
<stop offset="1" stop-color="#999999"/>
</linearGradient>
<linearGradient id="paint31_linear_127_365" x1="20.9486" y1="8.00647" x2="20.9486" y2="21.7358" gradientUnits="userSpaceOnUse">
<stop stop-color="#E6E6E6"/>
<stop offset="1" stop-color="#999999"/>
</linearGradient>
<linearGradient id="paint32_linear_127_365" x1="20.9484" y1="15.9802" x2="20.9484" y2="20.4944" gradientUnits="userSpaceOnUse">
<stop stop-color="#766E6E" stop-opacity="0"/>
<stop offset="0.2806" stop-color="#716B6B" stop-opacity="0.281"/>
<stop offset="0.5705" stop-color="#656060" stop-opacity="0.571"/>
<stop offset="0.8636" stop-color="#514F4F" stop-opacity="0.864"/>
<stop offset="1" stop-color="#444444"/>
</linearGradient>
<linearGradient id="paint33_linear_127_365" x1="25.5827" y1="13.4245" x2="22.8376" y2="16.2186" gradientUnits="userSpaceOnUse">
<stop stop-color="#766E6E" stop-opacity="0"/>
<stop offset="0.2806" stop-color="#716B6B" stop-opacity="0.281"/>
<stop offset="0.5705" stop-color="#656060" stop-opacity="0.571"/>
<stop offset="0.8636" stop-color="#514F4F" stop-opacity="0.864"/>
<stop offset="1" stop-color="#444444"/>
</linearGradient>
<linearGradient id="paint34_linear_127_365" x1="18.8404" y1="16.5196" x2="24.0394" y2="21.7186" gradientUnits="userSpaceOnUse">
<stop stop-color="#F9F5F3"/>
<stop offset="1" stop-color="#D8E8F0"/>
</linearGradient>
<linearGradient id="paint35_linear_127_365" x1="22.4431" y1="20.1228" x2="19.8694" y2="17.5491" gradientUnits="userSpaceOnUse">
<stop stop-color="#F9F5F3"/>
<stop offset="1" stop-color="#D8E8F0"/>
</linearGradient>
<linearGradient id="paint36_linear_127_365" x1="20.9481" y1="1.11108" x2="20.9481" y2="3.15402" gradientUnits="userSpaceOnUse">
<stop stop-color="#E6E6E6"/>
<stop offset="1" stop-color="#999999"/>
</linearGradient>
</defs>
</svg>
