<svg width="50" height="50" viewBox="0 0 50 50" fill="none" xmlns="http://www.w3.org/2000/svg">
<path d="M10.7961 37.0443C13.7523 37.426 16.3313 38.6265 18.1574 40.2805C18.5399 40.6268 18.3974 41.7296 17.9396 41.9674C15.7533 43.1032 12.9539 43.6092 9.99772 43.2274C7.04154 42.8457 4.46252 41.6452 2.63644 39.9912C2.25399 39.6449 2.39644 38.5421 2.85428 38.3043C5.04056 37.1685 7.83997 36.6625 10.7961 37.0443Z" fill="url(#paint0_linear_127_270)"/>
<path d="M10.7961 37.0443C13.7523 37.426 16.3313 38.6265 18.1574 40.2805C18.5399 40.6268 18.3974 41.7296 17.9396 41.9674C15.7533 43.1032 12.9539 43.6092 9.99772 43.2274C7.04154 42.8457 4.46252 41.6452 2.63644 39.9912C2.25399 39.6449 2.39644 38.5421 2.85428 38.3043C5.04056 37.1685 7.83997 36.6625 10.7961 37.0443Z" fill="url(#paint1_linear_127_270)"/>
<path d="M11.1414 32.9047C14.3029 34.2753 16.7832 36.4348 18.282 38.8565C18.5959 39.3637 18.0846 40.543 17.4999 40.6606C14.7077 41.2222 11.436 40.8878 8.27467 39.5172C5.1132 38.1466 2.63291 35.9872 1.13408 33.5654C0.82026 33.0582 1.33154 31.8789 1.91624 31.7612C4.7084 31.1998 7.97997 31.5341 11.1414 32.9047Z" fill="url(#paint2_linear_127_270)"/>
<path d="M11.1414 32.9047C14.3029 34.2753 16.7832 36.4348 18.282 38.8565C18.5959 39.3637 18.0846 40.543 17.4999 40.6606C14.7077 41.2222 11.436 40.8878 8.27467 39.5172C5.1132 38.1466 2.63291 35.9872 1.13408 33.5654C0.82026 33.0582 1.33154 31.8789 1.91624 31.7612C4.7084 31.1998 7.97997 31.5341 11.1414 32.9047Z" fill="url(#paint3_linear_127_270)"/>
<path d="M16.834 26.2593C18.1003 29.464 18.3272 32.7448 17.6745 35.5171C17.5378 36.0977 16.3423 36.57 15.8457 36.2397C13.4743 34.6624 11.3973 32.1126 10.131 28.908C8.86476 25.7034 8.6378 22.4225 9.29055 19.6502C9.42722 19.0696 10.6227 18.5973 11.1193 18.9276C13.4907 20.5048 15.5677 23.0546 16.834 26.2593Z" fill="url(#paint4_linear_127_270)"/>
<path d="M16.834 26.2593C18.1003 29.464 18.3272 32.7448 17.6745 35.5171C17.5378 36.0977 16.3423 36.57 15.8457 36.2397C13.4743 34.6624 11.3973 32.1126 10.131 28.908C8.86476 25.7034 8.6378 22.4225 9.29055 19.6502C9.42722 19.0696 10.6227 18.5973 11.1193 18.9276C13.4907 20.5048 15.5677 23.0546 16.834 26.2593Z" fill="url(#paint5_linear_127_270)"/>
<path d="M12.2197 26.3799C15.4432 29.2779 17.5392 32.8449 18.3594 36.3326C18.5312 37.063 17.4501 38.2656 16.7056 38.1722C13.1505 37.7264 9.38145 36.0206 6.15792 33.1224C2.93439 30.2244 0.838407 26.6574 0.0182103 23.1697C-0.153554 22.4393 0.927524 21.2367 1.67203 21.3301C5.22704 21.7759 8.99615 23.4818 12.2197 26.3799Z" fill="url(#paint6_linear_127_270)"/>
<path d="M1.49512 27.1324C2.59169 29.2674 4.15757 31.3237 6.15816 33.1223C9.38169 36.0203 13.1507 37.7263 16.7058 38.1721C17.4503 38.2654 18.5314 37.063 18.3596 36.3325C17.5394 32.8447 15.4435 29.2778 12.2199 26.3797C10.3218 24.6732 8.23433 23.3805 6.11296 22.5146L1.49512 27.1324Z" fill="url(#paint7_linear_127_270)"/>
<path d="M39.2038 37.0443C36.2476 37.426 33.6686 38.6265 31.8425 40.2805C31.46 40.6268 31.6025 41.7296 32.0603 41.9674C34.2466 43.1032 37.046 43.6092 40.0022 43.2274C42.9584 42.8457 45.5374 41.6452 47.3635 39.9912C47.7459 39.6449 47.6035 38.5421 47.1456 38.3043C44.9594 37.1685 42.16 36.6625 39.2038 37.0443Z" fill="url(#paint8_linear_127_270)"/>
<path d="M39.2038 37.0443C36.2476 37.426 33.6686 38.6265 31.8425 40.2805C31.46 40.6268 31.6025 41.7296 32.0603 41.9674C34.2466 43.1032 37.046 43.6092 40.0022 43.2274C42.9584 42.8457 45.5374 41.6452 47.3635 39.9912C47.7459 39.6449 47.6035 38.5421 47.1456 38.3043C44.9594 37.1685 42.16 36.6625 39.2038 37.0443Z" fill="url(#paint9_linear_127_270)"/>
<path d="M38.8582 32.9047C35.6967 34.2753 33.2164 36.4348 31.7176 38.8565C31.4038 39.3637 31.915 40.543 32.4997 40.6606C35.2919 41.2222 38.5636 40.8878 41.7249 39.5172C44.8864 38.1466 47.3667 35.9872 48.8655 33.5654C49.1793 33.0582 48.6681 31.8789 48.0834 31.7612C45.2912 31.1998 42.0196 31.5341 38.8582 32.9047Z" fill="url(#paint10_linear_127_270)"/>
<path d="M38.8582 32.9047C35.6967 34.2753 33.2164 36.4348 31.7176 38.8565C31.4038 39.3637 31.915 40.543 32.4997 40.6606C35.2919 41.2222 38.5636 40.8878 41.7249 39.5172C44.8864 38.1466 47.3667 35.9872 48.8655 33.5654C49.1793 33.0582 48.6681 31.8789 48.0834 31.7612C45.2912 31.1998 42.0196 31.5341 38.8582 32.9047Z" fill="url(#paint11_linear_127_270)"/>
<path d="M33.1657 26.2593C31.8994 29.464 31.6725 32.7448 32.3252 35.5171C32.4619 36.0977 33.6574 36.57 34.1539 36.2397C36.5254 34.6624 38.6024 32.1126 39.8686 28.908C41.1349 25.7034 41.3619 22.4225 40.7091 19.6502C40.5725 19.0696 39.377 18.5973 38.8804 18.9276C36.5089 20.5048 34.432 23.0546 33.1657 26.2593Z" fill="url(#paint12_linear_127_270)"/>
<path d="M33.1657 26.2593C31.8994 29.464 31.6725 32.7448 32.3252 35.5171C32.4619 36.0977 33.6574 36.57 34.1539 36.2397C36.5254 34.6624 38.6024 32.1126 39.8686 28.908C41.1349 25.7034 41.3619 22.4225 40.7091 19.6502C40.5725 19.0696 39.377 18.5973 38.8804 18.9276C36.5089 20.5048 34.432 23.0546 33.1657 26.2593Z" fill="url(#paint13_linear_127_270)"/>
<path d="M37.78 26.3799C34.5565 29.2779 32.4605 32.8449 31.6403 36.3326C31.4685 37.063 32.5496 38.2656 33.2941 38.1722C36.8492 37.7264 40.6182 36.0206 43.8418 33.1224C47.0653 30.2244 49.1613 26.6574 49.9815 23.1697C50.1532 22.4393 49.0721 21.2367 48.3276 21.3301C44.7726 21.7759 41.0035 23.4818 37.78 26.3799Z" fill="url(#paint14_linear_127_270)"/>
<path d="M48.5048 27.1324C47.4082 29.2674 45.8423 31.3237 43.8418 33.1223C40.6182 36.0203 36.8492 37.7263 33.2941 38.1721C32.5496 38.2654 31.4685 37.063 31.6403 36.3325C32.4605 32.8447 34.5565 29.2778 37.78 26.3797C39.6781 24.6732 41.7656 23.3805 43.8869 22.5146L48.5048 27.1324Z" fill="url(#paint15_linear_127_270)"/>
<path d="M25 49.9999C33.6105 49.9999 40.5908 43.0197 40.5908 34.4091C40.5908 25.7986 33.6105 18.8184 25 18.8184C16.3894 18.8184 9.40918 25.7986 9.40918 34.4091C9.40918 43.0197 16.3894 49.9999 25 49.9999Z" fill="url(#paint16_linear_127_270)"/>
<path d="M24.9997 46.8361C31.8629 46.8361 37.4267 41.2724 37.4267 34.4091C37.4267 27.5459 31.8629 21.9822 24.9997 21.9822C18.1365 21.9822 12.5728 27.5459 12.5728 34.4091C12.5728 41.2724 18.1365 46.8361 24.9997 46.8361Z" fill="url(#paint17_linear_127_270)"/>
<path d="M24.9997 45.0777C30.8918 45.0777 35.6683 40.3012 35.6683 34.4091C35.6683 28.517 30.8918 23.7405 24.9997 23.7405C19.1076 23.7405 14.3311 28.517 14.3311 34.4091C14.3311 40.3012 19.1076 45.0777 24.9997 45.0777Z" fill="url(#paint18_linear_127_270)"/>
<path d="M9.40918 34.4093C9.40918 43.0198 16.3894 50 25 50C33.6106 50 40.5908 43.0198 40.5908 34.4093C40.5908 34.3488 40.5892 34.2887 40.5885 34.2283H9.41143C9.41075 34.2887 9.40918 34.3488 9.40918 34.4093Z" fill="url(#paint19_linear_127_270)"/>
<path d="M29.3725 49.3773C34.2851 47.9446 38.1943 44.1598 39.7995 39.3232L32.2061 31.7298L30.4942 31.8138L25.874 27.1936L20.2432 40.248L29.3725 49.3773Z" fill="url(#paint20_linear_127_270)"/>
<path d="M31.3929 31.0215L28.3354 30.2828C28.0509 30.214 27.8024 30.0416 27.6384 29.7992L25.8758 27.1938C25.6626 26.8787 25.336 26.7096 25 26.6824C24.6639 26.7096 24.3372 26.8787 24.1241 27.1938L22.3615 29.7992C22.1976 30.0416 21.9491 30.214 21.6646 30.2828L18.607 31.0215C17.7776 31.2219 17.432 32.2118 17.9563 32.8849L19.8896 35.3663C20.0694 35.5972 20.1566 35.8868 20.1341 36.1785L19.8918 39.3147C19.8261 40.1654 20.6607 40.8001 21.463 40.5093L24.4203 39.4376C24.6072 39.3698 24.8065 39.3524 25 39.3824C25.1935 39.3525 25.3927 39.3699 25.5796 39.4376L28.5369 40.5093C29.3391 40.8 30.1738 40.1654 30.1081 39.3147L29.8658 36.1785C29.8433 35.8868 29.9305 35.5972 30.1104 35.3663L32.0436 32.8849C32.5679 32.2118 32.2223 31.2219 31.3929 31.0215Z" fill="url(#paint21_linear_127_270)"/>
<path d="M25.5796 39.4376L28.537 40.5093C29.3391 40.8 30.1738 40.1654 30.1081 39.3147L29.8659 36.1785C29.8433 35.8868 29.9306 35.5972 30.1104 35.3663L32.0436 32.8849C32.568 32.2119 32.2224 31.2219 31.3929 31.0215L28.3354 30.2828C28.051 30.214 27.8025 30.0416 27.6384 29.7992L25.8759 27.1938C25.6626 26.8787 25.3361 26.7096 25 26.6824V39.3824C25.1935 39.3524 25.3928 39.3698 25.5796 39.4376Z" fill="url(#paint22_linear_127_270)"/>
<path d="M31.3926 31.0214L28.335 30.2827C28.2306 30.2575 28.1312 30.218 28.0389 30.1665L20.2446 40.2482C20.5504 40.5437 21.0117 40.6728 21.4627 40.5093L24.42 39.4376C24.6069 39.3698 24.8062 39.3524 24.9996 39.3824C25.1932 39.3525 25.3924 39.3699 25.5792 39.4376L28.5366 40.5093C29.3387 40.8 30.1735 40.1654 30.1078 39.3147L29.8655 36.1786C29.843 35.8868 29.9302 35.5972 30.11 35.3663L32.0433 32.8849C32.5676 32.2117 32.222 31.2218 31.3926 31.0214Z" fill="url(#paint23_linear_127_270)"/>
<path d="M18.607 31.0214L21.6646 30.2827C21.769 30.2575 21.8684 30.218 21.9606 30.1665L29.755 40.2482C29.4492 40.5437 28.9879 40.6728 28.5369 40.5093L25.5796 39.4376C25.3927 39.3698 25.1934 39.3524 25 39.3824C24.8064 39.3525 24.6072 39.3699 24.4203 39.4376L21.463 40.5093C20.6608 40.8 19.8261 40.1654 19.8918 39.3147L20.1341 36.1786C20.1566 35.8868 20.0694 35.5972 19.8896 35.3663L17.9563 32.8849C17.432 32.2117 17.7776 31.2218 18.607 31.0214Z" fill="url(#paint24_linear_127_270)"/>
<path d="M17.7929 31.73C17.6475 32.0966 17.6824 32.5336 17.9561 32.8849L19.8893 35.3663C20.0691 35.5971 20.1564 35.8867 20.1338 36.1785L19.8916 39.3147C19.8259 40.1654 20.6605 40.8001 21.4627 40.5093L24.4201 39.4375C24.607 39.3698 24.8063 39.3523 24.9997 39.3823C25.1932 39.3524 25.3924 39.3699 25.5793 39.4375L28.5367 40.5093C29.3388 40.8 30.1735 40.1654 30.1078 39.3147L29.8656 36.1785C29.853 36.0166 29.8755 35.8558 29.9276 35.7049L17.7929 31.73Z" fill="url(#paint25_linear_127_270)"/>
<path d="M32.2077 31.73C32.3531 32.0966 32.3183 32.5336 32.0446 32.8849L30.1113 35.3663C29.9315 35.5971 29.8443 35.8867 29.8668 36.1785L30.1091 39.3147C30.1748 40.1654 29.3401 40.8001 28.5379 40.5093L25.5805 39.4375C25.3937 39.3698 25.1944 39.3523 25.0009 39.3823C24.8074 39.3524 24.6082 39.3699 24.4213 39.4375L21.464 40.5093C20.6618 40.8 19.8271 40.1654 19.8928 39.3147L20.1351 36.1785C20.1476 36.0166 20.1252 35.8558 20.073 35.7049L32.2077 31.73Z" fill="url(#paint26_linear_127_270)"/>
<path d="M24.9999 18.8184C24.9352 18.8184 24.871 18.82 24.8065 18.8208L22.4004 21.2269L39.9652 38.7917C40.3717 37.4013 40.5907 35.9308 40.5907 34.409C40.5907 25.7986 33.6105 18.8184 24.9999 18.8184Z" fill="url(#paint27_linear_127_270)"/>
<path d="M15.5879 0.32666V8.56195L24.9997 17.9737L34.4114 8.56195V0.32666H15.5879Z" fill="url(#paint28_linear_127_270)"/>
<path d="M15.5879 0.32666V2.8896L24.9682 12.2699C24.9855 12.2872 25.0138 12.2872 25.0311 12.2699L34.4114 2.8896V0.32666H15.5879Z" fill="url(#paint29_linear_127_270)"/>
<path d="M15.5879 0.32666V2.8896L24.9682 12.2699C24.9855 12.2872 25.0138 12.2872 25.0311 12.2699L34.4114 2.8896V0.32666H15.5879Z" fill="url(#paint30_linear_127_270)"/>
<path d="M24.9997 13.7528C24.6116 13.7528 24.2237 13.6051 23.9284 13.3097L15.5879 4.96924V8.56198L24.9997 17.9737L34.4114 8.56198V4.96924L26.0709 13.3097C25.7756 13.605 25.3877 13.7528 24.9997 13.7528Z" fill="url(#paint31_linear_127_270)"/>
<path d="M24.9997 13.7528C24.6116 13.7528 24.2237 13.6051 23.9284 13.3097L15.5879 4.96924V8.56198L24.9997 17.9737L34.4114 8.56198V4.96924L26.0709 13.3097C25.7756 13.605 25.3877 13.7528 24.9997 13.7528Z" fill="url(#paint32_linear_127_270)"/>
<path d="M24.9997 13.7528C25.3877 13.7528 25.7756 13.6051 26.0709 13.3097L34.4114 4.96924V8.56198L24.9997 17.9737L15.5879 8.56198V4.96924L23.9284 13.3097C24.2237 13.605 24.6117 13.7528 24.9997 13.7528Z" fill="url(#paint33_linear_127_270)"/>
<path d="M23.9677 15.8359L15.9585 7.82666C15.3579 7.22607 14.384 7.22607 13.7834 7.82666C13.1829 8.42725 13.1829 9.40107 13.7834 10.0017L24.9997 21.2181L36.2161 10.0018C36.8167 9.40117 36.8167 8.42735 36.2161 7.82676C35.6155 7.22617 34.6417 7.22617 34.0411 7.82676L26.0319 15.836C25.4618 16.406 24.5377 16.406 23.9677 15.8359Z" fill="url(#paint34_linear_127_270)"/>
<path d="M13.7835 7.8449L23.8189 17.8803C24.4712 18.5325 25.5287 18.5325 26.181 17.8803L36.2163 7.8449C36.2192 7.84196 36.2216 7.83872 36.2245 7.83578C36.2217 7.83284 36.2192 7.8296 36.2163 7.82666C35.6157 7.22607 34.6419 7.22607 34.0413 7.82666L26.0321 15.8359C25.4621 16.4059 24.5378 16.4059 23.9678 15.8359L15.9586 7.82666C15.358 7.22607 14.3842 7.22607 13.7836 7.82666C13.7807 7.8296 13.7783 7.83284 13.7754 7.83578C13.7782 7.83872 13.7806 7.84196 13.7835 7.8449Z" fill="url(#paint35_linear_127_270)"/>
<path d="M24.9997 21.2181L32.9172 13.3005H28.5671L26.0317 15.8359C25.4617 16.4059 24.5375 16.4059 23.9675 15.8359L21.4321 13.3005H17.082L24.9997 21.2181Z" fill="url(#paint36_linear_127_270)"/>
<path d="M24.0195 20.2379L24.9999 21.2183L35.0417 11.1765H30.6916L26.0321 15.836C25.4787 16.3895 24.5925 16.4039 24.0195 15.8828V20.2379Z" fill="url(#paint37_linear_127_270)"/>
<path d="M25 22.3037C27.0304 22.3037 28.6763 20.6578 28.6763 18.6274C28.6763 16.5971 27.0304 14.9512 25 14.9512C22.9697 14.9512 21.3237 16.5971 21.3237 18.6274C21.3237 20.6578 22.9697 22.3037 25 22.3037Z" fill="url(#paint38_linear_127_270)"/>
<path d="M24.9997 20.7353C26.1638 20.7353 27.1074 19.7917 27.1074 18.6277C27.1074 17.4636 26.1638 16.52 24.9997 16.52C23.8357 16.52 22.8921 17.4636 22.8921 18.6277C22.8921 19.7917 23.8357 20.7353 24.9997 20.7353Z" fill="url(#paint39_linear_127_270)"/>
<path d="M35.8334 3.6601H14.1663C13.5438 3.6601 13.0391 3.15539 13.0391 2.53284V1.12725C13.0391 0.504706 13.5438 0 14.1663 0H35.8335C36.4559 0 36.9606 0.504706 36.9606 1.12725V2.53294C36.9606 3.15549 36.4559 3.6601 35.8334 3.6601Z" fill="url(#paint40_linear_127_270)"/>
<defs>
<linearGradient id="paint0_linear_127_270" x1="7.12968" y1="35.631" x2="10.365" y2="40.0918" gradientUnits="userSpaceOnUse">
<stop stop-color="#FEF0AE"/>
<stop offset="1" stop-color="#FBC56D"/>
</linearGradient>
<linearGradient id="paint1_linear_127_270" x1="6.83507" y1="38.4919" x2="11.9331" y2="40.8449" gradientUnits="userSpaceOnUse">
<stop stop-color="#DC8758" stop-opacity="0"/>
<stop offset="0.9957" stop-color="#DC8758" stop-opacity="0.996"/>
<stop offset="1" stop-color="#DC8758"/>
</linearGradient>
<linearGradient id="paint2_linear_127_270" x1="3.81085" y1="31.8287" x2="9.15399" y2="35.7993" gradientUnits="userSpaceOnUse">
<stop stop-color="#FEF0AE"/>
<stop offset="1" stop-color="#FBC56D"/>
</linearGradient>
<linearGradient id="paint3_linear_127_270" x1="6.05085" y1="36.27" x2="10.1031" y2="36.2047" gradientUnits="userSpaceOnUse">
<stop stop-color="#DC8758" stop-opacity="0"/>
<stop offset="0.9957" stop-color="#DC8758" stop-opacity="0.996"/>
<stop offset="1" stop-color="#DC8758"/>
</linearGradient>
<linearGradient id="paint4_linear_127_270" x1="14.5453" y1="22.6949" x2="13.3198" y2="28.3322" gradientUnits="userSpaceOnUse">
<stop stop-color="#FEF0AE"/>
<stop offset="1" stop-color="#FBC56D"/>
</linearGradient>
<linearGradient id="paint5_linear_127_270" x1="9.24976" y1="23.2627" x2="12.387" y2="26.4652" gradientUnits="userSpaceOnUse">
<stop stop-color="#DC8758" stop-opacity="0"/>
<stop offset="0.9957" stop-color="#DC8758" stop-opacity="0.996"/>
<stop offset="1" stop-color="#DC8758"/>
</linearGradient>
<linearGradient id="paint6_linear_127_270" x1="7.36547" y1="24.049" x2="10.0615" y2="32.4804" gradientUnits="userSpaceOnUse">
<stop stop-color="#FEF0AE"/>
<stop offset="1" stop-color="#FBC56D"/>
</linearGradient>
<linearGradient id="paint7_linear_127_270" x1="7.90884" y1="28.6399" x2="11.3729" y2="31.6465" gradientUnits="userSpaceOnUse">
<stop stop-color="#DC8758" stop-opacity="0"/>
<stop offset="0.9957" stop-color="#DC8758" stop-opacity="0.996"/>
<stop offset="1" stop-color="#DC8758"/>
</linearGradient>
<linearGradient id="paint8_linear_127_270" x1="42.8701" y1="35.631" x2="39.6349" y2="40.0918" gradientUnits="userSpaceOnUse">
<stop stop-color="#FEF0AE"/>
<stop offset="1" stop-color="#FBC56D"/>
</linearGradient>
<linearGradient id="paint9_linear_127_270" x1="43.1649" y1="38.4919" x2="38.0668" y2="40.8449" gradientUnits="userSpaceOnUse">
<stop stop-color="#DC8758" stop-opacity="0"/>
<stop offset="0.9957" stop-color="#DC8758" stop-opacity="0.996"/>
<stop offset="1" stop-color="#DC8758"/>
</linearGradient>
<linearGradient id="paint10_linear_127_270" x1="46.1888" y1="31.8287" x2="40.8456" y2="35.7993" gradientUnits="userSpaceOnUse">
<stop stop-color="#FEF0AE"/>
<stop offset="1" stop-color="#FBC56D"/>
</linearGradient>
<linearGradient id="paint11_linear_127_270" x1="43.9488" y1="36.27" x2="39.8965" y2="36.2047" gradientUnits="userSpaceOnUse">
<stop stop-color="#DC8758" stop-opacity="0"/>
<stop offset="0.9957" stop-color="#DC8758" stop-opacity="0.996"/>
<stop offset="1" stop-color="#DC8758"/>
</linearGradient>
<linearGradient id="paint12_linear_127_270" x1="35.4544" y1="22.6949" x2="36.6799" y2="28.3322" gradientUnits="userSpaceOnUse">
<stop stop-color="#FEF0AE"/>
<stop offset="1" stop-color="#FBC56D"/>
</linearGradient>
<linearGradient id="paint13_linear_127_270" x1="40.7499" y1="23.2627" x2="37.6127" y2="26.4652" gradientUnits="userSpaceOnUse">
<stop stop-color="#DC8758" stop-opacity="0"/>
<stop offset="0.9957" stop-color="#DC8758" stop-opacity="0.996"/>
<stop offset="1" stop-color="#DC8758"/>
</linearGradient>
<linearGradient id="paint14_linear_127_270" x1="42.6342" y1="24.049" x2="39.9381" y2="32.4804" gradientUnits="userSpaceOnUse">
<stop stop-color="#FEF0AE"/>
<stop offset="1" stop-color="#FBC56D"/>
</linearGradient>
<linearGradient id="paint15_linear_127_270" x1="42.0911" y1="28.6399" x2="38.627" y2="31.6465" gradientUnits="userSpaceOnUse">
<stop stop-color="#DC8758" stop-opacity="0"/>
<stop offset="0.9957" stop-color="#DC8758" stop-opacity="0.996"/>
<stop offset="1" stop-color="#DC8758"/>
</linearGradient>
<linearGradient id="paint16_linear_127_270" x1="15.3876" y1="24.7968" x2="31.8304" y2="41.2395" gradientUnits="userSpaceOnUse">
<stop stop-color="#FEF0AE"/>
<stop offset="1" stop-color="#FBC56D"/>
</linearGradient>
<linearGradient id="paint17_linear_127_270" x1="33.0709" y1="42.4803" x2="16.6931" y2="26.1025" gradientUnits="userSpaceOnUse">
<stop stop-color="#FEF0AE"/>
<stop offset="1" stop-color="#FBC56D"/>
</linearGradient>
<linearGradient id="paint18_linear_127_270" x1="17.2439" y1="26.6533" x2="30.0103" y2="39.4197" gradientUnits="userSpaceOnUse">
<stop stop-color="#FEF0AE"/>
<stop offset="1" stop-color="#FBC56D"/>
</linearGradient>
<linearGradient id="paint19_linear_127_270" x1="25" y1="38.9708" x2="25" y2="49.2042" gradientUnits="userSpaceOnUse">
<stop stop-color="#DC8758" stop-opacity="0"/>
<stop offset="0.9957" stop-color="#DC8758" stop-opacity="0.996"/>
<stop offset="1" stop-color="#DC8758"/>
</linearGradient>
<linearGradient id="paint20_linear_127_270" x1="34.3374" y1="42.5116" x2="21.4615" y2="34.407" gradientUnits="userSpaceOnUse">
<stop stop-color="#DC8758" stop-opacity="0"/>
<stop offset="0.9957" stop-color="#DC8758" stop-opacity="0.996"/>
<stop offset="1" stop-color="#DC8758"/>
</linearGradient>
<linearGradient id="paint21_linear_127_270" x1="21.7523" y1="31.4458" x2="27.6088" y2="37.3022" gradientUnits="userSpaceOnUse">
<stop stop-color="#FBC56D"/>
<stop offset="1" stop-color="#C5715A"/>
</linearGradient>
<linearGradient id="paint22_linear_127_270" x1="28.5091" y1="33.0426" x2="20.4147" y2="36.3888" gradientUnits="userSpaceOnUse">
<stop stop-color="#8C3D27" stop-opacity="0"/>
<stop offset="1" stop-color="#8C3D27"/>
</linearGradient>
<linearGradient id="paint23_linear_127_270" x1="26.3953" y1="35.915" x2="21.9637" y2="34.0157" gradientUnits="userSpaceOnUse">
<stop stop-color="#8C3D27" stop-opacity="0"/>
<stop offset="1" stop-color="#8C3D27"/>
</linearGradient>
<linearGradient id="paint24_linear_127_270" x1="23.6043" y1="35.915" x2="28.0358" y2="34.0157" gradientUnits="userSpaceOnUse">
<stop stop-color="#8C3D27" stop-opacity="0"/>
<stop offset="1" stop-color="#8C3D27"/>
</linearGradient>
<linearGradient id="paint25_linear_127_270" x1="23.7025" y1="36.1373" x2="26.5514" y2="31.5588" gradientUnits="userSpaceOnUse">
<stop stop-color="#8C3D27" stop-opacity="0"/>
<stop offset="1" stop-color="#8C3D27"/>
</linearGradient>
<linearGradient id="paint26_linear_127_270" x1="26.0785" y1="35.5591" x2="25.8411" y2="31.0823" gradientUnits="userSpaceOnUse">
<stop stop-color="#8C3D27" stop-opacity="0"/>
<stop offset="1" stop-color="#8C3D27"/>
</linearGradient>
<linearGradient id="paint27_linear_127_270" x1="32.6826" y1="27.8227" x2="26.6696" y2="17.2998" gradientUnits="userSpaceOnUse">
<stop stop-color="#DC8758" stop-opacity="0"/>
<stop offset="0.9957" stop-color="#DC8758" stop-opacity="0.996"/>
<stop offset="1" stop-color="#DC8758"/>
</linearGradient>
<linearGradient id="paint28_linear_127_270" x1="25.6969" y1="5.55637" x2="29.5695" y2="11.7328" gradientUnits="userSpaceOnUse">
<stop stop-color="#F9F5F3"/>
<stop offset="1" stop-color="#D8E8F0"/>
</linearGradient>
<linearGradient id="paint29_linear_127_270" x1="21.8343" y1="-2.02167" x2="33.8604" y2="11.7691" gradientUnits="userSpaceOnUse">
<stop stop-color="#FD4755"/>
<stop offset="1" stop-color="#A72B2B"/>
</linearGradient>
<linearGradient id="paint30_linear_127_270" x1="24.9997" y1="6.5195" x2="24.9997" y2="3.28088" gradientUnits="userSpaceOnUse">
<stop stop-color="#A72B2B" stop-opacity="0"/>
<stop offset="1" stop-color="#42210B"/>
</linearGradient>
<linearGradient id="paint31_linear_127_270" x1="19.2796" y1="0.206101" x2="31.3056" y2="13.9969" gradientUnits="userSpaceOnUse">
<stop stop-color="#FD4755"/>
<stop offset="1" stop-color="#A72B2B"/>
</linearGradient>
<linearGradient id="paint32_linear_127_270" x1="28.7247" y1="10.4905" x2="30.3982" y2="12.164" gradientUnits="userSpaceOnUse">
<stop stop-color="#A72B2B" stop-opacity="0"/>
<stop offset="1" stop-color="#42210B"/>
</linearGradient>
<linearGradient id="paint33_linear_127_270" x1="21.2747" y1="10.4905" x2="19.6011" y2="12.164" gradientUnits="userSpaceOnUse">
<stop stop-color="#A72B2B" stop-opacity="0"/>
<stop offset="1" stop-color="#42210B"/>
</linearGradient>
<linearGradient id="paint34_linear_127_270" x1="33.4984" y1="17.4128" x2="13.3944" y2="-2.69109" gradientUnits="userSpaceOnUse">
<stop stop-color="#FEF0AE"/>
<stop offset="1" stop-color="#FBC56D"/>
</linearGradient>
<linearGradient id="paint35_linear_127_270" x1="24.9999" y1="8.00647" x2="24.9999" y2="21.7358" gradientUnits="userSpaceOnUse">
<stop stop-color="#FEF0AE"/>
<stop offset="1" stop-color="#FBC56D"/>
</linearGradient>
<linearGradient id="paint36_linear_127_270" x1="24.9997" y1="15.9802" x2="24.9997" y2="20.4944" gradientUnits="userSpaceOnUse">
<stop stop-color="#DC8758" stop-opacity="0"/>
<stop offset="0.9957" stop-color="#DC8758" stop-opacity="0.996"/>
<stop offset="1" stop-color="#DC8758"/>
</linearGradient>
<linearGradient id="paint37_linear_127_270" x1="29.6339" y1="13.4245" x2="26.8888" y2="16.2186" gradientUnits="userSpaceOnUse">
<stop stop-color="#DC8758" stop-opacity="0"/>
<stop offset="0.9957" stop-color="#DC8758" stop-opacity="0.996"/>
<stop offset="1" stop-color="#DC8758"/>
</linearGradient>
<linearGradient id="paint38_linear_127_270" x1="22.8922" y1="16.5196" x2="28.0912" y2="21.7186" gradientUnits="userSpaceOnUse">
<stop stop-color="#FBC56D"/>
<stop offset="1" stop-color="#C5715A"/>
</linearGradient>
<linearGradient id="paint39_linear_127_270" x1="27.0586" y1="20.6865" x2="22.1883" y2="15.8162" gradientUnits="userSpaceOnUse">
<stop stop-color="#FBC56D"/>
<stop offset="1" stop-color="#C5715A"/>
</linearGradient>
<linearGradient id="paint40_linear_127_270" x1="24.9999" y1="1.11108" x2="24.9999" y2="3.15402" gradientUnits="userSpaceOnUse">
<stop stop-color="#FEF0AE"/>
<stop offset="1" stop-color="#FBC56D"/>
</linearGradient>
</defs>
</svg>
