<svg width="41" height="51" viewBox="0 0 41 51" fill="none" xmlns="http://www.w3.org/2000/svg">
<path d="M8.80768 31.7234C11.0192 33.8879 12.4062 36.4953 12.8857 39.0076C12.9861 39.5338 12.1788 40.3587 11.6505 40.2696C9.12847 39.8442 6.4919 38.5134 4.28043 36.349C2.06896 34.1846 0.681897 31.5771 0.202387 29.0648C0.101995 28.5386 0.909349 27.7137 1.43758 27.8028C3.95964 28.2282 6.59621 29.5589 8.80768 31.7234Z" fill="url(#paint0_linear_127_321)"/>
<path d="M8.80768 31.7234C11.0192 33.8879 12.4062 36.4953 12.8857 39.0076C12.9861 39.5338 12.1788 40.3587 11.6505 40.2696C9.12847 39.8442 6.4919 38.5134 4.28043 36.349C2.06896 34.1846 0.681897 31.5771 0.202387 29.0648C0.101995 28.5386 0.909349 27.7137 1.43758 27.8028C3.95964 28.2282 6.59621 29.5589 8.80768 31.7234Z" fill="url(#paint1_linear_127_321)"/>
<path d="M11.8068 26.5973C13.58 30.0628 14.1928 33.7272 13.761 36.9158C13.6706 37.5835 12.3779 38.245 11.7833 37.9276C8.94482 36.4125 6.33139 33.7717 4.55825 30.3062C2.78511 26.8408 2.17227 23.1763 2.60403 19.9878C2.69442 19.3201 3.98717 18.6586 4.58168 18.976C7.42011 20.4911 10.0335 23.1318 11.8068 26.5973Z" fill="url(#paint2_linear_127_321)"/>
<path d="M2.57031 23.7857C2.80463 25.9283 3.45776 28.1556 4.55825 30.3063C6.33149 33.7718 8.94482 36.4126 11.7834 37.9277C12.3778 38.245 13.6705 37.5835 13.761 36.9159C14.1928 33.7274 13.58 30.0629 11.8068 26.5974C10.7627 24.5567 9.42698 22.8025 7.92571 21.3953L2.57031 23.7857Z" fill="url(#paint3_linear_127_321)"/>
<path d="M31.9464 31.7234C29.735 33.8879 28.3479 36.4953 27.8684 39.0076C27.768 39.5338 28.5754 40.3587 29.1036 40.2696C31.6257 39.8442 34.2622 38.5134 36.4737 36.349C38.6852 34.1846 40.0722 31.5771 40.5517 29.0648C40.6521 28.5386 39.8448 27.7137 39.3165 27.8028C36.7945 28.2282 34.1579 29.5589 31.9464 31.7234Z" fill="url(#paint4_linear_127_321)"/>
<path d="M31.9464 31.7234C29.735 33.8879 28.3479 36.4953 27.8684 39.0076C27.768 39.5338 28.5754 40.3587 29.1036 40.2696C31.6257 39.8442 34.2622 38.5134 36.4737 36.349C38.6852 34.1846 40.0722 31.5771 40.5517 29.0648C40.6521 28.5386 39.8448 27.7137 39.3165 27.8028C36.7945 28.2282 34.1579 29.5589 31.9464 31.7234Z" fill="url(#paint5_linear_127_321)"/>
<path d="M28.9474 26.5973C27.1742 30.0628 26.5614 33.7272 26.9932 36.9158C27.0836 37.5835 28.3763 38.245 28.9708 37.9276C31.8094 36.4125 34.4228 33.7717 36.196 30.3062C37.9691 26.8408 38.5819 23.1763 38.1502 19.9878C38.0598 19.3201 36.767 18.6586 36.1725 18.976C33.3341 20.4911 30.7207 23.1318 28.9474 26.5973Z" fill="url(#paint6_linear_127_321)"/>
<path d="M38.1839 23.7857C37.9496 25.9283 37.2964 28.1556 36.196 30.3063C34.4227 33.7718 31.8094 36.4126 28.9708 37.9277C28.3764 38.245 27.0837 37.5835 26.9932 36.9159C26.5614 33.7274 27.1742 30.0629 28.9474 26.5974C29.9915 24.5567 31.3272 22.8025 32.8285 21.3953L38.1839 23.7857Z" fill="url(#paint7_linear_127_321)"/>
<path d="M20.3769 50.3998C28.9875 50.3998 35.9677 43.4196 35.9677 34.809C35.9677 26.1985 28.9875 19.2183 20.3769 19.2183C11.7664 19.2183 4.78613 26.1985 4.78613 34.809C4.78613 43.4196 11.7664 50.3998 20.3769 50.3998Z" fill="url(#paint8_linear_127_321)"/>
<path d="M20.3772 47.236C27.2404 47.236 32.8041 41.6723 32.8041 34.809C32.8041 27.9458 27.2404 22.3821 20.3772 22.3821C13.5139 22.3821 7.9502 27.9458 7.9502 34.809C7.9502 41.6723 13.5139 47.236 20.3772 47.236Z" fill="url(#paint9_linear_127_321)"/>
<path d="M20.3771 45.4776C26.2692 45.4776 31.0458 40.7011 31.0458 34.809C31.0458 28.9169 26.2692 24.1404 20.3771 24.1404C14.485 24.1404 9.7085 28.9169 9.7085 34.809C9.7085 40.7011 14.485 45.4776 20.3771 45.4776Z" fill="url(#paint10_linear_127_321)"/>
<path d="M4.78613 34.8092C4.78613 43.4197 11.7663 50.3999 20.3769 50.3999C28.9875 50.3999 35.9677 43.4197 35.9677 34.8092C35.9677 34.7487 35.9661 34.6886 35.9655 34.6282H4.78839C4.7877 34.6886 4.78613 34.7487 4.78613 34.8092Z" fill="url(#paint11_linear_127_321)"/>
<path d="M24.7499 49.7775C29.6626 48.3447 33.5718 44.5599 35.177 39.7234L27.5836 32.1299L25.8717 32.2139L21.2515 27.5938L15.6206 40.6482L24.7499 49.7775Z" fill="url(#paint12_linear_127_321)"/>
<path d="M26.7699 31.4214L23.7123 30.6827C23.4279 30.6139 23.1794 30.4415 23.0153 30.1991L21.2528 27.5937C21.0396 27.2786 20.713 27.1095 20.3769 27.0823C20.0408 27.1095 19.7142 27.2786 19.501 27.5937L17.7385 30.1991C17.5746 30.4415 17.326 30.6139 17.0415 30.6827L13.984 31.4214C13.1546 31.6218 12.809 32.6117 13.3333 33.2848L15.2665 35.7662C15.4463 35.9971 15.5336 36.2867 15.511 36.5785L15.2688 39.7146C15.2031 40.5653 16.0377 41.2 16.84 40.9092L19.7973 39.8375C19.9842 39.7697 20.1835 39.7523 20.3769 39.7823C20.5704 39.7524 20.7697 39.7698 20.9565 39.8375L23.9139 40.9092C24.716 41.1999 25.5507 40.5653 25.485 39.7146L25.2428 36.5785C25.2202 36.2867 25.3075 35.9971 25.4873 35.7662L27.4205 33.2848C27.9449 32.6117 27.5993 31.6218 26.7699 31.4214Z" fill="url(#paint13_linear_127_321)"/>
<path d="M20.9566 39.8375L23.9139 40.9092C24.7161 41.1999 25.5508 40.5653 25.4851 39.7146L25.2428 36.5785C25.2203 36.2867 25.3075 35.9971 25.4873 35.7662L27.4206 33.2848C27.945 32.6118 27.5993 31.6218 26.7699 31.4214L23.7123 30.6827C23.4279 30.6139 23.1794 30.4415 23.0154 30.1991L21.2528 27.5937C21.0396 27.2786 20.713 27.1095 20.377 27.0823V39.7823C20.5705 39.7523 20.7698 39.7697 20.9566 39.8375Z" fill="url(#paint14_linear_127_321)"/>
<path d="M26.77 31.4213L23.7125 30.6826C23.6081 30.6574 23.5086 30.6179 23.4164 30.5664L15.6221 40.6481C15.9279 40.9436 16.3891 41.0727 16.8401 40.9093L19.7975 39.8375C19.9843 39.7697 20.1836 39.7523 20.3771 39.7823C20.5706 39.7524 20.7698 39.7698 20.9567 39.8375L23.914 40.9093C24.7162 41.1999 25.5509 40.5653 25.4852 39.7146L25.243 36.5785C25.2204 36.2867 25.3077 35.9971 25.4875 35.7662L27.4207 33.2848C27.945 32.6116 27.5994 31.6217 26.77 31.4213Z" fill="url(#paint15_linear_127_321)"/>
<path d="M13.984 31.4213L17.0415 30.6826C17.1459 30.6574 17.2453 30.6179 17.3376 30.5664L25.1319 40.6481C24.8261 40.9436 24.3649 41.0727 23.9139 40.9093L20.9565 39.8375C20.7697 39.7697 20.5703 39.7523 20.3769 39.7823C20.1834 39.7524 19.9842 39.7698 19.7973 39.8375L16.84 40.9093C16.0378 41.1999 15.2031 40.5653 15.2688 39.7146L15.511 36.5785C15.5336 36.2867 15.4463 35.9971 15.2665 35.7662L13.3333 33.2848C12.809 32.6116 13.1546 31.6217 13.984 31.4213Z" fill="url(#paint16_linear_127_321)"/>
<path d="M13.1704 32.1299C13.025 32.4965 13.0599 32.9335 13.3335 33.2848L15.2667 35.7662C15.4466 35.997 15.5338 36.2866 15.5113 36.5784L15.269 39.7146C15.2033 40.5653 16.0379 41.2 16.8402 40.9092L19.7975 39.8374C19.9844 39.7697 20.1837 39.7522 20.3771 39.7822C20.5707 39.7523 20.7699 39.7698 20.9567 39.8374L23.9141 40.9092C24.7163 41.1999 25.551 40.5653 25.4853 39.7146L25.243 36.5784C25.2305 36.4165 25.2529 36.2557 25.3051 36.1048L13.1704 32.1299Z" fill="url(#paint17_linear_127_321)"/>
<path d="M27.5851 32.1299C27.7305 32.4965 27.6957 32.9335 27.422 33.2848L25.4888 35.7662C25.309 35.997 25.2217 36.2866 25.2443 36.5784L25.4865 39.7146C25.5522 40.5653 24.7175 41.2 23.9153 40.9092L20.958 39.8374C20.7711 39.7697 20.5718 39.7522 20.3784 39.7822C20.1849 39.7523 19.9856 39.7698 19.7988 39.8374L16.8414 40.9092C16.0393 41.1999 15.2046 40.5653 15.2702 39.7146L15.5125 36.5784C15.525 36.4165 15.5026 36.2557 15.4504 36.1048L27.5851 32.1299Z" fill="url(#paint18_linear_127_321)"/>
<path d="M20.3773 19.2183C20.3126 19.2183 20.2484 19.2199 20.1839 19.2207L17.7778 21.6268L35.3426 39.1916C35.7491 37.8012 35.9681 36.3307 35.9681 34.8089C35.9681 26.1985 28.9879 19.2183 20.3773 19.2183Z" fill="url(#paint19_linear_127_321)"/>
<path d="M10.9653 0.726562V8.96186L20.3771 18.3736L29.7889 8.96186V0.726562H10.9653Z" fill="url(#paint20_linear_127_321)"/>
<path d="M10.9653 0.726562V3.2895L20.3456 12.6698C20.363 12.6872 20.3912 12.6872 20.4086 12.6698L29.7889 3.2895V0.726562H10.9653Z" fill="url(#paint21_linear_127_321)"/>
<path d="M20.3771 14.1527C19.9891 14.1527 19.6011 14.005 19.3058 13.7096L10.9653 5.36914V8.96189L20.3771 18.3737L29.7889 8.96189V5.36914L21.4484 13.7096C21.1531 14.0049 20.7651 14.1527 20.3771 14.1527Z" fill="url(#paint22_linear_127_321)"/>
<path d="M10.9653 0.726562V3.2895L20.3456 12.6698C20.363 12.6872 20.3912 12.6872 20.4086 12.6698L29.7889 3.2895V0.726562H10.9653Z" fill="url(#paint23_linear_127_321)"/>
<path d="M20.3771 14.1527C19.9891 14.1527 19.6011 14.005 19.3058 13.7096L10.9653 5.36914V8.96189L20.3771 18.3737L29.7889 8.96189V5.36914L21.4484 13.7096C21.1531 14.0049 20.7651 14.1527 20.3771 14.1527Z" fill="url(#paint24_linear_127_321)"/>
<path d="M20.3771 14.1527C20.7651 14.1527 21.1531 14.005 21.4484 13.7096L29.7889 5.36914V8.96189L20.3771 18.3737L10.9653 8.96189V5.36914L19.3058 13.7096C19.6011 14.0049 19.9892 14.1527 20.3771 14.1527Z" fill="url(#paint25_linear_127_321)"/>
<path d="M19.3451 16.2358L11.3359 8.22656C10.7353 7.62598 9.76148 7.62598 9.16089 8.22656C8.5603 8.82715 8.5603 9.80098 9.16089 10.4016L20.3772 21.618L31.5935 10.4017C32.1941 9.80107 32.1941 8.82725 31.5935 8.22666C30.993 7.62607 30.0191 7.62607 29.4185 8.22666L21.4093 16.2359C20.8392 16.8059 19.9151 16.8059 19.3451 16.2358Z" fill="url(#paint26_linear_127_321)"/>
<path d="M9.16097 8.2448L19.1964 18.2802C19.8486 18.9324 20.9062 18.9324 21.5584 18.2802L31.5937 8.2448C31.5967 8.24186 31.599 8.23862 31.602 8.23568C31.5991 8.23274 31.5967 8.22951 31.5937 8.22656C30.9931 7.62598 30.0193 7.62598 29.4187 8.22656L21.4095 16.2358C20.8395 16.8058 19.9153 16.8058 19.3453 16.2358L11.3361 8.22656C10.7355 7.62598 9.76166 7.62598 9.16107 8.22656C9.15813 8.22951 9.15577 8.23274 9.15283 8.23568C9.15568 8.23862 9.15803 8.24186 9.16097 8.2448Z" fill="url(#paint27_linear_127_321)"/>
<path d="M20.3771 21.618L28.2947 13.7004H23.9446L21.4092 16.2358C20.8392 16.8058 19.915 16.8058 19.345 16.2358L16.8096 13.7004H12.4595L20.3771 21.618Z" fill="url(#paint28_linear_127_321)"/>
<path d="M19.397 20.6378L20.3774 21.6182L30.4191 11.5764H26.069L21.4095 16.2359C20.8561 16.7894 19.9699 16.8038 19.397 16.2827V20.6378Z" fill="url(#paint29_linear_127_321)"/>
<path d="M20.3774 22.7036C22.4078 22.7036 24.0537 21.0577 24.0537 19.0273C24.0537 16.997 22.4078 15.3511 20.3774 15.3511C18.3471 15.3511 16.7012 16.997 16.7012 19.0273C16.7012 21.0577 18.3471 22.7036 20.3774 22.7036Z" fill="url(#paint30_linear_127_321)"/>
<path d="M20.3772 21.1352C21.5412 21.1352 22.4848 20.1916 22.4848 19.0276C22.4848 17.8635 21.5412 16.9199 20.3772 16.9199C19.2132 16.9199 18.2695 17.8635 18.2695 19.0276C18.2695 20.1916 19.2132 21.1352 20.3772 21.1352Z" fill="url(#paint31_linear_127_321)"/>
<path d="M31.2108 4.06H9.54376C8.92121 4.06 8.4165 3.55529 8.4165 2.93275V1.52716C8.4165 0.904608 8.92121 0.399902 9.54376 0.399902H31.2109C31.8334 0.399902 32.3381 0.904608 32.3381 1.52716V2.93284C32.3381 3.55539 31.8334 4.06 31.2108 4.06Z" fill="url(#paint32_linear_127_321)"/>
<defs>
<linearGradient id="paint0_linear_127_321" x1="2.98196" y1="28.4935" x2="6.18705" y2="33.5418" gradientUnits="userSpaceOnUse">
<stop stop-color="#FBC56D"/>
<stop offset="1" stop-color="#C5715A"/>
</linearGradient>
<linearGradient id="paint1_linear_127_321" x1="3.43287" y1="32.9389" x2="6.85283" y2="34.1869" gradientUnits="userSpaceOnUse">
<stop stop-color="#8C3D27" stop-opacity="0"/>
<stop offset="1" stop-color="#8C3D27"/>
</linearGradient>
<linearGradient id="paint2_linear_127_321" x1="8.46467" y1="23.111" x2="8.01536" y2="31.0498" gradientUnits="userSpaceOnUse">
<stop stop-color="#FBC56D"/>
<stop offset="1" stop-color="#C5715A"/>
</linearGradient>
<linearGradient id="paint3_linear_127_321" x1="7.44428" y1="27.1367" x2="9.38324" y2="30.7722" gradientUnits="userSpaceOnUse">
<stop stop-color="#8C3D27" stop-opacity="0"/>
<stop offset="1" stop-color="#8C3D27"/>
</linearGradient>
<linearGradient id="paint4_linear_127_321" x1="37.7643" y1="28.5074" x2="34.5592" y2="33.5555" gradientUnits="userSpaceOnUse">
<stop stop-color="#FBC56D"/>
<stop offset="1" stop-color="#C5715A"/>
</linearGradient>
<linearGradient id="paint5_linear_127_321" x1="37.3134" y1="32.9527" x2="33.8934" y2="34.2006" gradientUnits="userSpaceOnUse">
<stop stop-color="#8C3D27" stop-opacity="0"/>
<stop offset="1" stop-color="#8C3D27"/>
</linearGradient>
<linearGradient id="paint6_linear_127_321" x1="32.2817" y1="23.1249" x2="32.731" y2="31.0636" gradientUnits="userSpaceOnUse">
<stop stop-color="#FBC56D"/>
<stop offset="1" stop-color="#C5715A"/>
</linearGradient>
<linearGradient id="paint7_linear_127_321" x1="33.3021" y1="27.1504" x2="31.3631" y2="30.7859" gradientUnits="userSpaceOnUse">
<stop stop-color="#8C3D27" stop-opacity="0"/>
<stop offset="1" stop-color="#8C3D27"/>
</linearGradient>
<linearGradient id="paint8_linear_127_321" x1="10.7646" y1="25.1967" x2="27.2073" y2="41.6394" gradientUnits="userSpaceOnUse">
<stop stop-color="#FBC56D"/>
<stop offset="1" stop-color="#C5715A"/>
</linearGradient>
<linearGradient id="paint9_linear_127_321" x1="28.4483" y1="42.8802" x2="12.0705" y2="26.5024" gradientUnits="userSpaceOnUse">
<stop stop-color="#FBC56D"/>
<stop offset="1" stop-color="#C5715A"/>
</linearGradient>
<linearGradient id="paint10_linear_127_321" x1="12.6213" y1="27.0532" x2="25.3877" y2="39.8196" gradientUnits="userSpaceOnUse">
<stop stop-color="#FBC56D"/>
<stop offset="1" stop-color="#C5715A"/>
</linearGradient>
<linearGradient id="paint11_linear_127_321" x1="20.3769" y1="39.3707" x2="20.3769" y2="49.6041" gradientUnits="userSpaceOnUse">
<stop stop-color="#8C3D27" stop-opacity="0"/>
<stop offset="1" stop-color="#8C3D27"/>
</linearGradient>
<linearGradient id="paint12_linear_127_321" x1="29.7148" y1="42.9118" x2="16.8389" y2="34.8072" gradientUnits="userSpaceOnUse">
<stop stop-color="#8C3D27" stop-opacity="0"/>
<stop offset="1" stop-color="#8C3D27"/>
</linearGradient>
<linearGradient id="paint13_linear_127_321" x1="17.1293" y1="31.8457" x2="22.9857" y2="37.7021" gradientUnits="userSpaceOnUse">
<stop stop-color="#FBC56D"/>
<stop offset="1" stop-color="#C5715A"/>
</linearGradient>
<linearGradient id="paint14_linear_127_321" x1="23.8861" y1="33.4425" x2="15.7917" y2="36.7887" gradientUnits="userSpaceOnUse">
<stop stop-color="#8C3D27" stop-opacity="0"/>
<stop offset="1" stop-color="#8C3D27"/>
</linearGradient>
<linearGradient id="paint15_linear_127_321" x1="21.7728" y1="36.3149" x2="17.3412" y2="34.4156" gradientUnits="userSpaceOnUse">
<stop stop-color="#8C3D27" stop-opacity="0"/>
<stop offset="1" stop-color="#8C3D27"/>
</linearGradient>
<linearGradient id="paint16_linear_127_321" x1="18.9812" y1="36.3149" x2="23.4128" y2="34.4156" gradientUnits="userSpaceOnUse">
<stop stop-color="#8C3D27" stop-opacity="0"/>
<stop offset="1" stop-color="#8C3D27"/>
</linearGradient>
<linearGradient id="paint17_linear_127_321" x1="19.08" y1="36.5372" x2="21.9288" y2="31.9587" gradientUnits="userSpaceOnUse">
<stop stop-color="#8C3D27" stop-opacity="0"/>
<stop offset="1" stop-color="#8C3D27"/>
</linearGradient>
<linearGradient id="paint18_linear_127_321" x1="21.4559" y1="35.959" x2="21.2186" y2="31.4822" gradientUnits="userSpaceOnUse">
<stop stop-color="#8C3D27" stop-opacity="0"/>
<stop offset="1" stop-color="#8C3D27"/>
</linearGradient>
<linearGradient id="paint19_linear_127_321" x1="28.0601" y1="28.2226" x2="22.0471" y2="17.6997" gradientUnits="userSpaceOnUse">
<stop stop-color="#8C3D27" stop-opacity="0"/>
<stop offset="1" stop-color="#8C3D27"/>
</linearGradient>
<linearGradient id="paint20_linear_127_321" x1="21.0744" y1="5.95627" x2="24.9469" y2="12.1327" gradientUnits="userSpaceOnUse">
<stop stop-color="#F9F5F3"/>
<stop offset="1" stop-color="#D8E8F0"/>
</linearGradient>
<linearGradient id="paint21_linear_127_321" x1="17.2117" y1="-1.62177" x2="29.2379" y2="12.169" gradientUnits="userSpaceOnUse">
<stop stop-color="#BBEC6C"/>
<stop offset="1" stop-color="#81B823"/>
</linearGradient>
<linearGradient id="paint22_linear_127_321" x1="14.657" y1="0.606003" x2="26.6831" y2="14.3968" gradientUnits="userSpaceOnUse">
<stop stop-color="#BBEC6C"/>
<stop offset="1" stop-color="#81B823"/>
</linearGradient>
<linearGradient id="paint23_linear_127_321" x1="20.3771" y1="6.91941" x2="20.3771" y2="3.68078" gradientUnits="userSpaceOnUse">
<stop stop-color="#78A91F" stop-opacity="0"/>
<stop offset="1" stop-color="#78A91F"/>
</linearGradient>
<linearGradient id="paint24_linear_127_321" x1="24.1021" y1="10.8904" x2="25.7756" y2="12.5639" gradientUnits="userSpaceOnUse">
<stop stop-color="#78A91F" stop-opacity="0"/>
<stop offset="1" stop-color="#78A91F"/>
</linearGradient>
<linearGradient id="paint25_linear_127_321" x1="16.6521" y1="10.8904" x2="14.9786" y2="12.5639" gradientUnits="userSpaceOnUse">
<stop stop-color="#78A91F" stop-opacity="0"/>
<stop offset="1" stop-color="#78A91F"/>
</linearGradient>
<linearGradient id="paint26_linear_127_321" x1="28.8758" y1="17.8127" x2="8.77187" y2="-2.29118" gradientUnits="userSpaceOnUse">
<stop stop-color="#FBC56D"/>
<stop offset="1" stop-color="#C5715A"/>
</linearGradient>
<linearGradient id="paint27_linear_127_321" x1="20.3773" y1="8.40637" x2="20.3773" y2="22.1357" gradientUnits="userSpaceOnUse">
<stop stop-color="#FBC56D"/>
<stop offset="1" stop-color="#C5715A"/>
</linearGradient>
<linearGradient id="paint28_linear_127_321" x1="20.3771" y1="16.3801" x2="20.3771" y2="20.8943" gradientUnits="userSpaceOnUse">
<stop stop-color="#8C3D27" stop-opacity="0"/>
<stop offset="1" stop-color="#8C3D27"/>
</linearGradient>
<linearGradient id="paint29_linear_127_321" x1="25.0114" y1="13.8244" x2="22.2663" y2="16.6185" gradientUnits="userSpaceOnUse">
<stop stop-color="#8C3D27" stop-opacity="0"/>
<stop offset="1" stop-color="#8C3D27"/>
</linearGradient>
<linearGradient id="paint30_linear_127_321" x1="18.2696" y1="16.9195" x2="23.4686" y2="22.1185" gradientUnits="userSpaceOnUse">
<stop stop-color="#FBC56D"/>
<stop offset="1" stop-color="#C5715A"/>
</linearGradient>
<linearGradient id="paint31_linear_127_321" x1="21.8723" y1="20.5227" x2="19.2986" y2="17.949" gradientUnits="userSpaceOnUse">
<stop stop-color="#FBC56D"/>
<stop offset="1" stop-color="#C5715A"/>
</linearGradient>
<linearGradient id="paint32_linear_127_321" x1="20.3773" y1="1.51098" x2="20.3773" y2="3.55392" gradientUnits="userSpaceOnUse">
<stop stop-color="#FBC56D"/>
<stop offset="1" stop-color="#C5715A"/>
</linearGradient>
</defs>
</svg>
