<svg width="214" height="44" viewBox="0 0 214 44" fill="none" xmlns="http://www.w3.org/2000/svg">
<path d="M66.7059 43.4084C61.0236 43.4084 57.2932 40.242 57.1631 35.3838H61.8477C61.9779 37.8562 64.06 39.1575 66.8794 39.1575C69.482 39.1575 71.4773 38.0731 71.4773 36.1212C71.4773 33.8656 68.9615 33.3885 66.0986 32.9113C62.1948 32.2173 57.5969 31.3498 57.5969 25.9277C57.5969 21.7202 61.1971 18.814 66.6625 18.814C72.0846 18.814 75.6415 21.8069 75.7282 26.3181H71.1737C71.0869 24.1059 69.3519 22.8914 66.5324 22.8914C63.8864 22.8914 62.2381 24.0625 62.2381 25.7542C62.2381 27.8363 64.6238 28.2267 67.4433 28.7038C71.3906 29.3545 76.2054 30.1352 76.2054 35.9043C76.2054 40.4588 72.4316 43.4084 66.7059 43.4084Z" fill="url(#paint0_linear_1_1718)"/>
<path d="M34.5731 13.9558H54.5697V14.6932L43.3786 42.8012H38.4336L48.3235 18.2501H34.5731V13.9558Z" fill="url(#paint1_linear_1_1718)"/>
<path d="M26.988 42.8012V37.2924H32.2365V42.8012H26.988Z" fill="url(#paint2_linear_1_1718)"/>
<path d="M11.5246 43.3217C4.54098 43.3217 0.116577 37.5526 0.116577 28.3568C0.116577 19.161 4.4976 13.4353 11.5246 13.4353C18.5516 13.4353 22.8892 19.161 22.8892 28.3568C22.8892 37.5526 18.5082 43.3217 11.5246 43.3217ZM11.5246 38.9407C15.6887 38.9407 18.1612 35.0802 18.1612 28.4002C18.1612 21.7202 15.6887 17.8597 11.5246 17.8597C7.36045 17.8597 4.84462 21.7202 4.84462 28.3568C4.84462 35.0368 7.31708 38.9407 11.5246 38.9407Z" fill="url(#paint3_linear_1_1718)"/>
<path d="M203.621 43.4084C197.939 43.4084 194.209 40.242 194.078 35.3838H198.763C198.893 37.8562 200.975 39.1575 203.795 39.1575C206.397 39.1575 208.393 38.0731 208.393 36.1212C208.393 33.8656 205.877 33.3885 203.014 32.9113C199.11 32.2173 194.512 31.3498 194.512 25.9277C194.512 21.7202 198.113 18.814 203.578 18.814C209 18.814 212.557 21.8069 212.644 26.3181H208.089C208.002 24.1059 206.267 22.8914 203.448 22.8914C200.802 22.8914 199.154 24.0625 199.154 25.7542C199.154 27.8363 201.539 28.2267 204.359 28.7038C208.306 29.3545 213.121 30.1352 213.121 35.9043C213.121 40.4588 209.347 43.4084 203.621 43.4084Z" fill="url(#paint4_linear_1_1718)"/>
<path d="M181.009 18.8574C185.954 18.8574 189.294 22.6312 189.294 27.9231V42.8013H184.479V29.0943C184.479 25.3205 182.831 23.1951 179.924 23.1951C176.801 23.1951 174.415 26.0145 174.415 30.0052V42.8013H169.731V29.0943C169.731 25.3205 168.082 23.1951 165.176 23.1951C162.053 23.1951 159.667 26.0145 159.667 30.0052V42.8013H154.853V19.3779H158.236L159.06 22.4143C160.839 20.2455 163.528 18.8574 166.347 18.8574C169.514 18.8574 172.03 20.419 173.374 22.9782C175.066 20.4624 177.929 18.8574 181.009 18.8574Z" fill="url(#paint5_linear_1_1718)"/>
<path d="M145.438 27.4459C147.823 28.8773 149.255 31.3932 149.255 34.2994C149.255 39.5913 144.96 43.3651 138.801 43.3651C132.555 43.3651 128.347 39.6781 128.347 34.2994C128.347 31.4366 129.735 28.9207 132.164 27.4459C130.342 26.0145 129.258 23.8023 129.258 21.3732C129.258 16.7319 133.162 13.4353 138.801 13.4353C144.44 13.4353 148.3 16.6885 148.3 21.3732C148.3 23.8457 147.216 26.1012 145.438 27.4459ZM138.801 17.3392C135.895 17.3392 133.856 19.0742 133.856 21.46C133.856 23.889 135.895 25.5807 138.801 25.5807C141.664 25.5807 143.659 23.889 143.659 21.46C143.659 19.0742 141.664 17.3392 138.801 17.3392ZM138.801 39.2443C142.228 39.2443 144.57 37.249 144.57 34.3428C144.57 31.4366 142.228 29.4412 138.801 29.4412C135.374 29.4412 133.032 31.4366 133.032 34.3428C133.032 37.249 135.374 39.2443 138.801 39.2443Z" fill="url(#paint6_linear_1_1718)"/>
<path d="M112.568 13.9558H122.284V42.8012H117.686V18.2067H112.568V13.9558Z" fill="url(#paint7_linear_1_1718)"/>
<path d="M162.387 6.76096V0.397583H162.814V6.76096H162.387Z" fill="black"/>
<path d="M160.392 2.06019H160.74V6.76091H160.383L160.331 5.74242C159.922 6.42141 159.191 6.85667 158.286 6.85667C156.91 6.85667 155.874 5.80336 155.874 4.41055C155.874 3.01775 156.91 1.97314 158.286 1.97314C159.191 1.97314 159.922 2.4084 160.331 3.08739L160.392 2.06019ZM158.312 6.44753C159.469 6.44753 160.314 5.58573 160.314 4.41055C160.314 3.24408 159.469 2.38228 158.312 2.38228C157.171 2.38228 156.31 3.26149 156.31 4.41055C156.31 5.57703 157.171 6.44753 158.312 6.44753Z" fill="black"/>
<path d="M154.777 6.36924H155.291V6.76097H154.734C153.811 6.76097 153.254 6.20385 153.254 5.2637V2.45198H152.47V2.35623L153.593 1.23328H153.68V2.06025H155.256V2.45198H153.68V5.255C153.68 5.96011 154.072 6.36924 154.777 6.36924Z" fill="black"/>
<path d="M149.412 6.85667C148.01 6.85667 146.948 5.81206 146.948 4.41055C146.948 3.00904 148.01 1.97314 149.412 1.97314C150.822 1.97314 151.875 3.01775 151.875 4.41055C151.875 5.81206 150.822 6.85667 149.412 6.85667ZM149.412 6.44753C150.578 6.44753 151.44 5.58573 151.44 4.41055C151.44 3.24408 150.578 2.38228 149.412 2.38228C148.245 2.38228 147.383 3.24408 147.383 4.41926C147.383 5.58573 148.254 6.44753 149.412 6.44753Z" fill="black"/>
<path d="M145.851 6.36924H146.365V6.76097H145.808C144.885 6.76097 144.328 6.20385 144.328 5.2637V2.45198H143.544V2.35623L144.667 1.23328H144.754V2.06025H146.33V2.45198H144.754V5.255C144.754 5.96011 145.146 6.36924 145.851 6.36924Z" fill="black"/>
<path d="M138.207 6.85667C136.806 6.85667 135.744 5.81206 135.744 4.41055C135.744 3.00904 136.806 1.97314 138.207 1.97314C139.618 1.97314 140.671 3.01775 140.671 4.41055C140.671 5.81206 139.618 6.85667 138.207 6.85667ZM138.207 6.44753C139.374 6.44753 140.236 5.58573 140.236 4.41055C140.236 3.24408 139.374 2.38228 138.207 2.38228C137.041 2.38228 136.179 3.24408 136.179 4.41926C136.179 5.58573 137.05 6.44753 138.207 6.44753Z" fill="black"/>
<path d="M132.512 1.97314C133.914 1.97314 134.906 3.01775 134.906 4.41055C134.906 5.80336 133.914 6.85667 132.512 6.85667C131.65 6.85667 130.919 6.43882 130.501 5.77724V8.43228H130.075V2.06019H130.38L130.475 3.08739C130.893 2.4084 131.633 1.97314 132.512 1.97314ZM132.486 6.44753C133.635 6.44753 134.48 5.58573 134.48 4.41055C134.48 3.24408 133.635 2.38228 132.486 2.38228C131.346 2.38228 130.484 3.25278 130.484 4.41055C130.484 5.56832 131.346 6.44753 132.486 6.44753Z" fill="black"/>
<path d="M126.905 1.97314C127.872 1.97314 128.507 2.70437 128.507 3.78379V6.76091H128.089L128.081 3.90566C128.081 2.96552 127.593 2.36487 126.827 2.36487C125.974 2.36487 125.356 3.06998 125.347 4.06235V6.76091H124.929V3.90566C124.929 2.95681 124.451 2.36487 123.676 2.36487C122.823 2.36487 122.196 3.06998 122.196 4.06235V6.76091H121.769V2.06019H122.091L122.161 2.89588C122.483 2.32135 123.066 1.97314 123.763 1.97314C124.477 1.97314 125.016 2.39099 125.243 3.05257C125.539 2.38228 126.157 1.97314 126.905 1.97314Z" fill="black"/>
<path d="M120.553 4.40185C120.553 4.45408 120.544 4.51501 120.544 4.56724H116.278C116.339 5.66408 117.149 6.43882 118.22 6.43882C118.994 6.43882 119.612 6.0558 119.961 5.39422H120.413C119.978 6.33436 119.203 6.85667 118.22 6.85667C116.87 6.85667 115.852 5.80336 115.852 4.41055C115.852 3.02645 116.87 1.97314 118.22 1.97314C119.595 1.97314 120.553 3.03516 120.553 4.40185ZM118.22 2.37358C117.175 2.37358 116.392 3.1135 116.278 4.16681H120.126C120.03 3.08739 119.238 2.37358 118.22 2.37358Z" fill="black"/>
<path d="M115.863 0.66748V1.08532H113.921V6.761H113.477V1.08532H111.536V0.66748H115.863Z" fill="black"/>
<path d="M66.52 6.43703V5.32413C66.1994 6.04529 65.4872 6.53497 64.6058 6.53497C63.2525 6.53497 62.3354 5.5111 62.3354 4.22013C62.3354 2.96477 63.2169 1.9231 64.6147 1.9231C65.505 1.9231 66.2083 2.41277 66.52 3.12503V2.02103H66.9295V6.43703H66.52ZM64.6236 6.16993C65.7276 6.16993 66.5289 5.31523 66.5289 4.22013C66.5289 3.15174 65.7632 2.28813 64.6147 2.28813C63.4662 2.28813 62.7539 3.15174 62.7539 4.22013C62.7539 5.31523 63.5018 6.16993 64.6236 6.16993Z" fill="black"/>
<path d="M61.1283 0V6.43703H60.7188V0H61.1283Z" fill="black"/>
<path d="M59.0915 5.56452C59.1716 5.66245 59.2607 5.71587 59.3408 5.81381C58.7977 6.38361 58.121 6.53497 57.5156 6.53497C56.011 6.53497 55.0405 5.49329 55.0405 4.24684C55.0405 2.96477 56.0377 1.9231 57.4177 1.9231C58.5039 1.9231 59.5545 2.57303 59.5812 4.10439H55.4679C55.459 4.16671 55.459 4.21122 55.459 4.27355C55.459 5.32413 56.2692 6.16993 57.5156 6.16993C58.0498 6.16993 58.6196 6.01858 59.0915 5.56452ZM57.4177 2.28813C56.465 2.28813 55.7261 2.88464 55.5124 3.77497H59.1538C59.0114 2.71548 58.2101 2.28813 57.4177 2.28813Z" fill="black"/>
<path d="M52.5758 2.35927V5.10147C52.5758 5.97398 52.9854 6.16986 53.386 6.16986C53.8401 6.16986 54.1517 5.87605 54.1517 5.4576C54.1517 5.43089 54.1517 5.28844 54.1072 5.1905H54.49C54.5167 5.26173 54.5345 5.33295 54.5345 5.39527C54.5434 5.42198 54.5434 5.4576 54.5434 5.49321C54.5434 6.08973 54.125 6.53489 53.386 6.53489C52.7895 6.53489 52.1663 6.27669 52.1663 5.08366V2.35927H51.3739V2.02095H52.1663L52.2642 0.596436H52.5758V2.02095H54.036V2.35927H52.5758Z" fill="black"/>
<path d="M47.5659 6.43703V5.32413C47.2453 6.04529 46.5331 6.53497 45.6517 6.53497C44.2984 6.53497 43.3813 5.5111 43.3813 4.22013C43.3813 2.96477 44.2628 1.9231 45.6606 1.9231C46.5509 1.9231 47.2543 2.41277 47.5659 3.12503V2.02103H47.9754V6.43703H47.5659ZM45.6695 6.16993C46.7735 6.16993 47.5748 5.31523 47.5748 4.22013C47.5748 3.15174 46.8091 2.28813 45.6606 2.28813C44.5121 2.28813 43.7998 3.15174 43.7998 4.22013C43.7998 5.31523 44.5477 6.16993 45.6695 6.16993Z" fill="black"/>
<path d="M41.7927 6.43703V5.32413C41.4722 6.04529 40.76 6.53497 39.8785 6.53497C38.5252 6.53497 37.6082 5.5111 37.6082 4.22013C37.6082 2.96477 38.4896 1.9231 39.8874 1.9231C40.7778 1.9231 41.4811 2.41277 41.7927 3.12503V0H42.2023V6.43703H41.7927ZM39.8963 6.16994C41.0003 6.16994 41.8016 5.31523 41.8016 4.22013C41.8016 3.15174 41.036 2.28813 39.8874 2.28813C38.7389 2.28813 38.0267 3.15174 38.0267 4.22013C38.0267 5.31523 38.7745 6.16994 39.8963 6.16994Z" fill="black"/>
<path d="M29.6525 4.23793C29.6525 2.96477 30.703 1.9231 31.9673 1.9231C33.2494 1.9231 34.3 2.97368 34.3 4.23793C34.3 5.49329 33.2494 6.53497 31.9673 6.53497C30.703 6.53497 29.6525 5.52 29.6525 4.23793ZM30.0709 4.23793C30.0709 5.30632 30.9345 6.16993 31.9673 6.16993C33.0179 6.16993 33.8815 5.30632 33.8815 4.23793C33.8815 3.16955 33.0179 2.28813 31.9673 2.28813C30.9345 2.28813 30.0709 3.16955 30.0709 4.23793Z" fill="black"/>
<path d="M28.0727 6.43699V5.32408C27.7522 6.04524 27.0399 6.53492 26.1585 6.53492C24.8052 6.53492 23.8882 5.51105 23.8882 4.22008C23.8882 2.96473 24.7696 1.92305 26.1674 1.92305C27.0577 1.92305 27.7611 2.41273 28.0727 3.12499V2.02099H28.4822V6.43699H28.0727ZM26.1763 6.16989C27.2803 6.16989 28.0816 5.31518 28.0816 4.22008C28.0816 3.1517 27.3159 2.28808 26.1674 2.28808C25.0189 2.28808 24.3066 3.1517 24.3066 4.22008C24.3066 5.31518 25.0545 6.16989 26.1763 6.16989ZM26.6393 0.961502C26.2297 0.961502 25.8736 0.56976 25.473 0.56976C25.2593 0.56976 25.197 0.685502 25.0545 0.997115L24.8408 0.952598C25.01 0.391695 25.1702 0.249243 25.4641 0.249243C25.8647 0.249243 26.2742 0.632083 26.6304 0.632083C26.8441 0.632083 26.9064 0.534147 27.0488 0.222534L27.2625 0.26705C27.0933 0.827953 26.9331 0.961502 26.6393 0.961502Z" fill="black"/>
<path d="M19.2016 4.24684C19.2016 2.95587 20.1008 1.9231 21.7034 1.9231C22.0506 1.9231 22.6561 2.00322 23.2348 2.42168L23.03 2.71548C22.5225 2.33264 21.9972 2.28813 21.7123 2.28813C20.4124 2.28813 19.6468 3.13393 19.6201 4.22903C19.6468 5.32413 20.4124 6.16993 21.7123 6.16993C21.9972 6.16993 22.5225 6.10761 23.03 5.74258L23.2348 6.03639C22.7718 6.36581 22.2999 6.48155 21.9527 6.51716C22.2821 6.81097 22.3622 7.1671 22.3622 7.38968C22.3622 8.08413 21.7835 8.42245 21.2493 8.42245C20.6439 8.42245 20.2077 8.004 20.0919 7.46981L20.3412 7.33626C20.4391 7.76361 20.8042 8.09303 21.2404 8.09303C21.6233 8.09303 22.0328 7.82594 22.0328 7.33626C22.0328 7.11368 21.926 6.81097 21.5966 6.53497C20.083 6.49045 19.2283 5.50219 19.2016 4.24684Z" fill="black"/>
<path d="M18.0034 2.02101V6.43701H17.5938V2.02101H18.0034ZM17.4692 0.462941C17.4692 0.249263 17.6027 0.106812 17.7897 0.106812C17.9767 0.106812 18.1102 0.249263 18.1102 0.462941C18.1102 0.676618 17.9767 0.81907 17.7897 0.81907C17.6027 0.81907 17.4692 0.676618 17.4692 0.462941Z" fill="black"/>
<path d="M12.1946 5.32413V6.43703H11.785V0H12.1946V3.12503C12.5062 2.41277 13.2095 1.9231 14.0999 1.9231C15.4977 1.9231 16.3791 2.96477 16.3791 4.22013C16.3791 5.5111 15.4621 6.53497 14.1088 6.53497C13.2274 6.53497 12.5151 6.04529 12.1946 5.32413ZM14.091 6.16994C15.2128 6.16994 15.9606 5.31523 15.9606 4.22013C15.9606 3.15174 15.2484 2.28813 14.0999 2.28813C12.9514 2.28813 12.1857 3.15174 12.1857 4.22013C12.1857 5.31523 12.987 6.16994 14.091 6.16994Z" fill="black"/>
<path d="M10.2218 2.02101V6.43701H9.81221V2.02101H10.2218ZM9.68756 0.462941C9.68756 0.249263 9.82111 0.106812 10.0081 0.106812C10.195 0.106812 10.3286 0.249263 10.3286 0.462941C10.3286 0.676618 10.195 0.81907 10.0081 0.81907C9.82111 0.81907 9.68756 0.676618 9.68756 0.462941Z" fill="black"/>
<path d="M8.413 6.437L6.63236 4.34474L4.84281 6.437H4.33533L6.35636 4.09545L4.57571 2.021H5.0743L6.63236 3.83725L8.19042 2.021H8.6801L6.89946 4.09545L8.92049 6.437H8.413Z" fill="black"/>
<path d="M3.76606 6.08084V6.43697H0V0.204712H3.76606V0.569744H0.418452V3.2051H3.34761V3.57013H0.418452V6.08084H3.76606Z" fill="black"/>
<defs>
<linearGradient id="paint0_linear_1_1718" x1="24.9477" y1="6.34747" x2="33.0547" y2="47.4605" gradientUnits="userSpaceOnUse">
<stop offset="0.115007" stop-color="#B3DBAC"/>
<stop offset="0.875007" stop-color="#29AB4C"/>
</linearGradient>
<linearGradient id="paint1_linear_1_1718" x1="24.9478" y1="6.34748" x2="33.0548" y2="47.4605" gradientUnits="userSpaceOnUse">
<stop offset="0.115007" stop-color="#B3DBAC"/>
<stop offset="0.875007" stop-color="#29AB4C"/>
</linearGradient>
<linearGradient id="paint2_linear_1_1718" x1="24.9478" y1="6.34747" x2="33.0547" y2="47.4605" gradientUnits="userSpaceOnUse">
<stop offset="0.115007" stop-color="#B3DBAC"/>
<stop offset="0.875007" stop-color="#29AB4C"/>
</linearGradient>
<linearGradient id="paint3_linear_1_1718" x1="24.9478" y1="6.34749" x2="33.0547" y2="47.4605" gradientUnits="userSpaceOnUse">
<stop offset="0.115007" stop-color="#B3DBAC"/>
<stop offset="0.875007" stop-color="#29AB4C"/>
</linearGradient>
<linearGradient id="paint4_linear_1_1718" x1="146.02" y1="6.34747" x2="152.429" y2="48.0749" gradientUnits="userSpaceOnUse">
<stop offset="0.115007" stop-color="#B3DBAC"/>
<stop offset="0.875007" stop-color="#29AB4C"/>
</linearGradient>
<linearGradient id="paint5_linear_1_1718" x1="146.02" y1="6.34755" x2="152.429" y2="48.075" gradientUnits="userSpaceOnUse">
<stop offset="0.115007" stop-color="#B3DBAC"/>
<stop offset="0.875007" stop-color="#29AB4C"/>
</linearGradient>
<linearGradient id="paint6_linear_1_1718" x1="146.02" y1="6.34749" x2="152.429" y2="48.0749" gradientUnits="userSpaceOnUse">
<stop offset="0.115007" stop-color="#B3DBAC"/>
<stop offset="0.875007" stop-color="#29AB4C"/>
</linearGradient>
<linearGradient id="paint7_linear_1_1718" x1="146.02" y1="6.34748" x2="152.429" y2="48.0749" gradientUnits="userSpaceOnUse">
<stop offset="0.115007" stop-color="#B3DBAC"/>
<stop offset="0.875007" stop-color="#29AB4C"/>
</linearGradient>
</defs>
</svg>
